<svg width="32" height="26" viewBox="0 0 32 26" fill="none" xmlns="http://www.w3.org/2000/svg">
<path d="M28.7217 6.47263C28.7412 6.75471 28.7412 7.0368 28.7412 7.32148C28.7412 15.9958 22.1376 26 10.0627 26V25.9948C6.49569 26 3.00281 24.9783 0 23.0518C0.518667 23.1142 1.03993 23.1454 1.5625 23.1467C4.51851 23.1493 7.39003 22.1574 9.71559 20.3311C6.90646 20.2778 4.44312 18.4462 3.58257 15.7722C4.56661 15.962 5.58055 15.923 6.54639 15.6592C3.48378 15.0404 1.28042 12.3496 1.28042 9.22456C1.28042 9.19596 1.28042 9.16866 1.28042 9.14136C2.19296 9.64963 3.2147 9.93172 4.25983 9.96291C1.37531 8.03513 0.486169 4.19778 2.22806 1.19757C5.56105 5.29881 10.4786 7.79205 15.7576 8.05593C15.2285 5.77588 15.9513 3.38663 17.6568 1.78383C20.3008 -0.701615 24.4593 -0.574223 26.9447 2.06851C28.4149 1.77863 29.824 1.23916 31.1135 0.474811C30.6235 1.99442 29.5978 3.28523 28.2277 4.10548C29.5289 3.95209 30.8003 3.60371 31.9975 3.07205C31.1161 4.39276 30.006 5.54319 28.7217 6.47263Z" fill="white"/>
</svg>
