<svg xmlns="http://www.w3.org/2000/svg" width="113" height="40" fill="none" viewBox="0 0 113 40"><g clip-path="url(#a)"><path fill="url(#b)" fill-rule="evenodd" d="M11.003 5.052v24.214c-2.603-2.325-3.16-5.141-3.16-7.709V4.527A19.5 19.5 0 0 1 17.414 0c.03.166.043.376.044.639.008 3.08.006 6.16.005 9.24l-.002 3.452v1.691h9.511V18.3H14.232V5.052h-3.229Zm12.821 6.69h3.227V4.48c1.942.43 9.306 5.364 9.607 13.092v14.355A20.5 20.5 0 0 0 40.45 20c0-10.074-7.178-18.428-16.58-19.999-.029.17-.04.386-.042.659l-.005 11.083Zm6.4-1.012v24.215h-3.229V21.697h-12.74v3.277h9.512v1.691l-.001 3.474c-.002 3.073-.003 6.146.005 9.218 0 .264.014.474.044.64a19.5 19.5 0 0 0 9.569-4.528V18.44c0-2.567-.556-5.384-3.16-7.709ZM17.506 28.258h-3.227v7.262c-1.941-.43-9.306-5.364-9.606-13.092V8.072A20.5 20.5 0 0 0 .879 20c0 10.075 7.178 18.428 16.581 19.999.028-.17.04-.386.041-.659l.005-11.083Zm34.037-16.754v17.321h2.575v-8.05h2.306v8.05H59v-17.32h-2.575v7.007h-2.307v-7.008h-2.575Zm18.242 12.115-1.134-8.7h-.038l-1.038 8.7h2.21Zm-5.304 5.206 2.412-17.32h3.401l2.566 17.32h-2.403l-.403-3.09h-2.73l-.364 3.09h-2.48Zm13.816-17.32v17.32h2.373v-6.21l-.144-4.546 3.68 10.756h1.827v-17.32h-2.316v5.668l.182 4.724-3.584-10.393h-2.018Zm13.586 17.32v-17.32h2.575v7.971l2.575-7.972h2.662l-2.806 8.543 3.027 8.778h-2.72l-2.718-8.09v8.09h-2.595Zm16.466-2.088c-.468 0-.777-.2-.927-.6-.151-.4-.226-1.11-.226-2.127v-8.08c0-.813.088-1.408.264-1.786.177-.377.484-.566.923-.566.438 0 .733.19.883.566.151.378.226.976.226 1.797v8.07c0 .997-.074 1.7-.221 2.11-.147.41-.455.616-.922.616Zm.014 2.283c1.297 0 2.241-.417 2.83-1.25.59-.833.884-2.096.884-3.79v-7.921c0-1.562-.287-2.746-.86-3.553-.573-.807-1.513-1.21-2.82-1.21-2.53 0-3.795 1.587-3.795 4.763v7.922c0 1.686.302 2.947.908 3.784.605.836 1.556 1.255 2.853 1.255Z" clip-rule="evenodd"/></g><defs><linearGradient id="b" x1="56.478" x2="56.478" y1="0" y2="39.999" gradientUnits="userSpaceOnUse"><stop stop-color="white"/><stop offset="1" stop-color="white" stop-opacity=".6"/></linearGradient><clipPath id="a"><path fill="white" d="M.885 0h111.47v40H.886z"/></clipPath></defs></svg>