<svg xmlns="http://www.w3.org/2000/svg" width="126" height="44" fill="none" viewBox="0 0 126 44"><g clip-path="url(#a)"><path fill="#F6F6F7" d="M33.056 11.804V38.44h-3.638V23.867H15.066v3.605h10.716v1.86c0 4.654-.008 9.308.004 13.962 0 .29.016.52.05.703a22.199 22.199 0 0 0 10.78-4.98V20.284c0-2.824-.627-5.922-3.56-8.48Z"/><path fill="#F6F6F7" d="M25.844 12.916h3.635V4.927c2.188.474 10.485 5.9 10.823 14.402V35.12a22.188 22.188 0 0 0 4.274-13.121c0-11.082-8.087-20.271-18.68-21.999a4.71 4.71 0 0 0-.047.725l-.005 12.191Z"/><path fill="#F6F6F7" d="M11.397 32.192V5.557h3.638v14.572h14.352v-3.604H18.672v-1.86c0-4.655.008-9.308-.004-13.962 0-.29-.016-.52-.05-.703a22.198 22.198 0 0 0-10.78 4.98v18.733c0 2.824.626 5.922 3.56 8.48Z"/><path fill="#F6F6F7" d="M18.732 31.084h-3.635v7.989c-2.188-.474-10.485-5.9-10.823-14.402V8.88A22.188 22.188 0 0 0 0 22C0 33.083 8.087 42.272 18.68 44a4.71 4.71 0 0 0 .047-.725l.005-12.191ZM57.078 31.707V12.654h2.902v7.708h2.598v-7.708h2.901v19.053h-2.901v-8.855H59.98v8.855h-2.902ZM77.628 25.98l-1.277-9.57h-.043l-1.17 9.57h2.49Zm-5.976 5.727 2.718-19.053h3.832l2.89 19.053h-2.706l-.455-3.4h-3.074l-.412 3.4h-2.793ZM87.209 31.707V12.654h2.273l4.038 11.432-.205-5.196v-6.236h2.609v19.053h-2.057l-4.146-11.832.162 5.001v6.831h-2.674ZM102.52 31.707V12.654h2.901v8.769l2.901-8.769h2.998l-3.16 9.397 3.41 9.656h-3.064l-3.063-8.899v8.9h-2.923ZM120.027 28.75c.169.44.518.66 1.045.66.526 0 .872-.226 1.038-.677.166-.45.25-1.225.25-2.322v-8.877c0-.902-.086-1.56-.255-1.975-.17-.415-.502-.623-.996-.623s-.84.208-1.039.623c-.198.415-.298 1.07-.298 1.964v8.888c0 1.119.085 1.898.255 2.338Zm4.249 1.796c-.664.917-1.727 1.375-3.189 1.375-1.461 0-2.532-.46-3.214-1.38-.682-.92-1.023-2.308-1.023-4.163v-8.714c0-3.493 1.425-5.24 4.276-5.24 1.472 0 2.531.444 3.177 1.332.645.888.969 2.19.969 3.908v8.714c0 1.863-.332 3.252-.996 4.168Z"/></g><defs><clipPath id="a"><path fill="white" d="M0 0h125.583v44H0z"/></clipPath></defs></svg>