<svg xmlns="http://www.w3.org/2000/svg" width="132" height="40" fill="none" viewBox="0 0 132 40"><path fill="url(#a)" d="M66.633 28.226v-9.242c0-1.595-.389-2.807-1.166-3.638-.777-.83-1.998-1.245-3.663-1.245-1.132 0-2.03.11-2.697.328-.666.197-1.087.338-1.265.426v13.37h-3.43V12.693c.089-.044.333-.142.733-.295.4-.153.932-.317 1.598-.492a21.863 21.863 0 0 1 2.33-.458 20.14 20.14 0 0 1 2.931-.197c1.221 0 2.331.164 3.33.492 1 .305 1.843.753 2.53 1.343.711.59 1.255 1.3 1.632 2.13.378.83.567 1.77.567 2.819v10.192h-3.43Z"/><path fill="url(#b)" d="M92.366 20c0 1.245-.222 2.403-.666 3.474a8.182 8.182 0 0 1-1.798 2.785c-.777.765-1.709 1.377-2.797 1.836-1.088.437-2.286.655-3.596.655s-2.52-.218-3.63-.655c-1.087-.46-2.02-1.071-2.797-1.836a8.612 8.612 0 0 1-1.831-2.785c-.422-1.07-.633-2.229-.633-3.474s.211-2.403.633-3.474a8.24 8.24 0 0 1 1.831-2.753 8.147 8.147 0 0 1 2.797-1.835c1.11-.459 2.32-.688 3.63-.688s2.508.23 3.596.688a8.147 8.147 0 0 1 2.797 1.835 7.84 7.84 0 0 1 1.798 2.753c.444 1.07.666 2.229.666 3.474Zm-3.563 0c0-.874-.122-1.671-.366-2.392-.244-.743-.6-1.377-1.065-1.901a4.266 4.266 0 0 0-1.665-1.245c-.644-.306-1.377-.46-2.198-.46-.844 0-1.598.154-2.264.46-.644.284-1.2.699-1.665 1.245-.444.524-.788 1.158-1.033 1.9-.244.722-.366 1.52-.366 2.393 0 .874.122 1.682.366 2.425a6.067 6.067 0 0 0 1.033 1.9c.466.525 1.02.94 1.665 1.246.666.284 1.42.426 2.264.426.821 0 1.554-.142 2.198-.426a4.737 4.737 0 0 0 1.665-1.245 5.721 5.721 0 0 0 1.065-1.9A7.724 7.724 0 0 0 88.804 20Z"/><path fill="url(#c)" d="M112.297 12.495c-.133.481-.367 1.126-.7 1.934a106.532 106.532 0 0 1-2.497 5.768c-.488 1.07-.988 2.119-1.498 3.146a118.97 118.97 0 0 1-1.432 2.85 58.106 58.106 0 0 1-1.166 2.197h-3.563a95.57 95.57 0 0 1-1.265-2.294c-.422-.853-.855-1.705-1.299-2.557-.421-.874-.832-1.737-1.232-2.589-.4-.852-.777-1.638-1.132-2.36-.333-.742-.633-1.397-.899-1.965-.244-.569-.433-1.005-.566-1.311a22.803 22.803 0 0 1-.4-.983 2.77 2.77 0 0 1-.2-.984c0-.393.134-.753.4-1.081.267-.328.722-.492 1.365-.492.444 0 .788.044 1.033.131.244.088.377.142.4.164.377 1.027.81 2.152 1.298 3.376.51 1.223 1.021 2.436 1.532 3.637.532 1.18 1.043 2.316 1.531 3.409.489 1.07.922 1.977 1.299 2.72.266-.503.611-1.213 1.032-2.13.444-.94.899-1.967 1.366-3.081.488-1.114.976-2.261 1.465-3.441.488-1.18.921-2.261 1.298-3.244.178-.481.4-.852.666-1.115.267-.284.711-.426 1.332-.426.533 0 .955.099 1.266.295.333.197.521.339.566.426Z"/><path fill="url(#d)" d="M127.174 13.315c0-.525.155-.907.466-1.147.311-.263.755-.394 1.332-.394.378 0 .711.044.999.131.311.088.522.153.633.197v16.124c-.156.043-.433.087-.833.13-.377.044-.843.088-1.398.132-.555.065-1.166.11-1.832.13-.666.045-1.343.067-2.031.067-2.02 0-3.663-.24-4.928-.721-1.243-.481-2.231-1.18-2.964-2.098-.91-1.158-1.365-2.698-1.365-4.62v-7.931c0-.525.155-.907.466-1.147.311-.263.755-.394 1.332-.394.378 0 .711.044.999.131.311.088.522.153.633.197v8.783c0 1.66.422 2.906 1.265 3.736.866.83 2.32 1.245 4.362 1.245.777 0 1.399-.022 1.865-.065.488-.066.821-.12.999-.164V13.315Z"/><path fill="url(#e)" fill-rule="evenodd" d="M32.367 16.032c0 1.076-1.326 1.608-2.09.84L14.635 1.133A20.577 20.577 0 0 1 21.395 0c4.042 0 7.808 1.161 10.973 3.164v12.868Zm5.69-7.482v7.482c0 6.094-7.517 9.112-11.846 4.756L9.389 3.864C4.35 7.504 1.08 13.376 1.08 20c0 4.259 1.351 8.207 3.656 11.45v-7.442c0-6.094 7.516-9.112 11.846-4.756l16.798 16.9c5.053-3.638 8.335-9.518 8.335-16.152 0-4.259-1.353-8.207-3.657-11.45ZM12.514 23.169l15.613 15.707A20.578 20.578 0 0 1 21.396 40a20.457 20.457 0 0 1-10.972-3.164V24.008c0-1.076 1.327-1.608 2.09-.84Z" clip-rule="evenodd"/><defs><linearGradient id="a" x1="92.508" x2="92.508" y1="11.25" y2="28.75" gradientUnits="userSpaceOnUse"><stop stop-color="white"/><stop offset="1" stop-color="white" stop-opacity=".6"/></linearGradient><linearGradient id="b" x1="92.508" x2="92.508" y1="11.25" y2="28.75" gradientUnits="userSpaceOnUse"><stop stop-color="white"/><stop offset="1" stop-color="white" stop-opacity=".6"/></linearGradient><linearGradient id="c" x1="92.508" x2="92.508" y1="11.25" y2="28.75" gradientUnits="userSpaceOnUse"><stop stop-color="white"/><stop offset="1" stop-color="white" stop-opacity=".6"/></linearGradient><linearGradient id="d" x1="92.508" x2="92.508" y1="11.25" y2="28.75" gradientUnits="userSpaceOnUse"><stop stop-color="white"/><stop offset="1" stop-color="white" stop-opacity=".6"/></linearGradient><linearGradient id="e" x1="21.396" x2="21.396" y1="0" y2="40" gradientUnits="userSpaceOnUse"><stop stop-color="white"/><stop offset="1" stop-color="white" stop-opacity=".6"/></linearGradient></defs></svg>