<svg xmlns="http://www.w3.org/2000/svg" width="119" height="42" fill="none" viewBox="0 0 119 42"><path fill="white" d="M18.601 10.295v3.584a.23.23 0 0 1-.23.227h-6.584v18.857a.23.23 0 0 1-.23.227H7.366a.23.23 0 0 1-.23-.227V14.106H.568a.23.23 0 0 1-.23-.227v-3.584a.23.23 0 0 1 .23-.228h17.804a.23.23 0 0 1 .23.228ZM36.07 20.25a9.184 9.184 0 0 0-2.035-2.965c-.864-.84-1.91-1.511-3.102-1.998-1.197-.488-2.518-.736-3.934-.736-1.403 0-2.718.248-3.908.736a9.66 9.66 0 0 0-3.093 1.998 9.02 9.02 0 0 0-2.028 2.965 9.216 9.216 0 0 0-.724 3.63c0 1.28.246 2.503.733 3.631a9.19 9.19 0 0 0 2.027 2.966 9.464 9.464 0 0 0 3.078 1.989c1.184.482 2.495.726 3.9.726 1.424 0 2.752-.244 3.947-.726a9.584 9.584 0 0 0 3.11-1.99 9.005 9.005 0 0 0 2.039-2.955 9.21 9.21 0 0 0 .726-3.642 9.108 9.108 0 0 0-.736-3.63Zm-9.036 8.986a5.265 5.265 0 0 1-2.047-.398 5.123 5.123 0 0 1-1.661-1.108 5.268 5.268 0 0 1-1.12-1.696 5.578 5.578 0 0 1-.413-2.17c0-.777.14-1.503.414-2.156a5.264 5.264 0 0 1 1.119-1.693 5.05 5.05 0 0 1 1.659-1.1 5.37 5.37 0 0 1 2.049-.39c.717 0 1.402.134 2.038.398a5.19 5.19 0 0 1 1.67 1.101 5.194 5.194 0 0 1 1.119 1.684c.274.654.411 1.38.411 2.155 0 .79-.137 1.523-.411 2.18a5.226 5.226 0 0 1-1.121 1.703 5.014 5.014 0 0 1-1.657 1.099 5.363 5.363 0 0 1-2.05.391ZM58.094 20.25a9.109 9.109 0 0 0-2.036-2.965c-.864-.84-1.907-1.511-3.102-1.998-1.195-.488-2.518-.736-3.933-.736-1.402 0-2.719.248-3.908.736a9.657 9.657 0 0 0-3.093 1.998 9.087 9.087 0 0 0-2.029 2.965 9.22 9.22 0 0 0-.724 3.63c0 1.28.246 2.503.734 3.631a9.26 9.26 0 0 0 2.026 2.966 9.466 9.466 0 0 0 3.079 1.989c1.183.482 2.495.726 3.899.726 1.424 0 2.752-.244 3.947-.726a9.592 9.592 0 0 0 3.113-1.99 8.999 8.999 0 0 0 2.036-2.955 9.176 9.176 0 0 0 .726-3.642 9.107 9.107 0 0 0-.735-3.63Zm-9.037 8.986a5.267 5.267 0 0 1-2.047-.398 5.122 5.122 0 0 1-1.661-1.108 5.242 5.242 0 0 1-1.12-1.696 5.59 5.59 0 0 1-.41-2.17c0-.777.137-1.503.41-2.156a5.262 5.262 0 0 1 1.12-1.693c.47-.47 1.029-.84 1.659-1.1a5.369 5.369 0 0 1 2.049-.39c.717 0 1.404.134 2.04.398a5.205 5.205 0 0 1 1.668 1.101 5.197 5.197 0 0 1 1.12 1.684c.273.654.41 1.38.41 2.155 0 .79-.137 1.523-.41 2.18a5.2 5.2 0 0 1-1.122 1.703 5.014 5.014 0 0 1-1.657 1.099c-.631.26-1.32.391-2.049.391ZM66.834 10.295v22.668a.23.23 0 0 1-.23.228h-4.09a.23.23 0 0 1-.229-.228V10.295a.23.23 0 0 1 .23-.228h4.09a.23.23 0 0 1 .23.228ZM80.558 10.295V25.53c0 1.247-.189 2.357-.563 3.3a6.474 6.474 0 0 1-1.632 2.41c-.705.646-1.578 1.14-2.591 1.462-1.002.324-2.153.488-3.421.488h-2.659a.23.23 0 0 1-.23-.228v-3.584a.23.23 0 0 1 .23-.228h2.659c1.284 0 2.208-.314 2.745-.935.552-.633.83-1.54.83-2.704l.013-15.217a.23.23 0 0 1 .23-.228h4.159a.23.23 0 0 1 .23.228ZM102.455 20.25a9.152 9.152 0 0 0-2.037-2.965c-.864-.84-1.907-1.511-3.102-1.998-1.195-.488-2.518-.736-3.934-.736-1.4 0-2.716.248-3.906.736a9.646 9.646 0 0 0-3.094 1.998 9.045 9.045 0 0 0-2.027 2.965 9.18 9.18 0 0 0-.726 3.63 9.112 9.112 0 0 0 2.752 6.58 9.687 9.687 0 0 0 3.095 1.999c1.19.487 2.505.733 3.906.733 1.165 0 2.252-.164 3.228-.487.98-.321 1.864-.763 2.636-1.304a9.335 9.335 0 0 0 1.994-1.89 8.475 8.475 0 0 0 1.261-2.236.223.223 0 0 0-.027-.207.231.231 0 0 0-.189-.098H97.86a.231.231 0 0 0-.202.118c-.381.681-.946 1.24-1.682 1.662-.733.423-1.594.637-2.56.637-.608 0-1.21-.105-1.79-.312a5.602 5.602 0 0 1-1.592-.88 5.347 5.347 0 0 1-1.87-2.936h14.693a.23.23 0 0 0 .228-.196c.023-.157.043-.318.067-.485.025-.18.036-.407.036-.698a9.09 9.09 0 0 0-.733-3.63Zm-9.038-1.991c.643 0 1.243.097 1.78.293.54.196 1.03.471 1.457.82.428.35.795.771 1.094 1.253.25.403.45.842.597 1.31H88.302c.15-.465.354-.905.614-1.308a5.08 5.08 0 0 1 2.651-2.075 5.61 5.61 0 0 1 1.85-.293ZM118.127 29.631l-.034 3.334a.23.23 0 0 1-.23.225h-3.315c-.942 0-1.843-.097-2.677-.29a5.302 5.302 0 0 1-2.236-1.089c-.629-.528-1.135-1.256-1.502-2.164-.363-.901-.547-2.068-.547-3.468v-6.823h-2.663a.23.23 0 0 1-.23-.227v-3.134c0-.102.069-.191.168-.218l2.649-.729.8-4.974a.23.23 0 0 1 .227-.191h3.368a.23.23 0 0 1 .23.227v5.291h5.292c.126 0 .229.103.229.228v3.5a.229.229 0 0 1-.229.227h-5.308v6.788c0 .663.078 1.211.23 1.632.151.417.351.747.599.981.246.235.54.4.873.494.345.1.72.15 1.115.15h2.961a.228.228 0 0 1 .23.23Z"/></svg>