<svg xmlns="http://www.w3.org/2000/svg" width="106" height="40" fill="none" viewBox="0 0 106 40"><path fill="url(#a)" fill-rule="evenodd" d="m104.823 29.967.031-3.03a.211.211 0 0 0-.059-.148.204.204 0 0 0-.145-.062h-2.629a3.46 3.46 0 0 1-.989-.137 1.809 1.809 0 0 1-.775-.448c-.22-.214-.398-.514-.532-.892-.135-.383-.204-.881-.204-1.483v-6.172h4.711a.206.206 0 0 0 .204-.206v-3.182a.206.206 0 0 0-.204-.207h-4.697V9.19a.206.206 0 0 0-.204-.207h-2.99c-.1 0-.185.074-.201.174l-.71 4.522-2.352.662a.206.206 0 0 0-.148.199v2.849c0 .113.091.207.204.207h2.363v6.202c0 1.272.163 2.333.486 3.153.326.825.775 1.487 1.333 1.967a4.659 4.659 0 0 0 1.984.99c.741.175 1.54.264 2.377.264h2.942c.112 0 .202-.09.204-.205ZM16.512 9.357v3.258a.206.206 0 0 1-.204.207h-5.845v17.142a.206.206 0 0 1-.204.207H6.54a.206.206 0 0 1-.204-.207V12.822H.505a.206.206 0 0 1-.204-.207V9.357c0-.114.092-.207.204-.207h15.803c.112 0 .204.093.204.207Zm15.505 9.051a8.357 8.357 0 0 0-1.807-2.695 8.545 8.545 0 0 0-2.753-1.817c-1.062-.442-2.235-.668-3.491-.668-1.246 0-2.413.226-3.47.668a8.554 8.554 0 0 0-2.744 1.817 8.21 8.21 0 0 0-1.8 2.695 8.554 8.554 0 0 0-.643 3.3 8.454 8.454 0 0 0 2.449 5.998 8.383 8.383 0 0 0 2.733 1.808c1.05.438 2.214.66 3.46.66 1.265 0 2.444-.222 3.504-.66a8.484 8.484 0 0 0 2.762-1.808 8.193 8.193 0 0 0 1.809-2.688 8.548 8.548 0 0 0 .644-3.31c0-1.163-.22-2.274-.653-3.3Zm-8.02 8.17a4.542 4.542 0 0 1-3.292-1.37 4.798 4.798 0 0 1-.993-1.54 5.178 5.178 0 0 1-.367-1.975c0-.705.124-1.365.367-1.959a4.794 4.794 0 0 1 .993-1.539 4.476 4.476 0 0 1 1.472-1 4.668 4.668 0 0 1 1.82-.355 4.6 4.6 0 0 1 3.291 1.363c.416.424.75.94.993 1.531.243.594.365 1.254.365 1.96 0 .717-.122 1.384-.365 1.981a4.763 4.763 0 0 1-.995 1.548 4.444 4.444 0 0 1-1.47.999 4.661 4.661 0 0 1-1.82.356ZM49.76 15.713a8.29 8.29 0 0 1 1.807 2.695 8.453 8.453 0 0 1 .653 3.3 8.515 8.515 0 0 1-.645 3.31 8.19 8.19 0 0 1-1.807 2.688 8.495 8.495 0 0 1-2.763 1.808c-1.06.438-2.24.66-3.503.66-1.247 0-2.411-.222-3.462-.66a8.384 8.384 0 0 1-2.732-1.808 8.428 8.428 0 0 1-2.45-5.998c0-1.163.217-2.273.643-3.3a8.272 8.272 0 0 1 1.8-2.695 8.552 8.552 0 0 1 2.746-1.817c1.056-.442 2.225-.668 3.469-.668 1.256 0 2.43.226 3.49.668a8.52 8.52 0 0 1 2.754 1.817ZM41.73 26.216c.559.24 1.17.362 1.817.362a4.66 4.66 0 0 0 1.82-.356 4.443 4.443 0 0 0 1.47-1c.418-.427.752-.947.995-1.547a5.24 5.24 0 0 0 .365-1.982c0-.705-.122-1.365-.365-1.959a4.734 4.734 0 0 0-.993-1.53 4.616 4.616 0 0 0-3.292-1.364c-.646 0-1.258.12-1.82.356a4.475 4.475 0 0 0-1.471.999c-.416.428-.751.945-.994 1.54a5.154 5.154 0 0 0-.365 1.958c0 .716.122 1.38.365 1.974.243.596.578 1.113.994 1.541a4.54 4.54 0 0 0 1.474 1.008Zm17.593-16.86v20.608a.206.206 0 0 1-.204.207h-3.63a.206.206 0 0 1-.204-.207V9.357c0-.114.092-.207.204-.207h3.63c.112 0 .204.093.204.207Zm12.181 13.852V9.357a.206.206 0 0 0-.204-.207H67.61a.206.206 0 0 0-.204.207l-.012 13.834c0 1.057-.247 1.883-.736 2.458-.478.565-1.297.85-2.438.85H61.86a.206.206 0 0 0-.204.207v3.258c0 .114.092.207.204.207h2.36c1.125 0 2.147-.149 3.036-.442.9-.294 1.674-.743 2.3-1.33a5.895 5.895 0 0 0 1.449-2.191c.332-.857.5-1.867.5-3Zm19.437-4.8a8.331 8.331 0 0 0-1.808-2.695 8.52 8.52 0 0 0-2.754-1.817c-1.06-.442-2.235-.668-3.491-.668-1.244 0-2.41.226-3.467.668a8.541 8.541 0 0 0-2.747 1.817 8.233 8.233 0 0 0-1.799 2.695 8.522 8.522 0 0 0-.644 3.3c0 1.165.216 2.274.644 3.294a8.253 8.253 0 0 0 1.799 2.69 8.58 8.58 0 0 0 2.747 1.816c1.056.442 2.223.666 3.467.666 1.034 0 1.998-.15 2.865-.443a8.814 8.814 0 0 0 2.34-1.185 8.393 8.393 0 0 0 1.77-1.718 7.768 7.768 0 0 0 1.12-2.033.208.208 0 0 0-.193-.277h-3.927a.204.204 0 0 0-.18.107 3.934 3.934 0 0 1-1.493 1.51c-.65.386-1.415.58-2.272.58-.54 0-1.075-.095-1.588-.283a4.825 4.825 0 0 1-2.502-2.058 4.807 4.807 0 0 1-.572-1.412h13.042a.205.205 0 0 0 .202-.178 23.04 23.04 0 0 0 .06-.44c.022-.164.032-.371.032-.636a8.442 8.442 0 0 0-.65-3.3Zm-8.023-1.81c.572 0 1.104.09 1.581.267.48.178.914.428 1.293.745.38.318.706.701.97 1.14.223.366.4.765.531 1.191h-8.914c.132-.424.314-.823.544-1.19a4.577 4.577 0 0 1 1.008-1.137 4.608 4.608 0 0 1 1.346-.75 4.87 4.87 0 0 1 1.641-.266Z" clip-rule="evenodd"/><defs><linearGradient id="a" x1="52.577" x2="52.577" y1="8.983" y2="30.174" gradientUnits="userSpaceOnUse"><stop stop-color="white"/><stop offset="1" stop-color="white" stop-opacity=".6"/></linearGradient></defs></svg>