<svg xmlns="http://www.w3.org/2000/svg" width="108" height="40" fill="none" viewBox="0 0 108 40"><path fill="url(#a)" fill-rule="evenodd" d="M39.411 20c0 11.046-8.743 20-19.528 20C9.098 40 .355 31.046.355 20S9.098 0 19.883 0c10.785 0 19.528 8.954 19.528 20Zm-11.759 1.583c.353-.389 2.083-.583 2.963-.583v-2c-.88 0-2.61-.195-2.963-.584-.348-.389-.521-1.038-.521-1.95V13.8c0-.767-.072-1.43-.214-1.992-.137-.561-.364-1.025-.68-1.392-.316-.366-.737-.639-1.264-.816-.527-.178-2.263-.267-3.037-.267v1.633c.61 0 2.175.1 2.523.3.353.2.6.511.743.934.147.416.221.95.221 1.6v3.333c0 .433.053.828.158 1.183.111.356.311.662.601.917.29.256.7.453 1.233.592.06.015.134.03.221.043v.263a2.42 2.42 0 0 0-.221.044c-.532.139-.943.336-1.233.591-.29.256-.49.562-.6.917-.106.356-.159.75-.159 1.183V26.2c0 .65-.073 1.183-.221 1.6-.142.416-.39.725-.743.925-.348.205-1.912.308-2.523.308v1.633c.774 0 2.51-.088 3.037-.266.527-.178.948-.45 1.264-.817.317-.367.543-.83.68-1.392.142-.56.213-1.225.213-1.991v-2.667c0-.911.174-1.561.522-1.95Zm-18.5-4.807v1.705h9.493v-1.705H9.152Zm0 4.672v1.705h9.493v-1.705H9.152Zm43.653-9.176 4.176 14.95h3.008l2.772-9.775h.114l2.78 9.774h3.008l4.176-14.949h-3.37l-2.417 10.41h-.128l-2.659-10.41H61.38l-2.666 10.387h-.121l-2.416-10.387h-3.371Zm21.507 14.789c.546.248 1.169.372 1.867.372.542 0 1.02-.073 1.433-.219.413-.15.767-.357 1.062-.62.294-.268.53-.577.705-.927h.086v1.554h2.879V19.66c0-.667-.126-1.238-.378-1.715a3.275 3.275 0 0 0-1.033-1.183 4.516 4.516 0 0 0-1.49-.679 6.852 6.852 0 0 0-1.746-.219c-.874 0-1.644.137-2.31.41-.66.267-1.199.651-1.617 1.152a3.946 3.946 0 0 0-.841 1.767l2.808.233c.105-.37.319-.676.642-.92.323-.247.757-.371 1.304-.371.518 0 .917.126 1.197.38.285.252.428.61.428 1.072v.044c0 .238-.088.418-.264.54-.176.122-.458.214-.848.277-.39.059-.903.122-1.54.19a9.791 9.791 0 0 0-1.553.278c-.49.131-.927.326-1.312.584a2.754 2.754 0 0 0-.912 1.022c-.223.423-.335.946-.335 1.569 0 .74.157 1.358.47 1.854.319.492.751.864 1.298 1.117Zm3.92-2.044c-.343.18-.737.27-1.183.27-.466 0-.851-.11-1.155-.328-.3-.224-.45-.548-.45-.971 0-.292.075-.535.222-.73.147-.2.354-.358.62-.475.266-.117.577-.202.934-.255l.555-.08c.205-.035.41-.071.613-.11.205-.044.388-.09.55-.139.165-.053.296-.112.391-.175v1.19c0 .394-.097.747-.292 1.058-.195.312-.463.56-.805.745Zm15.376-5.81-2.78.175a1.488 1.488 0 0 0-.307-.657 1.631 1.631 0 0 0-.62-.475 2.064 2.064 0 0 0-.905-.182c-.47 0-.867.102-1.19.306-.323.2-.485.468-.485.803 0 .268.105.494.314.68.209.184.568.333 1.076.445l1.981.408c1.065.224 1.858.584 2.38 1.08.524.497.785 1.15.785 1.957 0 .735-.212 1.38-.634 1.934-.418.555-.993.988-1.725 1.3-.727.306-1.566.46-2.516.46-1.45 0-2.604-.31-3.464-.928-.855-.623-1.356-1.47-1.504-2.54l2.987-.16c.09.452.308.798.655 1.036.347.234.791.35 1.333.35.532 0 .96-.104 1.283-.313.328-.214.494-.49.499-.825a.865.865 0 0 0-.35-.694c-.228-.185-.58-.326-1.054-.423l-1.896-.387c-1.07-.219-1.865-.598-2.388-1.139-.518-.54-.776-1.228-.776-2.066 0-.72.19-1.34.57-1.86.385-.521.924-.923 1.618-1.205.698-.282 1.515-.424 2.451-.424 1.383 0 2.471.3 3.264.898.799.599 1.264 1.414 1.398 2.446Zm1.96-3.198v15.417h3.036v-6h.093c.138.311.337.62.599.927.26.301.596.552 1.005.752.413.2.914.299 1.503.299.832 0 1.583-.219 2.253-.657.674-.443 1.206-1.093 1.596-1.949.394-.861.592-1.917.592-3.168 0-1.285-.202-2.353-.606-3.204-.404-.857-.943-1.497-1.618-1.92a4.043 4.043 0 0 0-2.209-.643c-.613 0-1.127.107-1.54.322-.409.209-.741.472-.998.788a4.129 4.129 0 0 0-.577.92h-.136v-1.884h-2.993Zm3.243 7.351c-.18-.496-.27-1.078-.27-1.745 0-.666.09-1.245.27-1.737.18-.491.44-.871.777-1.139.342-.267.76-.401 1.254-.401.499 0 .92.139 1.262.416.342.277.601.662.777 1.153.175.492.263 1.061.263 1.708 0 .652-.09 1.23-.271 1.73-.175.497-.434.886-.776 1.168-.342.278-.761.416-1.255.416-.489 0-.905-.136-1.247-.408-.342-.278-.603-.665-.784-1.161Z" clip-rule="evenodd"/><defs><linearGradient id="a" x1="53.3" x2="53.3" y1="0" y2="40" gradientUnits="userSpaceOnUse"><stop stop-color="white"/><stop offset="1" stop-color="white" stop-opacity=".6"/></linearGradient></defs></svg>