<svg xmlns="http://www.w3.org/2000/svg" width="122" height="44" fill="none" viewBox="0 0 122 44"><path fill="white" fill-rule="evenodd" d="M22.584 44c12.15 0 22-9.85 22-22s-9.85-22-22-22-22 9.85-22 22 9.85 22 22 22Zm12.093-20.9c-.991 0-2.94.214-3.337.642-.392.427-.588 1.142-.588 2.145v2.933c0 .843-.08 1.574-.24 2.19-.154.618-.41 1.128-.766 1.532-.356.403-.831.702-1.425.898-.593.196-2.549.293-3.421.293v-1.796c.688 0 2.45-.113 2.843-.34.397-.22.676-.559.837-1.017.166-.458.249-1.045.249-1.76v-3.667c0-.476.06-.91.178-1.301a2.19 2.19 0 0 1 .677-1.009c.326-.28.79-.498 1.389-.65.067-.017.15-.033.25-.048v-.29a2.771 2.771 0 0 1-.25-.047c-.6-.153-1.063-.37-1.39-.651a2.19 2.19 0 0 1-.676-1.009 4.467 4.467 0 0 1-.178-1.301V15.18c0-.715-.083-1.302-.25-1.76-.16-.464-.439-.807-.837-1.027-.391-.22-2.154-.33-2.842-.33v-1.796c.872 0 2.828.097 3.421.293.594.195 1.069.495 1.425.898.356.404.612.914.766 1.531.16.617.24 1.348.24 2.191v2.933c0 1.003.196 1.718.588 2.145.398.428 2.346.642 3.337.642v2.2Zm-24.18-2.77v-1.876H21.19v1.875H10.497Zm0 5.138v-1.875H21.19v1.875H10.497Z" clip-rule="evenodd"/><path fill="white" d="M64.381 29.944 59.676 13.5h3.798l2.722 11.426h.136L69.335 13.5h3.252l2.995 11.45h.145l2.722-11.45h3.798L77.54 29.944h-3.388l-3.132-10.751h-.128l-3.124 10.751h-3.388ZM86.01 30.177c-.788 0-1.489-.136-2.104-.41a3.387 3.387 0 0 1-1.462-1.228c-.353-.546-.53-1.226-.53-2.04 0-.684.126-1.26.378-1.726.251-.465.594-.84 1.027-1.124a4.988 4.988 0 0 1 1.478-.642c.557-.145 1.14-.246 1.75-.305a44.295 44.295 0 0 0 1.735-.209c.439-.07.757-.171.955-.305.198-.134.297-.332.297-.594v-.048c0-.509-.16-.902-.482-1.18-.315-.28-.765-.418-1.349-.418-.615 0-1.105.136-1.469.41a1.884 1.884 0 0 0-.722 1.01l-3.164-.256a4.3 4.3 0 0 1 .947-1.943c.471-.552 1.079-.974 1.823-1.269.75-.3 1.617-.45 2.602-.45.685 0 1.34.08 1.967.241.632.161 1.19.41 1.678.747.493.337.88.771 1.164 1.3.284.526.426 1.154.426 1.888v8.318H89.71v-1.71h-.096a3.48 3.48 0 0 1-.795 1.02c-.332.289-.731.516-1.197.682-.466.161-1.004.241-1.614.241Zm.979-2.36c.503 0 .947-.1 1.333-.297a2.36 2.36 0 0 0 .907-.82c.22-.342.33-.73.33-1.164v-1.309c-.108.07-.255.134-.442.193a8.031 8.031 0 0 1-.619.153c-.23.043-.46.083-.69.12l-.626.088a4.231 4.231 0 0 0-1.052.282c-.3.128-.533.302-.699.521-.166.215-.249.482-.249.803 0 .466.169.822.506 1.068.343.241.776.362 1.3.362ZM105.644 21.128l-3.131.193a1.621 1.621 0 0 0-.346-.723 1.825 1.825 0 0 0-.698-.522c-.284-.134-.624-.2-1.02-.2-.53 0-.977.112-1.34.337-.365.22-.547.514-.547.883a.95.95 0 0 0 .353.747c.236.203.64.366 1.213.49l2.232.45c1.199.245 2.093.641 2.682 1.188.589.546.883 1.263.883 2.151 0 .809-.238 1.518-.714 2.128-.471.61-1.119 1.087-1.944 1.43-.819.337-1.763.505-2.834.505-1.633 0-2.933-.34-3.902-1.02-.964-.685-1.529-1.616-1.695-2.794l3.365-.176c.102.497.348.878.739 1.14.39.257.89.385 1.501.385.6 0 1.081-.115 1.445-.345.37-.235.557-.538.562-.907a.942.942 0 0 0-.393-.763c-.257-.204-.653-.359-1.188-.466l-2.136-.425c-1.205-.241-2.101-.659-2.69-1.253-.584-.594-.875-1.352-.875-2.272 0-.793.214-1.475.642-2.048.434-.573 1.041-1.014 1.823-1.325.787-.31 1.707-.465 2.762-.465 1.558 0 2.783.329 3.677.987.9.659 1.424 1.555 1.574 2.69ZM107.853 34.57V17.61h3.372v2.072h.153c.15-.332.367-.67.65-1.012a3.426 3.426 0 0 1 1.125-.867c.465-.236 1.043-.353 1.734-.353.899 0 1.729.235 2.489.706.76.466 1.368 1.17 1.823 2.112.455.937.682 2.112.682 3.525 0 1.376-.222 2.537-.666 3.485-.439.942-1.039 1.656-1.799 2.143-.755.482-1.6.723-2.537.723-.664 0-1.229-.11-1.694-.329a3.508 3.508 0 0 1-1.133-.827 4.201 4.201 0 0 1-.674-1.02h-.104v6.6h-3.421Zm3.348-10.792c0 .733.102 1.373.305 1.919.204.546.498.971.884 1.277.385.3.854.45 1.405.45.557 0 1.028-.153 1.413-.459.385-.31.677-.738.875-1.284.204-.552.305-1.186.305-1.903 0-.712-.099-1.338-.297-1.88-.198-.54-.489-.963-.875-1.268-.385-.305-.859-.457-1.421-.457-.557 0-1.028.147-1.413.441-.38.295-.672.712-.876 1.253-.203.54-.305 1.177-.305 1.91Z"/></svg>