<svg width="211" height="44" viewBox="0 0 211 44" fill="none" xmlns="http://www.w3.org/2000/svg">
<g clip-path="url(#clip0_1148_3603)">
<path d="M0 21.9874C0 33.0122 8.07662 42.0684 18.4688 43.334V0.640625C8.07662 1.90623 0 10.9624 0 21.9874Z" fill="white"/>
<path d="M41.9272 21.9842C41.9272 10.903 33.7679 1.79062 23.2656 0.609375V43.3872H41.8996V22.5748C41.9272 22.3779 41.9272 22.1811 41.9272 21.9842Z" fill="white"/>
<path d="M60.5164 22.0156C62.7768 22.0156 64.3204 23.1126 65.1474 24.2937V22.2406H68.731V36.5562H65.1474V34.475C64.3204 35.7125 62.7217 36.8093 60.4889 36.8093C56.933 36.8093 54.0938 33.828 54.0938 29.3562C54.0938 24.8844 56.933 22.0156 60.5164 22.0156ZM61.4261 25.1938C59.5241 25.1938 57.7324 26.6563 57.7324 29.3562C57.7324 32.0562 59.5241 33.6311 61.4261 33.6311C63.3832 33.6311 65.1474 32.1405 65.1474 29.4125C65.1474 26.6844 63.3832 25.1938 61.4261 25.1938Z" fill="white"/>
<path d="M91.9743 28.6523C91.9743 26.3742 90.7338 25.1929 88.8594 25.1929C86.9574 25.1929 85.717 26.3742 85.717 28.6523V36.5553H82.161V28.6523C82.161 26.3742 80.9206 25.1929 79.0462 25.1929C77.1167 25.1929 75.8762 26.3742 75.8762 28.6523V36.5553H72.3203V22.2397H75.8762V23.9835C76.7583 22.8023 78.2468 22.043 80.011 22.043C82.1887 22.043 83.9803 22.9991 84.9451 24.7711C85.8548 23.1398 87.7016 22.043 89.7691 22.043C93.1321 22.043 95.5302 24.2085 95.5302 28.1741V36.5834H91.9743V28.6523Z" fill="white"/>
<path d="M107.218 22.0156C110.829 22.0156 113.641 24.8844 113.641 29.3562C113.641 33.828 110.829 36.8093 107.218 36.8093C105.013 36.8093 103.442 35.6843 102.587 34.5312V43.3905H99.0312V22.2406H102.587V24.3218C103.414 23.0843 105.041 22.0156 107.218 22.0156ZM106.281 25.1938C104.379 25.1938 102.587 26.6844 102.587 29.4125C102.587 32.1405 104.379 33.6311 106.281 33.6311C108.21 33.6311 110.002 32.0843 110.002 29.3562C110.002 26.6282 108.21 25.1938 106.281 25.1938Z" fill="white"/>
<path d="M116.344 17.4297H119.9V36.5828H116.344V17.4297Z" fill="white"/>
<path d="M123.117 18.4141C123.117 17.2328 124.028 16.3047 125.295 16.3047C126.536 16.3047 127.473 17.2328 127.473 18.4141C127.473 19.5953 126.536 20.5234 125.295 20.5234C124.028 20.5234 123.117 19.5953 123.117 18.4141ZM123.503 22.2391H127.059V36.5546H123.503V22.2391Z" fill="white"/>
<path d="M136.712 22.0156C140.213 22.0156 142.556 23.8719 143.327 27.0781H139.496C139.083 25.8688 138.145 25.0812 136.685 25.0812C134.7 25.0812 133.376 26.5999 133.376 29.4125C133.376 32.1969 134.7 33.7156 136.685 33.7156C138.145 33.7156 139.055 33.0406 139.496 31.7468H143.327C142.556 34.8124 140.213 36.8093 136.712 36.8093C132.66 36.8093 129.766 33.9125 129.766 29.4125C129.766 24.9125 132.66 22.0156 136.712 22.0156Z" fill="white"/>
<path d="M151.563 22.0156C153.823 22.0156 155.367 23.1126 156.194 24.2937V22.2406H159.778V36.5562H156.194V34.475C155.367 35.7125 153.768 36.8093 151.535 36.8093C147.98 36.8093 145.141 33.828 145.141 29.3562C145.141 24.8844 147.98 22.0156 151.563 22.0156ZM152.473 25.1938C150.571 25.1938 148.779 26.6563 148.779 29.3562C148.779 32.0562 150.571 33.6311 152.473 33.6311C154.43 33.6311 156.194 32.1405 156.194 29.4125C156.194 26.6844 154.43 25.1938 152.473 25.1938Z" fill="white"/>
<path d="M163.946 25.2203H162.266V22.239H163.946V18.6953H167.53V22.239H170.672V25.2203H167.503V32.1389C167.503 33.0952 167.889 33.5171 168.992 33.5171H170.645V36.5827H168.412C165.738 36.5827 163.919 35.4295 163.919 32.1389V25.2203H163.946Z" fill="white"/>
<path d="M172.961 18.4141C172.961 17.2328 173.87 16.3047 175.138 16.3047C176.378 16.3047 177.316 17.2328 177.316 18.4141C177.316 19.5953 176.378 20.5234 175.138 20.5234C173.87 20.5234 172.961 19.5953 172.961 18.4141ZM173.346 22.2391H176.903V36.5546H173.346V22.2391Z" fill="white"/>
<path d="M186.744 36.8093C182.692 36.8093 179.633 33.9125 179.633 29.4125C179.633 24.8844 182.802 22.0156 186.855 22.0156C190.907 22.0156 194.077 24.8844 194.077 29.4125C194.077 33.9125 190.852 36.8093 186.744 36.8093ZM186.744 33.6594C188.619 33.6594 190.41 32.2531 190.41 29.4125C190.41 26.5437 188.674 25.1657 186.772 25.1657C184.87 25.1657 183.188 26.5437 183.188 29.4125C183.243 32.2531 184.842 33.6594 186.744 33.6594Z" fill="white"/>
<path d="M206.645 28.6531C206.645 26.3468 205.404 25.1093 203.531 25.1093C201.601 25.1093 200.36 26.3468 200.36 28.6531V36.5562H196.805V22.2406H200.36V24.0125C201.269 22.8031 202.786 22.0156 204.605 22.0156C207.885 22.0156 210.2 24.1813 210.2 28.1469V36.5562H206.645V28.6531Z" fill="white"/>
</g>
<defs>
<clipPath id="clip0_1148_3603">
<rect width="211" height="44" fill="white"/>
</clipPath>
</defs>
</svg>
