<svg width="154" height="40" viewBox="0 0 154 40" fill="none" xmlns="http://www.w3.org/2000/svg">
<g clip-path="url(#clip0_1386_3647)">
<path d="M0.773438 19.9897C0.773438 28.0078 6.64734 34.5941 14.2053 35.5146V4.46484C6.64734 5.38529 0.773438 11.9716 0.773438 19.9897Z" fill="white"/>
<path d="M31.2674 19.9906C31.2674 11.9316 25.3334 5.3044 17.6953 4.44531V35.5564H31.2473V20.4202C31.2674 20.277 31.2674 20.1338 31.2674 19.9906Z" fill="white"/>
<path d="M44.7882 20.0117C46.4321 20.0117 47.5548 20.8095 48.1562 21.6685V20.1754H50.7624V30.5867H48.1562V29.0731C47.5548 29.9731 46.392 30.7707 44.7682 30.7707C42.1821 30.7707 40.1172 28.6026 40.1172 25.3503C40.1172 22.0981 42.1821 20.0117 44.7882 20.0117ZM45.4498 22.3231C44.0665 22.3231 42.7635 23.3867 42.7635 25.3503C42.7635 27.3139 44.0665 28.4594 45.4498 28.4594C46.8732 28.4594 48.1562 27.3753 48.1562 25.3913C48.1562 23.4072 46.8732 22.3231 45.4498 22.3231Z" fill="white"/>
<path d="M67.661 24.838C67.661 23.1812 66.7588 22.3221 65.3956 22.3221C64.0123 22.3221 63.1102 23.1812 63.1102 24.838V30.5856H60.5241V24.838C60.5241 23.1812 59.6219 22.3221 58.2587 22.3221C56.8555 22.3221 55.9533 23.1812 55.9533 24.838V30.5856H53.3672V20.1744H55.9533V21.4425C56.5948 20.5835 57.6773 20.0312 58.9604 20.0312C60.5442 20.0312 61.8472 20.7266 62.5489 22.0153C63.2105 20.8289 64.5536 20.0312 66.0572 20.0312C68.503 20.0312 70.2471 21.6062 70.2471 24.4903V30.6061H67.661V24.838Z" fill="white"/>
<path d="M78.751 20.0117C81.3772 20.0117 83.422 22.0981 83.422 25.3503C83.422 28.6026 81.3772 30.7707 78.751 30.7707C77.1472 30.7707 76.0045 29.9526 75.383 29.1139V35.5571H72.7969V20.1754H75.383V21.689C75.9844 20.789 77.1673 20.0117 78.751 20.0117ZM78.0694 22.3231C76.6861 22.3231 75.383 23.4072 75.383 25.3913C75.383 27.3753 76.6861 28.4594 78.0694 28.4594C79.4727 28.4594 80.7758 27.3344 80.7758 25.3503C80.7758 23.3663 79.4727 22.3231 78.0694 22.3231Z" fill="white"/>
<path d="M85.3828 16.6758H87.9689V30.6053H85.3828V16.6758Z" fill="white"/>
<path d="M90.3125 17.3935C90.3125 16.5344 90.9747 15.8594 91.8965 15.8594C92.7987 15.8594 93.4805 16.5344 93.4805 17.3935C93.4805 18.2525 92.7987 18.9276 91.8965 18.9276C90.9747 18.9276 90.3125 18.2525 90.3125 17.3935ZM90.5934 20.1753H93.1792V30.5866H90.5934V20.1753Z" fill="white"/>
<path d="M100.2 20.0117C102.747 20.0117 104.451 21.3618 105.012 23.6935H102.225C101.924 22.814 101.243 22.2412 100.18 22.2412C98.7369 22.2412 97.7742 23.3458 97.7742 25.3913C97.7742 27.4163 98.7369 28.5208 100.18 28.5208C101.243 28.5208 101.904 28.0299 102.225 27.089H105.012C104.451 29.3185 102.747 30.7707 100.2 30.7707C97.2533 30.7707 95.1484 28.664 95.1484 25.3913C95.1484 22.1186 97.2533 20.0117 100.2 20.0117Z" fill="white"/>
<path d="M110.999 20.0117C112.643 20.0117 113.765 20.8095 114.367 21.6685V20.1754H116.973V30.5867H114.367V29.0731C113.765 29.9731 112.603 30.7707 110.979 30.7707C108.393 30.7707 106.328 28.6026 106.328 25.3503C106.328 22.0981 108.393 20.0117 110.999 20.0117ZM111.661 22.3231C110.277 22.3231 108.974 23.3867 108.974 25.3503C108.974 27.3139 110.277 28.4594 111.661 28.4594C113.084 28.4594 114.367 27.3753 114.367 25.3913C114.367 23.4072 113.084 22.3231 111.661 22.3231Z" fill="white"/>
<path d="M120.003 22.3431H118.781V20.1749H120.003V17.5977H122.61V20.1749H124.895V22.3431H122.59V27.3748C122.59 28.0703 122.871 28.3771 123.673 28.3771H124.875V30.6066H123.251C121.307 30.6066 119.984 29.768 119.984 27.3748V22.3431H120.003Z" fill="white"/>
<path d="M126.562 17.3935C126.562 16.5344 127.224 15.8594 128.146 15.8594C129.048 15.8594 129.73 16.5344 129.73 17.3935C129.73 18.2525 129.048 18.9276 128.146 18.9276C127.224 18.9276 126.562 18.2525 126.562 17.3935ZM126.843 20.1753H129.429V30.5866H126.843V20.1753Z" fill="white"/>
<path d="M136.586 30.7707C133.639 30.7707 131.414 28.664 131.414 25.3913C131.414 22.0981 133.719 20.0117 136.667 20.0117C139.613 20.0117 141.919 22.0981 141.919 25.3913C141.919 28.664 139.573 30.7707 136.586 30.7707ZM136.586 28.4799C137.949 28.4799 139.252 27.4571 139.252 25.3913C139.252 23.3049 137.989 22.3027 136.606 22.3027C135.223 22.3027 134 23.3049 134 25.3913C134.04 27.4571 135.203 28.4799 136.586 28.4799Z" fill="white"/>
<path d="M151.063 24.839C151.063 23.1617 150.16 22.2617 148.798 22.2617C147.394 22.2617 146.492 23.1617 146.492 24.839V30.5867H143.906V20.1754H146.492V21.464C147.153 20.5844 148.256 20.0117 149.579 20.0117C151.965 20.0117 153.648 21.5867 153.648 24.4708V30.5867H151.063V24.839Z" fill="white"/>
</g>
<defs>
<clipPath id="clip0_1386_3647">
<rect width="154" height="32" fill="white" transform="translate(0 4)"/>
</clipPath>
</defs>
</svg>
