<svg width="172" height="40" viewBox="0 0 172 40" fill="none" xmlns="http://www.w3.org/2000/svg">
<g clip-path="url(#clip0_1386_3647)">
<path d="M35.4161 19.9509C35.4161 26.3981 30.1898 31.6246 23.7424 31.6246C20.7478 31.6246 18.0167 30.4967 15.9502 28.6433C19.2607 27.1528 21.5653 23.8252 21.5653 19.9594C21.5653 16.0884 19.2549 12.7574 15.9375 11.2698C18.0058 9.40956 20.7417 8.27734 23.7424 8.27734C30.1898 8.27734 35.4161 13.5038 35.4161 19.9509Z" fill="white"/>
<path d="M19.0714 10.6357C11.9021 5.2177 1.55589 9.59219 0.448521 18.5101C-0.0660693 22.6547 1.67252 26.7584 5.00774 29.2718C12.1811 34.685 22.5242 30.3029 23.6255 21.3842C24.1364 17.2448 22.4004 13.1477 19.0714 10.6356V10.6357ZM17.773 12.3559C23.6221 16.7695 22.4996 25.8595 15.7526 28.718C12.6217 30.0446 9.02049 29.6 6.30606 27.5515C0.457312 23.1378 1.57957 14.0478 8.32644 11.1894C11.4575 9.86297 15.0587 10.3075 17.773 12.3559Z" fill="white"/>
<path d="M48.8492 11.3858C50.4513 11.3858 51.8168 11.8004 52.9459 12.6301C54.075 13.4598 54.8513 14.5596 55.2752 15.9293V11.5866H57.274V27.3945H55.2752V23.052C54.8513 24.423 54.075 25.5232 52.9459 26.3529C51.8168 27.1826 50.4513 27.5975 48.8492 27.5975C47.421 27.5975 46.1423 27.2693 45.0131 26.6132C43.8841 25.9572 43.006 25.0162 42.3787 23.7901C41.7514 22.5641 41.4375 21.1309 41.4375 19.4905C41.4375 17.8312 41.7514 16.3886 42.3787 15.1624C43.006 13.9376 43.8793 13.0021 44.9988 12.3553C46.1183 11.7087 47.4017 11.3858 48.8492 11.3858ZM49.3702 13.1797C47.5945 13.1797 46.171 13.7441 45.0993 14.8734C44.029 16.0026 43.4938 17.5416 43.4938 19.4905C43.4938 21.4397 44.029 22.9789 45.0993 24.1081C46.171 25.237 47.5945 25.8015 49.3702 25.8015C50.4895 25.8015 51.4979 25.5412 52.3946 25.0202C53.2924 24.4996 53.997 23.7613 54.5084 22.8058C55.0196 21.8504 55.2752 20.7455 55.2752 19.4905C55.2752 18.2358 55.0196 17.1315 54.5084 16.177C53.997 15.2219 53.2924 14.4828 52.3946 13.9612C51.4979 13.4401 50.4895 13.1797 49.3702 13.1797ZM70.1271 11.3858C71.5747 11.3858 72.8534 11.7087 73.9631 12.3553C75.0731 13.0021 75.9418 13.9376 76.5691 15.1624C77.1964 16.3886 77.51 17.8312 77.51 19.4905C77.51 21.1309 77.1964 22.5641 76.5691 23.7901C75.9418 25.0162 75.0679 25.9572 73.9489 26.6132C72.8295 27.2693 71.5554 27.5975 70.1271 27.5975C68.5058 27.5975 67.1356 27.1826 66.0162 26.3529C64.8967 25.5232 64.125 24.423 63.701 23.052V34.8639H61.6734V11.5866H63.701V15.9293C64.125 14.5596 64.8967 13.4598 66.0162 12.6301C67.1356 11.8004 68.5058 11.3858 70.1271 11.3858ZM69.5774 13.1797C68.4579 13.1797 67.4493 13.4401 66.5513 13.9612C65.6545 14.4828 64.9552 15.2219 64.4536 16.177C63.9521 17.1315 63.701 18.2358 63.701 19.4905C63.701 20.7455 63.9521 21.8504 64.4536 22.8058C64.9552 23.7613 65.6545 24.4996 66.5513 25.0202C67.4493 25.5412 68.4579 25.8015 69.5774 25.8015C71.3721 25.8015 72.8005 25.237 73.8625 24.1081C74.9235 22.9789 75.4538 21.4397 75.4538 19.4905C75.4538 17.5416 74.9235 16.0026 73.8625 14.8734C72.8005 13.7441 71.3721 13.1797 69.5774 13.1797ZM89.6103 11.3858C91.0581 11.3858 92.3368 11.7087 93.4465 12.3553C94.5565 13.0021 95.4253 13.9376 96.0526 15.1624C96.6798 16.3886 96.9936 17.8312 96.9936 19.4905C96.9936 21.1309 96.6798 22.5641 96.0526 23.7901C95.4253 25.0162 94.5517 25.9572 93.4322 26.6132C92.3129 27.2693 91.039 27.5975 89.6103 27.5975C87.9892 27.5975 86.6191 27.1826 85.4998 26.3529C84.3801 25.5232 83.6086 24.423 83.1847 23.052V34.8639H81.1571V11.5866H83.1847V15.9293C83.6086 14.5596 84.3801 13.4598 85.4998 12.6301C86.6191 11.8004 87.9892 11.3858 89.6103 11.3858ZM89.061 13.1797C87.9417 13.1797 86.9327 13.4401 86.0348 13.9612C85.1382 14.4828 84.439 15.2219 83.9372 16.177C83.4356 17.1315 83.1847 18.2358 83.1847 19.4905C83.1847 20.7455 83.4356 21.8504 83.9372 22.8058C84.439 23.7613 85.1382 24.4996 86.0348 25.0202C86.9327 25.5412 87.9417 25.8015 89.061 25.8015C90.8558 25.8015 92.2841 25.237 93.3459 24.1081C94.4069 22.9789 94.9373 21.4397 94.9373 19.4905C94.9373 17.5416 94.4069 16.0026 93.3459 14.8734C92.2841 13.7441 90.8558 13.1797 89.061 13.1797ZM119.43 11.3569H123.251L118.938 27.3945H114.421L110.976 15.7281L107.444 27.3945H102.929L98.6435 11.3569H102.726L105.332 23.7471L108.891 11.3569H113.205L116.795 23.7471L119.43 11.3569ZM129.36 14.4243C129.958 13.4019 130.749 12.5963 131.733 12.007C132.718 11.4192 133.818 11.1254 135.034 11.1254V15.4964H133.847C130.856 15.4964 129.36 16.8859 129.36 19.6646V27.3945H125.278V11.3569H129.36V14.4243ZM136.829 6.752C136.829 6.09604 137.061 5.56082 137.524 5.14646C137.987 4.73127 138.595 4.52344 139.347 4.52344C140.1 4.52344 140.708 4.73127 141.172 5.14646C141.635 5.56082 141.867 6.09604 141.867 6.752C141.867 7.38908 141.635 7.91528 141.172 8.33082C140.708 8.74613 140.1 8.95395 139.347 8.95395C138.595 8.95395 137.987 8.74613 137.524 8.33082C137.061 7.91528 136.829 7.38908 136.829 6.752ZM137.292 11.3569H141.375V27.3945H137.292V11.3569ZM152.057 23.8908H153.649V27.3945H151.506C149.711 27.3945 148.336 26.9606 147.381 26.0925C146.425 25.2232 145.948 23.7759 145.948 21.7499V14.8014H143.719V11.3569H145.948V7.38967H150.03V11.3569H153.62V14.8014H150.03V21.8073C150.03 22.5796 150.184 23.1203 150.493 23.4291C150.802 23.7369 151.323 23.8908 152.057 23.8908ZM171.656 18.7669C171.656 19.1726 171.608 19.6361 171.512 20.1568H159.758C159.815 21.5851 160.201 22.6371 160.916 23.3124C161.629 23.9877 162.517 24.3254 163.579 24.3254C164.525 24.3254 165.311 24.0938 165.937 23.6303C166.565 23.1681 166.965 22.5415 167.139 21.7499H171.453C171.241 22.8693 170.788 23.8726 170.093 24.7601C169.397 25.6485 168.505 26.3435 167.415 26.8451C166.325 27.3466 165.114 27.5975 163.782 27.5975C162.219 27.5975 160.829 27.2647 159.612 26.599C158.397 25.9332 157.452 24.9826 156.776 23.7471C156.1 22.5116 155.762 21.0542 155.762 19.3756C155.762 17.696 156.1 16.2341 156.776 14.9901C157.452 13.7448 158.397 12.7939 159.612 12.1382C160.829 11.4821 162.219 11.154 163.782 11.154C165.364 11.154 166.748 11.4821 167.936 12.1382C169.122 12.7939 170.039 13.6964 170.686 14.8447C171.332 15.9927 171.656 17.3002 171.656 18.7669ZM167.545 18.363C167.603 17.0494 167.261 16.0548 166.518 15.3799C165.774 14.7044 164.862 14.3669 163.782 14.3669C162.682 14.3669 161.755 14.7044 161.002 15.3799C160.249 16.0548 159.834 17.0494 159.758 18.363H167.545Z" fill="white"/>
<path d="M12.3538 15.915C12.34 15.9494 12.1612 16.6503 11.9693 17.482C11.7697 18.3134 11.4536 19.626 11.2752 20.4024C10.9314 21.8249 10.7252 22.7595 10.7252 22.8831C10.7252 22.9173 10.9384 22.9451 11.1992 22.9451H11.6737L11.8865 21.9966C12.0104 21.4814 12.2855 20.2992 12.5051 19.3716C12.7252 18.4439 12.9929 17.3168 13.0962 16.8631C13.1992 16.4096 13.3023 15.9977 13.323 15.9494C13.3436 15.8876 13.2266 15.8672 12.8692 15.8672C12.6011 15.8672 12.3674 15.8876 12.3538 15.915ZM8.66341 18.8904L8.03125 19.5777L8.21704 19.7977C8.31984 19.9212 8.60199 20.2305 8.84229 20.485L9.28221 20.9519H10.5331L9.9418 20.3129C9.61863 19.9697 9.35067 19.6395 9.35067 19.5985C9.35067 19.5503 9.59811 19.2413 9.90077 18.9112C10.203 18.5748 10.4504 18.2858 10.4504 18.2515C10.4504 18.2239 10.1894 18.2034 9.87334 18.2034H9.30284L8.66341 18.8904ZM13.4738 18.2446C13.4738 18.2654 13.5908 18.3956 13.735 18.54C14.2714 19.0761 14.6492 19.5298 14.6284 19.6188C14.615 19.6673 14.3536 19.99 14.0375 20.3267L13.4673 20.9519H14.1062L14.7453 20.9452L15.3292 20.306C15.6526 19.949 15.9136 19.6325 15.9136 19.5915C15.9136 19.5572 15.6387 19.2342 15.2949 18.8701L14.677 18.2034H14.0787C13.7419 18.2034 13.4738 18.2239 13.4738 18.2446Z" fill="white"/>
</g>
<defs>
<clipPath id="clip0_1386_3647">
<rect width="172" height="31" fill="white" transform="translate(0 4)"/>
</clipPath>
</defs>
</svg>
