<svg width="244" height="44" viewBox="0 0 244 44" fill="none" xmlns="http://www.w3.org/2000/svg">
<g clip-path="url(#clip0_276_499)">
<path d="M50.1988 22.6427C50.1988 31.7935 42.7808 39.2119 33.6297 39.2119C29.3793 39.2119 25.5029 37.611 22.5697 34.9803C27.2685 32.8648 30.5396 28.1418 30.5396 22.6547C30.5396 17.1605 27.2603 12.4326 22.5518 10.3212C25.4874 7.68081 29.3706 6.07379 33.6297 6.07379C42.7808 6.07379 50.1988 13.492 50.1988 22.6427Z" fill="white"/>
<path d="M27.0053 9.41721C16.8295 1.72719 2.14456 7.93614 0.572819 20.5938C-0.157567 26.4765 2.31011 32.3011 7.04397 35.8685C17.2255 43.5517 31.9061 37.3319 33.4692 24.6731C34.1944 18.7979 31.7304 12.9826 27.0053 9.41705V9.41721ZM25.1624 11.8588C33.4643 18.1233 31.8711 31.0252 22.2947 35.0824C17.8509 36.9654 12.7395 36.3344 8.88674 33.4268C0.585297 27.1621 2.17817 14.2602 11.7544 10.2032C16.1984 8.32047 21.3098 8.95136 25.1624 11.8588Z" fill="white"/>
<path d="M69.264 10.4832C71.5379 10.4832 73.476 11.0717 75.0787 12.2493C76.6812 13.427 77.7831 14.988 78.3847 16.9321V10.7682H81.2217V33.2052H78.3847V27.0417C77.7831 28.9876 76.6812 30.5492 75.0787 31.7268C73.476 32.9046 71.5379 33.4934 69.264 33.4934C67.2369 33.4934 65.4219 33.0275 63.8192 32.0963C62.2167 31.1653 60.9704 29.8296 60.08 28.0893C59.1897 26.3492 58.7441 24.3149 58.7441 21.9867C58.7441 19.6315 59.1897 17.5839 60.08 15.8436C60.9704 14.1052 62.2099 12.7773 63.7989 11.8593C65.3878 10.9416 67.2095 10.4832 69.264 10.4832ZM70.0034 13.0294C67.4832 13.0294 65.4627 13.8305 63.9415 15.4334C62.4224 17.036 61.6627 19.2205 61.6627 21.9867C61.6627 24.7533 62.4224 26.938 63.9415 28.5407C65.4627 30.1431 67.4832 30.9442 70.0034 30.9442C71.5921 30.9442 73.0234 30.5748 74.2962 29.8353C75.5705 29.0964 76.5706 28.0484 77.2965 26.6923C78.022 25.3362 78.3847 23.7679 78.3847 21.9867C78.3847 20.2058 78.022 18.6384 77.2965 17.2836C76.5706 15.928 75.5705 14.879 74.2962 14.1386C73.0234 13.3991 71.5921 13.0294 70.0034 13.0294ZM99.4649 10.4832C101.519 10.4832 103.334 10.9416 104.91 11.8593C106.485 12.7773 107.718 14.1052 108.608 15.8436C109.499 17.5839 109.944 19.6315 109.944 21.9867C109.944 24.3149 109.499 26.3492 108.608 28.0893C107.718 29.8296 106.478 31.1653 104.889 32.0963C103.301 33.0275 101.492 33.4934 99.4649 33.4934C97.1636 33.4934 95.2189 32.9046 93.63 31.7268C92.0411 30.5492 90.9457 28.9876 90.3439 27.0417V43.8069H87.4661V10.7682H90.3439V16.9321C90.9457 14.988 92.0411 13.427 93.63 12.2493C95.2189 11.0717 97.1636 10.4832 99.4649 10.4832ZM98.6846 13.0294C97.0957 13.0294 95.6641 13.3991 94.3895 14.1386C93.1167 14.879 92.1241 15.928 91.4122 17.2836C90.7003 18.6384 90.3439 20.2058 90.3439 21.9867C90.3439 23.7679 90.7003 25.3362 91.4122 26.6923C92.1241 28.0484 93.1167 29.0964 94.3895 29.8353C95.6641 30.5748 97.0957 30.9442 98.6846 30.9442C101.232 30.9442 103.259 30.1431 104.767 28.5407C106.273 26.938 107.025 24.7533 107.025 21.9867C107.025 19.2205 106.273 17.036 104.767 15.4334C103.259 13.8305 101.232 13.0294 98.6846 13.0294ZM127.118 10.4832C129.173 10.4832 130.988 10.9416 132.563 11.8593C134.139 12.7773 135.372 14.1052 136.262 15.8436C137.153 17.5839 137.598 19.6315 137.598 21.9867C137.598 24.3149 137.153 26.3492 136.262 28.0893C135.372 29.8296 134.132 31.1653 132.543 32.0963C130.954 33.0275 129.146 33.4934 127.118 33.4934C124.817 33.4934 122.873 32.9046 121.284 31.7268C119.695 30.5492 118.6 28.9876 117.998 27.0417V43.8069H115.12V10.7682H117.998V16.9321C118.6 14.988 119.695 13.427 121.284 12.2493C122.873 11.0717 124.817 10.4832 127.118 10.4832ZM126.339 13.0294C124.75 13.0294 123.318 13.3991 122.044 14.1386C120.771 14.879 119.778 15.928 119.066 17.2836C118.354 18.6384 117.998 20.2058 117.998 21.9867C117.998 23.7679 118.354 25.3362 119.066 26.6923C119.778 28.0484 120.771 29.0964 122.044 29.8353C123.318 30.5748 124.75 30.9442 126.339 30.9442C128.886 30.9442 130.913 30.1431 132.421 28.5407C133.927 26.938 134.679 24.7533 134.679 21.9867C134.679 19.2205 133.927 17.036 132.421 15.4334C130.913 13.8305 128.886 13.0294 126.339 13.0294ZM169.443 10.4423H174.867L168.744 33.2052H162.333L157.444 16.6466L152.43 33.2052H146.022L139.94 10.4423H145.734L149.433 28.0283L154.485 10.4423H160.608L165.703 28.0283L169.443 10.4423ZM183.538 14.796C184.386 13.3448 185.508 12.2013 186.905 11.365C188.304 10.5306 189.865 10.1137 191.59 10.1137V16.3176H189.906C185.66 16.3176 183.538 18.2898 183.538 22.2338V33.2052H177.744V10.4423H183.538V14.796ZM194.138 3.90622C194.138 2.97519 194.467 2.21552 195.125 1.62739C195.783 1.03809 196.646 0.743103 197.712 0.743103C198.782 0.743103 199.645 1.03809 200.302 1.62739C200.96 2.21552 201.289 2.97519 201.289 3.90622C201.289 4.81047 200.96 5.55733 200.302 6.14713C199.645 6.7366 198.782 7.03158 197.712 7.03158C196.646 7.03158 195.783 6.7366 195.125 6.14713C194.467 5.55733 194.138 4.81047 194.138 3.90622ZM194.796 10.4423H200.59V33.2052H194.796V10.4423ZM215.753 28.2322H218.012V33.2052H214.97C212.423 33.2052 210.471 32.5894 209.115 31.3573C207.759 30.1234 207.081 28.0692 207.081 25.1936V15.3312H203.918V10.4423H207.081V4.8113H212.875V10.4423H217.971V15.3312H212.875V25.2751C212.875 26.3712 213.094 27.1387 213.532 27.5769C213.971 28.0138 214.711 28.2322 215.753 28.2322ZM243.57 20.9597C243.57 21.5355 243.502 22.1933 243.366 22.9324H226.682C226.764 24.9597 227.312 26.4529 228.327 27.4114C229.339 28.3698 230.599 28.8492 232.107 28.8492C233.449 28.8492 234.565 28.5204 235.454 27.8626C236.344 27.2065 236.912 26.3171 237.159 25.1936H243.282C242.981 26.7825 242.338 28.2065 241.352 29.4661C240.365 30.727 239.098 31.7135 237.551 32.4254C236.003 33.1373 234.284 33.4934 232.395 33.4934C230.175 33.4934 228.202 33.021 226.476 32.0762C224.751 31.1312 223.409 29.7819 222.451 28.0283C221.491 26.2747 221.011 24.2061 221.011 21.8236C221.011 19.4397 221.491 17.3646 222.451 15.5991C223.409 13.8315 224.751 12.4819 226.476 11.5512C228.202 10.62 230.175 10.1543 232.395 10.1543C234.639 10.1543 236.605 10.62 238.291 11.5512C239.974 12.4819 241.276 13.7628 242.193 15.3926C243.111 17.0221 243.57 18.8778 243.57 20.9597ZM237.735 20.3863C237.818 18.5219 237.332 17.1102 236.277 16.1523C235.221 15.1934 233.928 14.7144 232.395 14.7144C230.833 14.7144 229.517 15.1934 228.449 16.1523C227.38 17.1102 226.791 18.5219 226.682 20.3863H237.735Z" fill="white"/>
<path d="M17.4702 16.9102C17.4506 16.959 17.1969 17.9539 16.9245 19.1343C16.6412 20.3144 16.1924 22.1775 15.9392 23.2794C15.4512 25.2985 15.1586 26.625 15.1586 26.8004C15.1586 26.849 15.4612 26.8884 15.8314 26.8884H16.5049L16.8069 25.5421C16.9827 24.8109 17.3732 23.133 17.685 21.8163C17.9973 20.4996 18.3773 18.8999 18.5239 18.2559C18.6701 17.6122 18.8165 17.0275 18.8458 16.959C18.8751 16.8713 18.709 16.8423 18.2018 16.8423C17.8213 16.8423 17.4895 16.8713 17.4702 16.9102ZM12.2322 21.1333L11.335 22.1089L11.5987 22.4211C11.7446 22.5964 12.145 23.0355 12.4861 23.3967L13.1105 24.0594H14.8859L14.0467 23.1525C13.588 22.6653 13.2077 22.1966 13.2077 22.1384C13.2077 22.07 13.5589 21.6314 13.9885 21.1629C14.4174 20.6854 14.7686 20.2752 14.7686 20.2266C14.7686 20.1873 14.3981 20.1582 13.9495 20.1582H13.1398L12.2322 21.1333ZM19.0599 20.2168C19.0599 20.2462 19.226 20.4311 19.4306 20.636C20.1919 21.3969 20.7282 22.0409 20.6987 22.1672C20.6796 22.2361 20.3086 22.6941 19.86 23.1719L19.0506 24.0594H19.9575L20.8646 24.0499L21.6933 23.1426C22.1523 22.6359 22.5229 22.1866 22.5229 22.1284C22.5229 22.0798 22.1327 21.6213 21.6447 21.1045L20.7676 20.1582H19.9184C19.4404 20.1582 19.0599 20.1873 19.0599 20.2168Z" fill="white"/>
</g>
<defs>
<clipPath id="clip0_276_499">
<rect width="244" height="44" fill="white"/>
</clipPath>
</defs>
</svg>
