<svg width="190" height="47" viewBox="0 0 190 47" fill="none" xmlns="http://www.w3.org/2000/svg">
<g clip-path="url(#clip0_276_562)">
<path d="M57.8233 35.1722V10.4423H71.642V13.0657H61.3323V21.3535H69.9878V23.9435H61.3323V35.1722H57.8233Z" fill="white"/>
<path d="M81.9763 35.5899C79.3807 35.5899 77.3088 34.7322 75.7604 33.0167C74.212 31.29 73.4378 28.9841 73.4378 26.099C73.4378 23.1804 74.212 20.8745 75.7604 19.1813C77.3199 17.4769 79.4309 16.6248 82.0932 16.6248C84.7556 16.6248 86.861 17.4769 88.4094 19.1813C89.9689 20.8745 90.7487 23.1693 90.7487 26.0656C90.7487 29.0287 89.9689 31.3569 88.4094 33.0501C86.8498 34.7433 84.7055 35.5899 81.9763 35.5899ZM82.0264 33.1169C85.5131 33.1169 87.2564 30.7665 87.2564 26.0656C87.2564 21.4203 85.5354 19.0977 82.0932 19.0977C78.6622 19.0977 76.9467 21.4315 76.9467 26.099C76.9467 30.7776 78.6399 33.1169 82.0264 33.1169Z" fill="white"/>
<path d="M94.5007 35.1722V17.0258H97.7925V20.4345C99.5303 17.8947 101.658 16.6248 104.175 16.6248C105.746 16.6248 106.999 17.126 107.935 18.1286C108.871 19.12 109.339 20.4568 109.339 22.1389V35.1722H106.047V23.2083C106.047 21.8604 105.846 20.9024 105.445 20.3342C105.056 19.755 104.404 19.4654 103.49 19.4654C101.474 19.4654 99.5748 20.7854 97.7925 23.4255V35.1722H94.5007Z" fill="white"/>
<path d="M121.449 35.5899C118.853 35.5899 116.781 34.7322 115.233 33.0167C113.685 31.29 112.91 28.9841 112.91 26.099C112.91 23.1804 113.685 20.8745 115.233 19.1813C116.793 17.4769 118.904 16.6248 121.566 16.6248C124.228 16.6248 126.334 17.4769 127.882 19.1813C129.442 20.8745 130.221 23.1693 130.221 26.0656C130.221 29.0287 129.442 31.3569 127.882 33.0501C126.322 34.7433 124.178 35.5899 121.449 35.5899ZM121.499 33.1169C124.986 33.1169 126.729 30.7665 126.729 26.0656C126.729 21.4203 125.008 19.0977 121.566 19.0977C118.135 19.0977 116.419 21.4315 116.419 26.099C116.419 30.7776 118.113 33.1169 121.499 33.1169Z" fill="white"/>
<path d="M138.786 35.5899C137.282 35.5899 135.455 35.239 133.305 34.5372V31.5128C135.455 32.5822 137.326 33.1169 138.919 33.1169C139.866 33.1169 140.652 32.8607 141.275 32.3483C141.899 31.8359 142.211 31.1953 142.211 30.4267C142.211 29.3016 141.337 28.3715 139.588 27.6362L137.666 26.8175C134.826 25.6367 133.405 23.9379 133.405 21.7211C133.405 20.1393 133.962 18.8972 135.076 17.9949C136.201 17.0815 137.739 16.6248 139.688 16.6248C140.702 16.6248 141.955 16.764 143.448 17.0425L144.133 17.1762V19.9165C142.295 19.3707 140.835 19.0977 139.755 19.0977C137.638 19.0977 136.58 19.8664 136.58 21.4036C136.58 22.3951 137.382 23.2305 138.986 23.91L140.574 24.5784C142.367 25.3359 143.637 26.138 144.383 26.9846C145.13 27.82 145.503 28.8672 145.503 30.1259C145.503 31.7189 144.873 33.0278 143.615 34.0527C142.356 35.0775 140.746 35.5899 138.786 35.5899Z" fill="white"/>
<path d="M155.464 35.5899C153.793 35.5899 152.489 35.1109 151.554 34.1529C150.618 33.1949 150.15 31.8637 150.15 30.1594V19.4988H147.878V17.0258H150.15V13.734L153.442 13.4166V17.0258H158.187V19.4988H153.442V29.5578C153.442 31.9306 154.467 33.1169 156.516 33.1169C156.951 33.1169 157.48 33.0445 158.104 32.8997V35.1722C157.09 35.4507 156.21 35.5899 155.464 35.5899Z" fill="white"/>
<path d="M174.732 34.5874C172.526 35.2557 170.638 35.5899 169.068 35.5899C166.394 35.5899 164.211 34.7043 162.518 32.9331C160.835 31.1508 159.994 28.8449 159.994 26.0154C159.994 23.264 160.735 21.0082 162.217 19.2481C163.709 17.4881 165.614 16.608 167.931 16.608C170.126 16.608 171.819 17.3878 173.011 18.9474C174.214 20.5069 174.816 22.7237 174.816 25.5977L174.799 26.617H163.353C163.832 30.928 165.943 33.0835 169.686 33.0835C171.056 33.0835 172.738 32.7159 174.732 31.9807V34.5874ZM163.503 24.144H171.507C171.507 20.7687 170.248 19.081 167.731 19.081C165.202 19.081 163.793 20.7687 163.503 24.144Z" fill="white"/>
<path d="M179.101 35.1722V17.0258H182.393V20.4345C183.696 17.8947 185.59 16.6248 188.074 16.6248C188.408 16.6248 188.759 16.6526 189.127 16.7083V19.7828C188.559 19.5935 188.058 19.4988 187.623 19.4988C185.54 19.4988 183.797 20.7353 182.393 23.2083V35.1722H179.101Z" fill="white"/>
<path opacity="0.56" d="M19.4014 37.2992V46.7473L38.0434 37.2992H19.4014Z" fill="white"/>
<path d="M38.0435 0.0261841H0.770508V37.2991H38.0435V0.0261841Z" fill="white"/>
<path d="M24.2851 11.4633H6.11825C6.0346 11.4633 5.95178 11.48 5.87463 11.5123C5.79748 11.5446 5.72755 11.592 5.66891 11.6517C5.61028 11.7114 5.56411 11.7821 5.53312 11.8598C5.50212 11.9375 5.48691 12.0206 5.48838 12.1042V16.5686C5.48838 16.7357 5.55474 16.8959 5.67286 17.014C5.79099 17.1321 5.9512 17.1985 6.11825 17.1985H24.2851C24.4532 17.1985 24.6145 17.1325 24.7344 17.0147C24.8543 16.8969 24.9231 16.7367 24.926 16.5686V12.1042C24.926 11.9343 24.8585 11.7712 24.7383 11.651C24.6181 11.5308 24.4551 11.4633 24.2851 11.4633Z" fill="black"/>
<path d="M18.7723 19.7401H14.3079C14.1379 19.7401 13.9749 19.8076 13.8547 19.9278C13.7345 20.048 13.667 20.2111 13.667 20.381V24.8454C13.667 24.929 13.6836 25.0119 13.716 25.089C13.7483 25.1662 13.7957 25.2361 13.8554 25.2947C13.915 25.3534 13.9858 25.3995 14.0635 25.4305C14.1412 25.4615 14.2243 25.4767 14.3079 25.4753H18.7723C18.9393 25.4753 19.0995 25.4089 19.2177 25.2908C19.3358 25.1727 19.4021 25.0124 19.4021 24.8454V20.381C19.4022 20.213 19.3362 20.0516 19.2183 19.9317C19.1005 19.8118 18.9403 19.743 18.7723 19.7401Z" fill="black"/>
<path d="M10.5826 19.8727H6.11825C5.9512 19.8727 5.79099 19.9391 5.67286 20.0572C5.55474 20.1754 5.48838 20.3356 5.48838 20.5026V24.967C5.48691 25.0506 5.50212 25.1337 5.53312 25.2114C5.56411 25.2891 5.61028 25.3599 5.66891 25.4195C5.72755 25.4792 5.79748 25.5266 5.87463 25.5589C5.95178 25.5913 6.0346 25.6079 6.11825 25.6079H10.5826C10.6668 25.6079 10.7501 25.5913 10.8279 25.5591C10.9056 25.5269 10.9763 25.4797 11.0358 25.4202C11.0953 25.3607 11.1425 25.29 11.1747 25.2122C11.207 25.1345 11.2235 25.0511 11.2235 24.967V20.5026C11.2206 20.3346 11.1518 20.1744 11.0319 20.0565C10.9121 19.9387 10.7507 19.8727 10.5826 19.8727Z" fill="black"/>
<path d="M32.6842 11.4633H28.2198C28.1362 11.4633 28.0533 11.48 27.9762 11.5123C27.899 11.5446 27.8291 11.592 27.7705 11.6517C27.7118 11.7114 27.6657 11.7821 27.6347 11.8598C27.6037 11.9375 27.5885 12.0206 27.5899 12.1042V16.5686C27.5899 16.7357 27.6563 16.8959 27.7744 17.014C27.8925 17.1321 28.0528 17.1985 28.2198 17.1985H32.6842C32.8523 17.1985 33.0136 17.1325 33.1335 17.0147C33.2534 16.8969 33.3222 16.7367 33.3251 16.5686V12.1042C33.3251 11.9343 33.2576 11.7712 33.1374 11.651C33.0172 11.5308 32.8542 11.4633 32.6842 11.4633Z" fill="black"/>
</g>
<defs>
<clipPath id="clip0_276_562">
<rect width="190" height="47" fill="white"/>
</clipPath>
</defs>
</svg>
