<svg width="138" height="40" viewBox="0 0 138 40" fill="none" xmlns="http://www.w3.org/2000/svg">
<g clip-path="url(#clip0_1386_3647)">
<path d="M42.1056 28.5703V10.6806H52.1021V12.5784H44.644V18.5738H50.9054V20.4474H44.644V28.5703H42.1056Z" fill="white"/>
<path d="M59.581 28.8725C57.7034 28.8725 56.2045 28.252 55.0844 27.011C53.9643 25.7619 53.4042 24.0939 53.4042 22.0067C53.4042 19.8954 53.9643 18.2273 55.0844 17.0024C56.2126 15.7695 57.7397 15.153 59.6656 15.153C61.5916 15.153 63.1146 15.7695 64.2348 17.0024C65.3629 18.2273 65.927 19.8874 65.927 21.9825C65.927 24.1261 65.3629 25.8103 64.2348 27.0352C63.1066 28.2601 61.5553 28.8725 59.581 28.8725ZM59.6173 27.0835C62.1396 27.0835 63.4007 25.3832 63.4007 21.9825C63.4007 18.6222 62.1557 16.942 59.6656 16.942C57.1836 16.942 55.9426 18.6302 55.9426 22.0067C55.9426 25.3913 57.1675 27.0835 59.6173 27.0835Z" fill="white"/>
<path d="M68.6391 28.5703V15.4431H71.0203V17.909C72.2775 16.0717 73.8166 15.153 75.6378 15.153C76.7741 15.153 77.6806 15.5157 78.3575 16.2409C79.0345 16.9581 79.3729 17.9251 79.3729 19.1419V28.5703H76.9916V19.9156C76.9916 18.9405 76.8466 18.2475 76.5565 17.8365C76.2744 17.4174 75.803 17.2079 75.1422 17.2079C73.6837 17.2079 72.3097 18.1628 71.0203 20.0727V28.5703H68.6391Z" fill="white"/>
<path d="M88.1357 28.8725C86.2581 28.8725 84.7592 28.252 83.6391 27.011C82.519 25.7619 81.9589 24.0939 81.9589 22.0067C81.9589 19.8954 82.519 18.2273 83.6391 17.0024C84.7673 15.7695 86.2944 15.153 88.2203 15.153C90.1463 15.153 91.6693 15.7695 92.7894 17.0024C93.9176 18.2273 94.4817 19.8874 94.4817 21.9825C94.4817 24.1261 93.9176 25.8103 92.7894 27.0352C91.6613 28.2601 90.11 28.8725 88.1357 28.8725ZM88.172 27.0835C90.6943 27.0835 91.9554 25.3832 91.9554 21.9825C91.9554 18.6222 90.7104 16.942 88.2203 16.942C85.7383 16.942 84.4973 18.6302 84.4973 22.0067C84.4973 25.3913 85.7222 27.0835 88.172 27.0835Z" fill="white"/>
<path d="M100.675 28.8725C99.5871 28.8725 98.2655 28.6187 96.7103 28.111V25.9231C98.2655 26.6967 99.6194 27.0835 100.772 27.0835C101.457 27.0835 102.025 26.8982 102.476 26.5275C102.927 26.1568 103.153 25.6935 103.153 25.1374C103.153 24.3235 102.52 23.6506 101.255 23.1188L99.8651 22.5265C97.8102 21.6723 96.7828 20.4434 96.7828 18.8398C96.7828 17.6955 97.1857 16.7969 97.9916 16.1442C98.8055 15.4834 99.9175 15.153 101.328 15.153C102.061 15.153 102.968 15.2538 104.047 15.4552L104.543 15.5519V17.5343C103.213 17.1394 102.158 16.942 101.376 16.942C99.845 16.942 99.0794 17.498 99.0794 18.6101C99.0794 19.3273 99.6596 19.9317 100.82 20.4232L101.968 20.9067C103.266 21.4547 104.184 22.0349 104.724 22.6474C105.264 23.2517 105.534 24.0092 105.534 24.9198C105.534 26.0722 105.079 27.0191 104.168 27.7604C103.258 28.5018 102.093 28.8725 100.675 28.8725Z" fill="white"/>
<path d="M112.736 28.8725C111.527 28.8725 110.584 28.526 109.907 27.833C109.23 27.1399 108.892 26.177 108.892 24.944V17.2321H107.248V15.4431H108.892V13.0619L111.273 12.8322V15.4431H114.706V17.2321H111.273V24.5089C111.273 26.2253 112.015 27.0835 113.497 27.0835C113.812 27.0835 114.194 27.0312 114.646 26.9264V28.5703C113.912 28.7718 113.276 28.8725 112.736 28.8725Z" fill="white"/>
<path d="M126.675 28.1472C125.079 28.6308 123.713 28.8725 122.577 28.8725C120.643 28.8725 119.064 28.2319 117.839 26.9506C116.622 25.6612 116.014 23.9931 116.014 21.9463C116.014 19.9559 116.549 18.324 117.621 17.0508C118.701 15.7776 120.079 15.1409 121.755 15.1409C123.343 15.1409 124.568 15.705 125.43 16.8332C126.3 17.9614 126.735 19.565 126.735 21.6441L126.723 22.3814H118.443C118.79 25.5001 120.317 27.0594 123.024 27.0594C124.016 27.0594 125.232 26.7934 126.675 26.2616V28.1472ZM118.552 20.5925H124.342C124.342 18.1508 123.431 16.9299 121.61 16.9299C119.781 16.9299 118.762 18.1508 118.552 20.5925Z" fill="white"/>
<path d="M129.834 28.5703V15.4431H132.216V17.909C133.158 16.0717 134.528 15.153 136.325 15.153C136.567 15.153 136.821 15.1732 137.087 15.2135V17.4376C136.676 17.3006 136.313 17.2321 135.999 17.2321C134.492 17.2321 133.231 18.1266 132.216 19.9156V28.5703H129.834Z" fill="white"/>
<path opacity="0.56" d="M14.3125 29.9844V36.8192L27.7982 29.9844H14.3125Z" fill="white"/>
<path d="M27.7994 3.01953H0.835938V29.9829H27.7994V3.01953Z" fill="white"/>
<path d="M17.8477 11.293H4.70572C4.64521 11.293 4.5853 11.305 4.52949 11.3284C4.47368 11.3518 4.42309 11.3861 4.38067 11.4292C4.33825 11.4724 4.30486 11.5236 4.28243 11.5798C4.26001 11.636 4.24901 11.6961 4.25007 11.7566V14.9862C4.25007 15.107 4.29808 15.2229 4.38353 15.3083C4.46898 15.3938 4.58488 15.4418 4.70572 15.4418H17.8477C17.9693 15.4418 18.086 15.3941 18.1727 15.3088C18.2595 15.2236 18.3092 15.1077 18.3113 14.9862V11.7566C18.3113 11.6336 18.2625 11.5157 18.1755 11.4288C18.0886 11.3418 17.9707 11.293 17.8477 11.293" fill="black"/>
<path d="M13.8572 17.2812H10.6277C10.5047 17.2812 10.3868 17.3301 10.2999 17.417C10.2129 17.504 10.1641 17.6219 10.1641 17.7449V20.9744C10.1641 21.0349 10.1761 21.0949 10.1995 21.1507C10.2229 21.2065 10.2572 21.2571 10.3003 21.2995C10.3435 21.3419 10.3947 21.3753 10.4509 21.3977C10.5071 21.4201 10.5672 21.4311 10.6277 21.4301H13.8572C13.9781 21.4301 14.094 21.3821 14.1794 21.2966C14.2649 21.2112 14.3129 21.0953 14.3129 20.9744V17.7449C14.3129 17.6233 14.2652 17.5066 14.1799 17.4198C14.0947 17.3331 13.9788 17.2833 13.8572 17.2812" fill="black"/>
<path d="M7.93526 17.375H4.70572C4.58488 17.375 4.46898 17.423 4.38353 17.5085C4.29808 17.5939 4.25007 17.7098 4.25007 17.8307V21.0602C4.24901 21.1207 4.26001 21.1808 4.28243 21.237C4.30486 21.2932 4.33825 21.3444 4.38067 21.3876C4.42309 21.4307 4.47368 21.465 4.52949 21.4884C4.5853 21.5118 4.64521 21.5238 4.70572 21.5238H7.93526C7.99614 21.5238 8.05643 21.5118 8.11269 21.4885C8.16894 21.4652 8.22005 21.4311 8.2631 21.388C8.30616 21.345 8.34031 21.2939 8.36361 21.2376C8.38691 21.1814 8.3989 21.1211 8.3989 21.0602V17.8307C8.39681 17.7091 8.34704 17.5932 8.26031 17.508C8.17359 17.4227 8.05685 17.375 7.93526 17.375" fill="black"/>
<path d="M23.9196 11.293H20.6901C20.6296 11.293 20.5697 11.305 20.5139 11.3284C20.458 11.3518 20.4075 11.3861 20.365 11.4292C20.3226 11.4724 20.2892 11.5236 20.2668 11.5798C20.2444 11.636 20.2334 11.6961 20.2344 11.7566V14.9862C20.2344 15.107 20.2824 15.2229 20.3679 15.3083C20.4534 15.3938 20.5692 15.4418 20.6901 15.4418H23.9196C24.0412 15.4418 24.158 15.3941 24.2447 15.3088C24.3314 15.2236 24.3812 15.1077 24.3833 14.9862V11.7566C24.3833 11.6336 24.3344 11.5157 24.2475 11.4288C24.1605 11.3418 24.0426 11.293 23.9196 11.293" fill="black"/>
</g>
<defs>
<clipPath id="clip0_1386_3647">
<rect width="138" height="34" fill="white" transform="translate(0 3)"/>
</clipPath>
</defs>
</svg>
