<svg width="256" height="44" viewBox="0 0 256 44" fill="none" xmlns="http://www.w3.org/2000/svg">
<path d="M43.5145 27.4437C39.8518 38.2209 28.1077 44 17.2833 40.3499C6.46204 36.7029 0.657735 25.0092 4.32361 14.2321C7.30293 5.46104 15.6393 1.85817e-05 24.4702 0.239371L21.6389 3.56827C16.3983 4.51308 11.8758 8.07818 10.0964 13.3093C7.45095 21.0914 11.8853 29.6199 20.0012 32.3567C28.1203 35.0904 36.8441 30.9994 39.4896 23.2172C41.2627 18.0019 39.8581 12.4558 36.2961 8.53799L36.0788 4.1635C43.2185 9.32218 46.4907 18.6853 43.5145 27.4437ZM29.1124 21.7937C27.1535 23.7022 24.7473 23.529 23.1821 22.9999C21.6169 22.474 19.6013 21.1576 19.2107 18.4554C18.8202 15.7532 20.587 13.5581 20.587 13.5581L24.4356 8.78994L26.6779 6.06887L28.6022 3.69739C28.6022 3.69739 29.484 2.51952 29.736 2.27702C29.7863 2.22663 29.8367 2.19514 29.8871 2.17309L29.9249 2.15419L29.9312 2.15104C30.0352 2.1038 30.158 2.09436 30.2745 2.1353C30.391 2.17309 30.4792 2.25182 30.5359 2.34946L30.5485 2.36835L30.5579 2.3904C30.5863 2.44079 30.6083 2.50063 30.6209 2.57306C30.6713 2.91949 30.6556 4.39025 30.6556 4.39025L30.7343 7.4357L30.8571 10.9567L31.0052 17.0697C31.0052 17.0697 31.0713 19.8821 29.1124 21.7937Z" fill="white"/>
<path d="M100.184 21.5228C100.184 20.8961 100.077 20.3859 99.8657 19.9922C99.6578 19.5986 99.3681 19.2931 98.9996 19.0695C98.6311 18.8459 98.1776 18.6947 97.6391 18.6191C97.1005 18.5404 96.5022 18.4994 95.8471 18.4994C94.4267 18.4994 92.9182 18.7766 91.3151 19.3246C90.9466 18.6443 90.6695 18.0018 90.4868 17.4003C90.3042 16.7988 90.2097 16.0807 90.2097 15.243C91.3655 14.8493 92.5213 14.5627 93.6772 14.38C94.8361 14.1974 95.9132 14.1029 96.9116 14.1029C99.6421 14.1029 101.777 14.758 103.314 16.0681C104.851 17.3751 105.623 19.4694 105.623 22.348V34.1203C104.7 34.4101 103.585 34.6841 102.272 34.9455C100.959 35.2069 99.472 35.3392 97.8186 35.3392C96.477 35.3392 95.2487 35.2195 94.1307 34.9833C93.0158 34.7502 92.0552 34.3565 91.2553 33.8054C90.4522 33.2574 89.8349 32.552 89.4035 31.689C88.9688 30.8229 88.7515 29.7648 88.7515 28.5081C88.7515 27.2515 89.0224 26.1997 89.5609 25.3493C90.0995 24.499 90.7955 23.8187 91.649 23.3085C92.5024 22.7983 93.4567 22.433 94.5054 22.2094C95.5573 21.9858 96.6092 21.8756 97.658 21.8756C98.4201 21.8756 99.261 21.9165 100.184 21.9921V21.5228ZM100.184 25.5666C99.8431 25.5094 99.5007 25.4632 99.1571 25.4281C98.8298 25.39 98.5008 25.3701 98.1713 25.3682C96.8832 25.3682 95.866 25.5981 95.1164 26.0548C94.3669 26.5146 93.9952 27.2515 93.9952 28.2719C93.9952 28.9522 94.137 29.475 94.4267 29.8435C94.7165 30.2088 95.066 30.4765 95.4723 30.6466C95.8786 30.8166 96.3132 30.9237 96.773 30.9615C97.2328 30.9993 97.6328 31.0214 97.9729 31.0214C98.3697 31.0214 98.7634 30.9867 99.1571 30.9237C99.5507 30.8576 99.894 30.7977 100.184 30.7442V25.5666ZM109.352 18.8144H106.791L106.593 18.0302L113.965 8.64816H114.869V14.5753H119.641C119.716 14.969 119.77 15.3217 119.798 15.6335C119.823 15.9484 119.836 16.276 119.836 16.6161C119.836 16.9814 119.823 17.3373 119.798 17.6774C119.77 18.0176 119.716 18.3955 119.641 18.8144H114.869V26.7823C114.869 27.5917 114.935 28.2467 115.068 28.7444C115.2 29.242 115.389 29.6325 115.638 29.9222C115.89 30.2088 116.198 30.4041 116.564 30.5112C116.932 30.6151 117.367 30.6686 117.864 30.6686C118.261 30.6686 118.649 30.634 119.03 30.5678C119.411 30.5049 119.745 30.445 120.034 30.3915C120.217 30.8891 120.349 31.4056 120.428 31.9441C120.507 32.4795 120.545 32.9582 120.545 33.3739C120.545 33.6637 120.538 33.9062 120.526 34.1014C120.513 34.2967 120.494 34.4888 120.466 34.6715C119.26 34.9581 118.009 35.1029 116.724 35.1029C114.331 35.1029 112.504 34.5455 111.244 33.4338C109.985 32.322 109.352 30.5112 109.352 27.9979V18.8144ZM124.141 18.8144H121.578L121.382 18.0302L128.752 8.64816H129.659V14.5753H134.427C134.506 14.969 134.559 15.3217 134.584 15.6335C134.61 15.9484 134.625 16.276 134.625 16.6161C134.625 16.9814 134.61 17.3373 134.584 17.6774C134.559 18.0176 134.506 18.3955 134.427 18.8144H129.659V26.7823C129.659 27.5917 129.725 28.2467 129.854 28.7444C129.986 29.242 130.178 29.6325 130.427 29.9222C130.676 30.2088 130.985 30.4041 131.353 30.5112C131.722 30.6151 132.153 30.6686 132.654 30.6686C133.048 30.6686 133.435 30.634 133.816 30.5678C134.197 30.5049 134.531 30.445 134.821 30.3915C135.006 30.8891 135.136 31.4056 135.214 31.9441C135.293 32.4795 135.334 32.9582 135.334 33.3739C135.334 33.6637 135.328 33.9062 135.315 34.1014C135.299 34.2967 135.28 34.4888 135.255 34.6715C134.046 34.9581 132.799 35.1029 131.511 35.1029C129.12 35.1029 127.294 34.5455 126.031 33.4338C124.771 32.322 124.141 30.5112 124.141 27.9979V18.8144ZM142.03 26.4296C142.134 27.9979 142.685 29.138 143.683 29.8435C144.681 30.5489 145.998 30.9017 147.626 30.9017C148.52 30.9017 149.431 30.8166 150.366 30.6466C151.298 30.4765 152.183 30.234 153.027 29.9222C153.314 30.445 153.563 31.0717 153.774 31.8055C153.985 32.5362 154.101 33.3235 154.13 34.1613C152.079 34.9455 149.768 35.3392 147.191 35.3392C145.302 35.3392 143.677 35.0746 142.326 34.5518C140.971 34.029 139.869 33.3015 139.012 32.3756C138.159 31.4465 137.529 30.3411 137.123 29.0593C136.713 27.7743 136.512 26.376 136.512 24.858C136.512 23.3684 136.72 21.9669 137.142 20.6599C137.561 19.3498 138.187 18.2128 139.012 17.246C139.841 16.276 140.867 15.5107 142.089 14.9469C143.311 14.3863 144.735 14.1029 146.363 14.1029C147.783 14.1029 149.043 14.3517 150.149 14.8493C151.251 15.3469 152.193 16.0272 152.967 16.8901C153.742 17.753 154.328 18.7829 154.722 19.9733C155.115 21.1638 155.311 22.4393 155.311 23.7998C155.311 24.2974 155.292 24.7856 155.254 25.2706C155.213 25.7556 155.166 26.1398 155.115 26.4296H142.03ZM150.029 22.5432C149.979 21.2866 149.629 20.2725 148.987 19.5009C148.341 18.7293 147.443 18.342 146.284 18.342C144.971 18.342 143.973 18.7104 143.289 19.4411C142.606 20.1749 142.2 21.2079 142.067 22.5432H150.029ZM157.449 14.5753C157.843 14.4966 158.217 14.4367 158.573 14.3989C158.926 14.358 159.313 14.3391 159.735 14.3391C160.129 14.3391 160.516 14.3674 160.898 14.4178C161.279 14.4714 161.653 14.5375 162.022 14.6162C162.101 14.7454 162.173 14.9343 162.239 15.1831C162.302 15.4319 162.362 15.6933 162.416 15.9705C162.469 16.2445 162.513 16.5185 162.554 16.7925C162.592 17.0696 162.627 17.2964 162.652 17.479C163.231 16.6696 163.94 15.9421 164.781 15.3028C165.622 14.6603 166.673 14.3391 167.933 14.3391C168.198 14.3391 168.497 14.3517 168.84 14.38C169.18 14.4052 169.429 14.443 169.59 14.4966C169.64 14.758 169.681 15.0603 169.706 15.4004C169.735 15.7406 169.747 16.0933 169.747 16.4586C169.747 16.9058 169.725 17.3877 169.687 17.9105C169.646 18.4333 169.574 18.9309 169.47 19.4033C169.18 19.3498 168.859 19.3246 168.503 19.3246H167.854C167.407 19.3246 166.91 19.3718 166.355 19.4631C165.804 19.5545 165.278 19.7938 164.781 20.1875C164.28 20.5812 163.867 21.1701 163.537 21.9543C163.209 22.7385 163.045 23.8376 163.045 25.2517V34.9077C162.573 34.9833 162.101 35.0368 161.628 35.062C161.153 35.0904 160.693 35.1029 160.249 35.1029C159.802 35.1029 159.348 35.0904 158.888 35.062C158.428 35.0368 157.95 34.9833 157.449 34.9077V14.5753ZM172.371 14.5753C172.736 14.4966 173.105 14.4367 173.473 14.3989C173.841 14.358 174.248 14.3391 174.695 14.3391C175.142 14.3391 175.536 14.358 175.879 14.3989C176.219 14.4367 176.575 14.4966 176.94 14.5753C177.019 14.7076 177.092 14.8965 177.158 15.1453C177.224 15.3941 177.284 15.6555 177.337 15.9295C177.388 16.2035 177.435 16.4712 177.473 16.7326C177.514 16.994 177.545 17.2176 177.573 17.4003C177.781 17.0098 178.058 16.6161 178.402 16.2224C178.742 15.8319 179.148 15.4792 179.621 15.1642C180.096 14.8493 180.625 14.5942 181.217 14.3989C181.809 14.2037 182.474 14.1029 183.208 14.1029C186.389 14.1029 188.423 15.3091 189.318 17.7152C189.843 16.7484 190.587 15.9043 191.544 15.1831C192.505 14.4651 193.72 14.1029 195.191 14.1029C197.503 14.1029 199.203 14.7391 200.293 16.0083C201.386 17.2775 201.931 19.2584 201.931 21.9543V34.8667C200.986 35.0242 200.051 35.1029 199.131 35.1029C198.211 35.1029 197.279 35.0242 196.334 34.8667V23.4062C196.334 21.9921 196.155 20.9087 195.802 20.1497C195.446 19.3907 194.731 19.0096 193.654 19.0096C193.207 19.0096 192.766 19.0758 192.335 19.208C191.9 19.3372 191.506 19.5797 191.15 19.9324C190.795 20.2851 190.508 20.7827 190.284 21.4252C190.061 22.0645 189.947 22.896 189.947 23.9164V34.8667C189.003 35.0242 188.07 35.1029 187.151 35.1029C186.231 35.1029 185.296 35.0242 184.351 34.8667V23.4062C184.351 21.9921 184.175 20.9087 183.819 20.1497C183.466 19.3907 182.748 19.0096 181.671 19.0096C181.227 19.0096 180.78 19.0758 180.332 19.208C179.885 19.3372 179.485 19.5923 179.129 19.9733C178.773 20.3513 178.493 20.8804 178.282 21.5606C178.071 22.2409 177.967 23.1322 177.967 24.2313V34.8667C177.019 35.0242 176.087 35.1029 175.167 35.1029C174.248 35.1029 173.316 35.0242 172.371 34.8667V14.5753ZM213.328 35.3392C211.672 35.3392 210.236 35.0683 209.014 34.5329C207.792 33.9975 206.781 33.2511 205.978 32.2969C205.178 31.3394 204.573 30.2214 204.167 28.9396C203.757 27.6578 203.553 26.2721 203.553 24.7793C203.553 23.2896 203.757 21.8882 204.167 20.5812C204.573 19.271 205.178 18.1404 205.978 17.1861C206.781 16.2287 207.792 15.4792 209.014 14.928C210.236 14.38 211.672 14.1029 213.328 14.1029C214.985 14.1029 216.431 14.38 217.665 14.928C218.9 15.4792 219.923 16.2287 220.739 17.1861C221.555 18.1404 222.156 19.271 222.553 20.5812C222.947 21.8882 223.142 23.2896 223.142 24.7793C223.142 26.2721 222.947 27.6578 222.553 28.9396C222.156 30.2214 221.555 31.3394 220.739 32.2969C219.923 33.2511 218.9 33.9975 217.665 34.5329C216.431 35.0683 214.985 35.3392 213.328 35.3392ZM213.328 31.1001C214.799 31.1001 215.857 30.5552 216.5 29.4687C217.145 28.3853 217.467 26.8201 217.467 24.7793C217.467 22.7385 217.145 21.1764 216.5 20.0899C215.857 19.0033 214.799 18.4616 213.328 18.4616C211.883 18.4616 210.84 19.0033 210.195 20.0899C209.552 21.1764 209.228 22.7385 209.228 24.7793C209.228 26.8201 209.552 28.3853 210.195 29.4687C210.84 30.5552 211.883 31.1001 213.328 31.1001ZM230.329 26.0359C228.858 25.617 227.708 24.9966 226.88 24.1715C226.052 23.3463 225.639 22.1118 225.639 20.4615C225.639 18.4742 226.354 16.9184 227.787 15.791C229.217 14.6666 231.17 14.1029 233.639 14.1029C234.665 14.1029 235.676 14.1974 236.675 14.38C237.673 14.5627 238.684 14.8367 239.708 15.2052C239.657 15.8823 239.525 16.5909 239.314 17.3216C239.106 18.0554 238.854 18.6947 238.564 19.2458C237.934 18.9844 237.238 18.7545 236.476 18.5593C235.714 18.364 234.914 18.2664 234.073 18.2664C233.179 18.2664 232.483 18.4018 231.982 18.6758C231.485 18.9529 231.236 19.3907 231.236 19.9922C231.236 20.5686 231.412 20.9717 231.768 21.2079C232.121 21.4441 232.628 21.6677 233.283 21.8756L235.532 22.5432C236.265 22.7511 236.93 23.0062 237.522 23.3085C238.114 23.6109 238.618 23.9825 239.04 24.4266C239.459 24.8706 239.786 25.4218 240.023 26.0737C240.262 26.7287 240.378 27.5287 240.378 28.4704C240.378 29.4372 240.174 30.3411 239.767 31.1788C239.361 32.0134 238.769 32.7409 237.994 33.355C237.22 33.9723 236.281 34.4542 235.176 34.8069C234.073 35.1596 232.823 35.3392 231.431 35.3392C230.801 35.3392 230.225 35.3171 229.699 35.2793C229.173 35.2384 228.666 35.1754 228.181 35.0841C227.696 34.9896 227.214 34.8793 226.742 34.7502C226.269 34.6179 225.756 34.4479 225.205 34.24C225.258 33.5314 225.381 32.8196 225.579 32.0984C225.776 31.379 226.033 30.6773 226.348 30.001C227.214 30.3411 228.036 30.5962 228.811 30.7663C229.585 30.9363 230.395 31.0214 231.236 31.0214C231.604 31.0214 232.004 30.9867 232.436 30.9237C232.87 30.8576 233.27 30.7379 233.639 30.5678C234.007 30.3978 234.316 30.1773 234.565 29.9033C234.817 29.6262 234.939 29.2671 234.939 28.8231C234.939 28.1932 234.75 27.7428 234.369 27.4689C233.988 27.1949 233.456 26.9524 232.773 26.7413L230.329 26.0359ZM243.959 18.8144H241.399L241.2 18.0302L248.573 8.64816H249.477V14.5753H254.248C254.327 14.969 254.381 15.3217 254.406 15.6335C254.431 15.9484 254.444 16.276 254.444 16.6161C254.444 16.9814 254.431 17.3373 254.406 17.6774C254.381 18.0176 254.327 18.3955 254.248 18.8144H249.477V26.7823C249.477 27.5917 249.546 28.2467 249.675 28.7444C249.808 29.242 249.997 29.6325 250.249 29.9222C250.497 30.2088 250.806 30.4041 251.174 30.5112C251.54 30.6151 251.974 30.6686 252.475 30.6686C252.869 30.6686 253.256 30.634 253.637 30.5678C254.018 30.5049 254.352 30.445 254.642 30.3915C254.825 30.8891 254.957 31.4056 255.036 31.9441C255.114 32.4795 255.155 32.9582 255.155 33.3739C255.155 33.6637 255.149 33.9062 255.133 34.1014C255.121 34.2967 255.102 34.4888 255.077 34.6715C253.867 34.9581 252.62 35.1029 251.332 35.1029C248.942 35.1029 247.115 34.5455 245.852 33.4338C244.592 32.322 243.959 30.5112 243.959 27.9979V18.8144ZM58.1616 8.36157C59.3017 8.2041 60.3977 8.12537 61.4496 8.12537C62.5613 8.12537 63.6573 8.2041 64.7375 8.36157L71.7827 22.9243L79.042 8.36157C79.9238 8.2041 80.9064 8.12537 81.9867 8.12537C83.07 8.12537 84.1062 8.2041 85.1045 8.36157L86.5564 35.0998C85.4762 35.2604 84.4495 35.3392 83.4826 35.3392C82.5126 35.3392 81.5615 35.2604 80.623 35.0998L79.8514 15.7689L73.6188 29.1317C73.2188 29.1821 72.8062 29.2294 72.3811 29.2671C71.9527 29.3081 71.5276 29.327 71.0993 29.327C70.7276 29.327 70.3592 29.3144 69.9907 29.2892C69.6191 29.2608 69.2348 29.2105 68.8349 29.1317L63.0305 15.4918L62.4322 35.0998C61.522 35.2604 60.637 35.3392 59.7835 35.3392C58.8734 35.3392 57.9349 35.2604 56.9648 35.0998L58.1616 8.36157Z" fill="white"/>
</svg>
