<svg width="184" height="40" viewBox="0 0 184 40" fill="none" xmlns="http://www.w3.org/2000/svg">
<path d="M29.3017 23.9584C26.6379 31.7964 18.0968 35.9994 10.2245 33.3447C2.3545 30.6924 -1.86682 22.1879 0.799276 14.35C2.96605 7.97105 9.02889 3.99939 15.4513 4.17347L13.3922 6.59448C9.58089 7.28162 6.29179 9.87442 4.99769 13.6789C3.0737 19.3386 6.29866 25.5411 12.2012 27.5316C18.106 29.5197 24.4505 26.5444 26.3745 20.8846C27.6641 17.0916 26.6425 13.0582 24.052 10.2088L23.894 7.02738C29.0864 10.7791 31.4662 17.5887 29.3017 23.9584ZM18.8275 19.8494C17.4028 21.2374 15.6529 21.1114 14.5145 20.7266C13.3762 20.3441 11.9103 19.3867 11.6263 17.4215C11.3423 15.4563 12.6272 13.8598 12.6272 13.8598L15.4261 10.3921L17.0569 8.4131L18.4564 6.68839C18.4564 6.68839 19.0977 5.83176 19.281 5.65539C19.3176 5.61875 19.3543 5.59584 19.3909 5.57981L19.4184 5.56607L19.423 5.56377C19.4986 5.52942 19.5879 5.52255 19.6726 5.55232C19.7574 5.57981 19.8215 5.63707 19.8628 5.70807L19.8719 5.72182L19.8788 5.73785C19.8994 5.7745 19.9154 5.81802 19.9246 5.8707C19.9612 6.12265 19.9498 7.19229 19.9498 7.19229L20.0071 9.40716L20.0964 11.9679L20.204 16.4137C20.204 16.4137 20.2521 18.4591 18.8275 19.8494V19.8494Z" fill="white"/>
<path d="M70.5179 19.6538C70.5179 19.198 70.44 18.8269 70.2866 18.5406C70.1354 18.2543 69.9247 18.0321 69.6567 17.8695C69.3887 17.7069 69.0589 17.5969 68.6672 17.542C68.2755 17.4847 67.8403 17.4549 67.3639 17.4549C66.3309 17.4549 65.2338 17.6565 64.068 18.055C63.8 17.5603 63.5984 17.093 63.4656 16.6556C63.3327 16.2181 63.264 15.6959 63.264 15.0866C64.1046 14.8003 64.9452 14.5919 65.7858 14.459C66.6287 14.3262 67.412 14.2574 68.1381 14.2574C70.1239 14.2574 71.6769 14.7339 72.7946 15.6867C73.9123 16.6372 74.4735 18.1604 74.4735 20.2539V28.8156C73.8024 29.0263 72.9916 29.2256 72.0365 29.4157C71.0813 29.6058 70.0002 29.702 68.7978 29.702C67.822 29.702 66.9287 29.615 66.1156 29.4432C65.3048 29.2737 64.6062 28.9874 64.0244 28.5865C63.4404 28.188 62.9914 27.6749 62.6777 27.0474C62.3616 26.4175 62.2035 25.6479 62.2035 24.734C62.2035 23.8201 62.4005 23.0551 62.7922 22.4367C63.1838 21.8182 63.69 21.3235 64.3107 20.9525C64.9315 20.5814 65.6255 20.3157 66.3882 20.1531C67.1532 19.9905 67.9182 19.9103 68.6809 19.9103C69.2352 19.9103 69.8468 19.9401 70.5179 19.995V19.6538ZM70.5179 22.5947C70.2701 22.5531 70.0211 22.5195 69.7712 22.4939C69.5332 22.4663 69.2939 22.4518 69.0543 22.4504C68.1175 22.4504 67.3777 22.6176 66.8325 22.9497C66.2874 23.2841 66.0171 23.8201 66.0171 24.5622C66.0171 25.057 66.1202 25.4372 66.3309 25.7052C66.5417 25.9708 66.7959 26.1655 67.0914 26.2892C67.3868 26.4129 67.7029 26.4908 68.0373 26.5183C68.3717 26.5458 68.6626 26.5618 68.91 26.5618C69.1986 26.5618 69.4849 26.5366 69.7712 26.4908C70.0575 26.4427 70.3072 26.3992 70.5179 26.3602V22.5947ZM77.1854 17.684H75.3233L75.179 17.1136L80.5409 10.2904H81.1983V14.601H84.6683C84.7233 14.8873 84.7622 15.1439 84.7829 15.3706C84.8012 15.5997 84.8103 15.8379 84.8103 16.0852C84.8103 16.3509 84.8012 16.6097 84.7829 16.8571C84.7622 17.1045 84.7233 17.3793 84.6683 17.684H81.1983V23.4788C81.1983 24.0675 81.2464 24.5439 81.3426 24.9058C81.4388 25.2677 81.5762 25.5517 81.7572 25.7624C81.9404 25.9708 82.1649 26.1129 82.4306 26.1907C82.6985 26.2663 83.0146 26.3053 83.3765 26.3053C83.6651 26.3053 83.9468 26.2801 84.224 26.232C84.5011 26.1861 84.7439 26.1426 84.9546 26.1037C85.0875 26.4656 85.1837 26.8412 85.241 27.2329C85.2982 27.6223 85.3257 27.9704 85.3257 28.2728C85.3257 28.4835 85.3211 28.6598 85.312 28.8018C85.3028 28.9439 85.289 29.0836 85.2684 29.2164C84.3912 29.4249 83.4819 29.5302 82.5474 29.5302C80.8066 29.5302 79.4782 29.1248 78.562 28.3163C77.6458 27.5077 77.1854 26.1907 77.1854 24.3629V17.684ZM87.9414 17.684H86.077L85.935 17.1136L91.2946 10.2904H91.9543V14.601H95.422C95.4793 14.8873 95.5182 15.1439 95.5366 15.3706C95.5549 15.5997 95.5663 15.8379 95.5663 16.0852C95.5663 16.3509 95.5549 16.6097 95.5366 16.8571C95.5182 17.1045 95.4793 17.3793 95.422 17.684H91.9543V23.4788C91.9543 24.0675 92.0024 24.5439 92.0963 24.9058C92.1925 25.2677 92.3322 25.5517 92.5132 25.7624C92.6941 25.9708 92.9186 26.1129 93.1865 26.1907C93.4545 26.2663 93.7683 26.3053 94.1325 26.3053C94.4188 26.3053 94.7005 26.2801 94.9777 26.232C95.2548 26.1861 95.4976 26.1426 95.7083 26.1037C95.8435 26.4656 95.9374 26.8412 95.9947 27.2329C96.0519 27.6223 96.0817 27.9704 96.0817 28.2728C96.0817 28.4835 96.0771 28.6598 96.0679 28.8018C96.0565 28.9439 96.0428 29.0836 96.0244 29.2164C95.1449 29.4249 94.2379 29.5302 93.3011 29.5302C91.5626 29.5302 90.2342 29.1248 89.3157 28.3163C88.3995 27.5077 87.9414 26.1907 87.9414 24.3629V17.684ZM100.951 23.2223C101.027 24.3629 101.428 25.1921 102.154 25.7052C102.88 26.2182 103.837 26.4747 105.021 26.4747C105.672 26.4747 106.334 26.4129 107.014 26.2892C107.692 26.1655 108.336 25.9892 108.949 25.7624C109.158 26.1426 109.339 26.5984 109.492 27.1321C109.646 27.6635 109.731 28.2361 109.751 28.8454C108.26 29.4157 106.579 29.702 104.705 29.702C103.331 29.702 102.149 29.5096 101.167 29.1294C100.182 28.7492 99.38 28.2201 98.7569 27.5467C98.1362 26.871 97.6781 26.067 97.3827 25.1348C97.0849 24.2003 96.9383 23.1834 96.9383 22.0794C96.9383 20.996 97.0895 19.9767 97.3964 19.0262C97.701 18.0733 98.1568 17.2465 98.7569 16.5433C99.3593 15.8379 100.106 15.2813 100.995 14.8713C101.883 14.4636 102.919 14.2574 104.103 14.2574C105.136 14.2574 106.052 14.4384 106.856 14.8003C107.658 15.1622 108.343 15.6569 108.906 16.2845C109.469 16.9121 109.895 17.6611 110.182 18.5269C110.468 19.3927 110.61 20.3203 110.61 21.3098C110.61 21.6717 110.596 22.0267 110.569 22.3794C110.539 22.7321 110.505 23.0116 110.468 23.2223H100.951ZM106.769 20.3959C106.732 19.482 106.478 18.7445 106.011 18.1833C105.541 17.6221 104.888 17.3404 104.046 17.3404C103.09 17.3404 102.364 17.6084 101.867 18.1398C101.37 18.6734 101.075 19.4247 100.979 20.3959H106.769ZM112.165 14.601C112.452 14.5438 112.724 14.5002 112.983 14.4727C113.24 14.443 113.521 14.4292 113.828 14.4292C114.114 14.4292 114.396 14.4498 114.673 14.4865C114.95 14.5254 115.223 14.5735 115.491 14.6308C115.548 14.7247 115.601 14.8621 115.649 15.0431C115.695 15.224 115.738 15.4141 115.777 15.6157C115.816 15.815 115.848 16.0142 115.878 16.2135C115.906 16.4151 115.931 16.58 115.949 16.7128C116.371 16.1242 116.886 15.5951 117.497 15.1301C118.109 14.6629 118.874 14.4292 119.79 14.4292C119.983 14.4292 120.2 14.4384 120.45 14.459C120.697 14.4773 120.878 14.5048 120.995 14.5438C121.032 14.7339 121.061 14.9537 121.08 15.2011C121.1 15.4485 121.11 15.705 121.11 15.9707C121.11 16.296 121.093 16.6464 121.066 17.0266C121.036 17.4068 120.984 17.7687 120.908 18.1123C120.697 18.0733 120.464 18.055 120.205 18.055H119.733C119.408 18.055 119.046 18.0894 118.643 18.1558C118.242 18.2222 117.859 18.3963 117.497 18.6826C117.133 18.9689 116.833 19.3972 116.593 19.9676C116.355 20.5379 116.235 21.3372 116.235 22.3657V29.3882C115.892 29.4432 115.548 29.4821 115.205 29.5004C114.859 29.5211 114.524 29.5302 114.202 29.5302C113.876 29.5302 113.546 29.5211 113.212 29.5004C112.878 29.4821 112.529 29.4432 112.165 29.3882V14.601ZM123.017 14.601C123.283 14.5438 123.551 14.5002 123.819 14.4727C124.087 14.443 124.383 14.4292 124.708 14.4292C125.033 14.4292 125.319 14.443 125.569 14.4727C125.816 14.5002 126.075 14.5438 126.341 14.601C126.398 14.6972 126.451 14.8346 126.499 15.0156C126.547 15.1965 126.591 15.3866 126.63 15.5859C126.666 15.7852 126.701 15.9799 126.728 16.17C126.758 16.3601 126.781 16.5227 126.801 16.6556C126.952 16.3715 127.154 16.0852 127.404 15.7989C127.651 15.5149 127.947 15.2584 128.29 15.0293C128.636 14.8003 129.021 14.6148 129.451 14.4727C129.882 14.3307 130.365 14.2574 130.899 14.2574C133.212 14.2574 134.692 15.1347 135.342 16.8846C135.725 16.1814 136.265 15.5676 136.962 15.0431C137.66 14.5208 138.544 14.2574 139.614 14.2574C141.295 14.2574 142.532 14.7201 143.325 15.6432C144.119 16.5662 144.516 18.0069 144.516 19.9676V29.3584C143.829 29.473 143.148 29.5302 142.479 29.5302C141.811 29.5302 141.133 29.473 140.446 29.3584V21.0235C140.446 19.995 140.315 19.2071 140.058 18.6551C139.8 18.1031 139.28 17.826 138.496 17.826C138.171 17.826 137.85 17.8741 137.537 17.9703C137.221 18.0642 136.934 18.2406 136.675 18.4971C136.417 18.7536 136.208 19.1155 136.046 19.5828C135.883 20.0477 135.801 20.6524 135.801 21.3945V29.3584C135.113 29.473 134.435 29.5302 133.767 29.5302C133.098 29.5302 132.418 29.473 131.73 29.3584V21.0235C131.73 19.995 131.602 19.2071 131.343 18.6551C131.087 18.1031 130.565 17.826 129.781 17.826C129.458 17.826 129.133 17.8741 128.808 17.9703C128.482 18.0642 128.192 18.2497 127.933 18.5269C127.674 18.8017 127.47 19.1865 127.317 19.6812C127.163 20.176 127.088 20.8242 127.088 21.6236V29.3584C126.398 29.473 125.72 29.5302 125.051 29.5302C124.383 29.5302 123.705 29.473 123.017 29.3584V14.601ZM152.805 29.702C151.6 29.702 150.556 29.505 149.667 29.1156C148.778 28.7263 148.043 28.1834 147.459 27.4894C146.877 26.7931 146.437 25.98 146.142 25.0478C145.844 24.1156 145.695 23.1078 145.695 22.0221C145.695 20.9387 145.844 19.9195 146.142 18.9689C146.437 18.0161 146.877 17.1938 147.459 16.4998C148.043 15.8035 148.778 15.2584 149.667 14.8575C150.556 14.459 151.6 14.2574 152.805 14.2574C154.01 14.2574 155.061 14.459 155.959 14.8575C156.857 15.2584 157.601 15.8035 158.194 16.4998C158.788 17.1938 159.225 18.0161 159.514 18.9689C159.8 19.9195 159.942 20.9387 159.942 22.0221C159.942 23.1078 159.8 24.1156 159.514 25.0478C159.225 25.98 158.788 26.7931 158.194 27.4894C157.601 28.1834 156.857 28.7263 155.959 29.1156C155.061 29.505 154.01 29.702 152.805 29.702V29.702ZM152.805 26.619C153.875 26.619 154.644 26.2228 155.111 25.4326C155.581 24.6447 155.815 23.5063 155.815 22.0221C155.815 20.5379 155.581 19.4018 155.111 18.6116C154.644 17.8214 153.875 17.4274 152.805 17.4274C151.754 17.4274 150.995 17.8214 150.526 18.6116C150.059 19.4018 149.823 20.5379 149.823 22.0221C149.823 23.5063 150.059 24.6447 150.526 25.4326C150.995 26.2228 151.754 26.619 152.805 26.619ZM165.169 22.936C164.099 22.6314 163.263 22.1801 162.661 21.58C162.058 20.9799 161.758 20.0821 161.758 18.8819C161.758 17.4366 162.278 16.3051 163.32 15.4851C164.36 14.6674 165.78 14.2574 167.576 14.2574C168.323 14.2574 169.058 14.3262 169.784 14.459C170.51 14.5919 171.245 14.7911 171.99 15.0591C171.953 15.5516 171.857 16.0669 171.703 16.5983C171.552 17.132 171.369 17.5969 171.158 17.9978C170.7 17.8077 170.194 17.6405 169.64 17.4984C169.085 17.3564 168.504 17.2854 167.892 17.2854C167.242 17.2854 166.735 17.3839 166.371 17.5832C166.009 17.7847 165.828 18.1031 165.828 18.5406C165.828 18.9598 165.957 19.2529 166.216 19.4247C166.472 19.5965 166.841 19.7591 167.317 19.9103L168.953 20.3959C169.486 20.547 169.97 20.7326 170.4 20.9525C170.831 21.1723 171.197 21.4426 171.504 21.7656C171.809 22.0885 172.047 22.4893 172.219 22.9635C172.393 23.4399 172.478 24.0217 172.478 24.7065C172.478 25.4097 172.329 26.067 172.033 26.6763C171.738 27.2833 171.307 27.8124 170.744 28.259C170.18 28.7079 169.498 29.0584 168.694 29.3149C167.892 29.5714 166.983 29.702 165.97 29.702C165.512 29.702 165.093 29.686 164.711 29.6585C164.328 29.6287 163.959 29.5829 163.607 29.5165C163.254 29.4478 162.903 29.3676 162.56 29.2737C162.216 29.1775 161.843 29.0538 161.442 28.9026C161.481 28.3873 161.57 27.8696 161.715 27.3451C161.858 26.8219 162.045 26.3116 162.274 25.8197C162.903 26.067 163.501 26.2526 164.065 26.3763C164.628 26.4999 165.217 26.5618 165.828 26.5618C166.096 26.5618 166.387 26.5366 166.701 26.4908C167.017 26.4427 167.308 26.3556 167.576 26.232C167.844 26.1083 168.068 25.9479 168.249 25.7487C168.433 25.5471 168.522 25.286 168.522 24.963C168.522 24.505 168.385 24.1774 168.107 23.9781C167.83 23.7789 167.443 23.6025 166.946 23.4491L165.169 22.936ZM175.082 17.684H173.22L173.075 17.1136L178.437 10.2904H179.095V14.601H182.565C182.622 14.8873 182.661 15.1439 182.679 15.3706C182.698 15.5997 182.707 15.8379 182.707 16.0852C182.707 16.3509 182.698 16.6097 182.679 16.8571C182.661 17.1045 182.622 17.3793 182.565 17.684H179.095V23.4788C179.095 24.0675 179.145 24.5439 179.239 24.9058C179.335 25.2677 179.473 25.5517 179.656 25.7624C179.837 25.9708 180.061 26.1129 180.329 26.1907C180.595 26.2663 180.911 26.3053 181.275 26.3053C181.562 26.3053 181.843 26.2801 182.12 26.232C182.398 26.1861 182.64 26.1426 182.851 26.1037C182.984 26.4656 183.08 26.8412 183.137 27.2329C183.195 27.6223 183.224 27.9704 183.224 28.2728C183.224 28.4835 183.22 28.6598 183.208 28.8018C183.199 28.9439 183.186 29.0836 183.167 29.2164C182.288 29.4249 181.381 29.5302 180.444 29.5302C178.705 29.5302 177.377 29.1248 176.458 28.3163C175.542 27.5077 175.082 26.1907 175.082 24.3629V17.684ZM39.9563 10.0819C40.7855 9.96742 41.5825 9.91016 42.3476 9.91016C43.1561 9.91016 43.9532 9.96742 44.7388 10.0819L49.8625 20.673L55.142 10.0819C55.7834 9.96742 56.498 9.91016 57.2836 9.91016C58.0715 9.91016 58.8251 9.96742 59.5512 10.0819L60.6071 29.5279C59.8215 29.6447 59.0748 29.702 58.3716 29.702C57.6661 29.702 56.9744 29.6447 56.2919 29.5279L55.7307 15.4691L51.1979 25.1875C50.907 25.2242 50.6069 25.2585 50.2977 25.286C49.9862 25.3158 49.677 25.3295 49.3655 25.3295C49.0952 25.3295 48.8273 25.3204 48.5593 25.302C48.289 25.2814 48.0096 25.2448 47.7187 25.1875L43.4974 15.2675L43.0622 29.5279C42.4002 29.6447 41.7566 29.702 41.1359 29.702C40.474 29.702 39.7914 29.6447 39.0859 29.5279L39.9563 10.0819Z" fill="white"/>
</svg>
