<svg width="186" height="44" viewBox="0 0 186 44" fill="none" xmlns="http://www.w3.org/2000/svg">
<path d="M72.5996 31.3044H68.4986V20.6709C68.4986 19.4854 68.2083 18.5539 67.6276 17.8764C67.047 17.1748 66.2483 16.824 65.2325 16.824C64.0708 16.824 63.1636 17.2111 62.5103 17.9853C61.8813 18.7595 61.5671 19.8241 61.5671 21.179V31.3044H57.4297V13.5214H61.4944V15.0821C62.6073 13.7513 64.1435 13.0859 66.1034 13.0859C68.3049 13.0859 69.9625 13.8601 71.0754 15.4087C72.4543 13.8601 74.3051 13.0859 76.628 13.0859C78.9505 13.0859 80.7047 13.7635 81.8903 15.1183C83.0999 16.449 83.7049 18.3966 83.7049 20.9613V31.3044H79.5674V20.6709C79.5674 19.4854 79.2771 18.5539 78.6965 17.8764C78.1159 17.1748 77.3172 16.824 76.3014 16.824C75.1397 16.824 74.2324 17.2232 73.5796 18.0217C72.9263 18.7959 72.5996 19.8483 72.5996 21.179V31.3044Z" fill="white"/>
<path d="M103.831 22.1952L103.794 23.6468H91.6371C91.7337 24.9776 92.2053 26.0299 93.0523 26.8041C93.8993 27.5783 94.9878 27.9655 96.3183 27.9655C98.2299 27.9655 99.7541 27.1308 100.891 25.4614L103.686 28.0744C101.799 30.4938 99.3428 31.7035 96.3183 31.7035C93.6329 31.7035 91.4798 30.8568 89.8589 29.1632C88.2132 27.4453 87.3906 25.2316 87.3906 22.5218C87.3906 19.8846 88.141 17.6466 89.6408 15.8078C91.1651 13.9933 93.1852 13.0859 95.7014 13.0859C98.3873 13.0859 100.407 13.9812 101.762 15.7716C103.141 17.5619 103.831 19.7031 103.831 22.1952ZM95.7377 16.8603C94.6975 16.8603 93.8385 17.1869 93.1613 17.8402C92.508 18.4934 92.0723 19.3282 91.8547 20.3443H99.4394C99.4155 19.3524 99.0889 18.5297 98.46 17.8764C97.8306 17.199 96.9233 16.8603 95.7377 16.8603Z" fill="white"/>
<path d="M116.018 13.0814C118.001 13.0814 119.658 13.6621 120.989 14.8234V5.85938H125.126V31.2998H121.062V29.7029C119.804 31.0336 118.122 31.6989 116.018 31.6989C113.502 31.6989 111.421 30.8279 109.775 29.0859C108.154 27.3198 107.344 25.0939 107.344 22.4083C107.344 19.7227 108.154 17.4969 109.775 15.7307C111.396 13.9645 113.476 13.0814 116.018 13.0814ZM119.791 18.3437C118.945 17.2791 117.784 16.7468 116.307 16.7468C114.832 16.7468 113.671 17.2791 112.823 18.3437C111.978 19.4082 111.554 20.7631 111.554 22.4083C111.554 24.0535 111.978 25.4085 112.823 26.4729C113.671 27.5375 114.832 28.0698 116.307 28.0698C117.784 28.0698 118.945 27.5375 119.791 26.4729C120.638 25.4085 121.062 24.0535 121.062 22.4083C121.062 20.7631 120.638 19.4082 119.791 18.3437Z" fill="white"/>
<path d="M129.688 13.5195H133.824V24.153C133.824 25.3386 134.115 26.2822 134.695 26.9838C135.277 27.6612 136.099 27.9999 137.164 27.9999C138.3 27.9999 139.196 27.6007 139.85 26.8023C140.527 25.9797 140.865 24.8909 140.865 23.536V13.5195H145.003V31.3025H140.939V29.8508C139.801 31.0847 138.265 31.7016 136.329 31.7016C134.297 31.7016 132.676 31.0121 131.466 29.633C130.281 28.2297 129.688 26.3063 129.688 23.8626V13.5195Z" fill="white"/>
<path d="M157.262 24.5904L154.903 24.0098C151.298 23.1629 149.496 21.2879 149.496 18.3845C149.496 16.7877 150.1 15.5055 151.31 14.5377C152.52 13.5699 154.081 13.0859 155.991 13.0859C158.557 13.0859 160.794 14.0779 162.706 16.0619L160.057 18.8926C158.968 17.3926 157.577 16.6426 155.883 16.6426C155.157 16.6426 154.564 16.812 154.104 17.1507C153.669 17.4652 153.451 17.8522 153.451 18.3119C153.451 19.1346 154.032 19.6911 155.193 19.9814L157.988 20.6347C161.617 21.4572 163.432 23.3081 163.432 26.1873C163.432 27.8325 162.803 29.1632 161.544 30.1793C160.31 31.1955 158.592 31.7035 156.391 31.7035C153.293 31.7035 150.838 30.5543 149.023 28.2559L151.636 25.5703C152.943 27.2881 154.637 28.147 156.718 28.147C158.533 28.147 159.439 27.5421 159.439 26.3324C159.439 25.5582 158.713 24.9776 157.262 24.5904Z" fill="white"/>
<path d="M172.348 31.7035C170.63 31.7035 169.202 31.2197 168.066 30.2519C166.928 29.26 166.359 27.9413 166.359 26.2961C166.359 24.4089 167.037 22.9452 168.392 21.9048C169.747 20.8645 171.538 20.3443 173.763 20.3443C174.876 20.3443 176.073 20.55 177.356 20.9613V19.7637C177.356 18.8926 177.029 18.191 176.376 17.6587C175.723 17.1022 174.888 16.824 173.872 16.824C172.009 16.824 170.606 17.683 169.662 19.4007L166.868 16.7877C167.521 15.6022 168.477 14.6949 169.734 14.0658C171.017 13.4126 172.409 13.0859 173.908 13.0859C176.255 13.0859 178.106 13.6667 179.46 14.828C180.816 15.9893 181.493 17.6466 181.493 19.7999V31.3044H177.429V29.9253C176.098 31.1108 174.404 31.7035 172.348 31.7035ZM170.497 26.0058C170.497 26.6107 170.726 27.1066 171.186 27.4938C171.67 27.8808 172.336 28.0744 173.183 28.0744C174.925 28.0744 176.316 27.5663 177.356 26.5501V24.5178C176.049 24.0339 174.816 23.792 173.654 23.792C172.686 23.792 171.912 23.9855 171.332 24.3727C170.776 24.7598 170.497 25.3042 170.497 26.0058Z" fill="white"/>
<path d="M35.2513 7.0692L25.4191 1.39569C22.2021 -0.465229 18.26 -0.465229 15.043 1.39569L5.16536 7.0692C1.99365 8.93011 0 12.3796 0 16.0561V27.4484C0 31.1703 1.99365 34.5744 5.16536 36.4352L14.9977 42.1542C18.2148 44.0151 22.1566 44.0151 25.3737 42.1542L35.206 36.4352C38.4231 34.5744 40.3714 31.1703 40.3714 27.4484V16.0561C40.462 12.3796 38.4684 8.93011 35.2513 7.0692ZM20.2083 31.8965C14.6352 31.8965 10.1042 27.3577 10.1042 21.775C10.1042 16.1922 14.6352 11.6534 20.2083 11.6534C25.7815 11.6534 30.3578 16.1922 30.3578 21.775C30.3578 27.3577 25.8268 31.8965 20.2083 31.8965Z" fill="white"/>
</svg>
