<svg width="149" height="40" viewBox="0 0 149 40" fill="none" xmlns="http://www.w3.org/2000/svg">
<path d="M59.404 27.613H56.0485V18.9129C56.0485 17.943 55.811 17.1809 55.336 16.6265C54.8609 16.0525 54.2074 15.7655 53.3763 15.7655C52.4258 15.7655 51.6835 16.0821 51.149 16.7156C50.6344 17.349 50.3774 18.2201 50.3774 19.3286V27.613H46.9922V13.0634H50.3179V14.3402C51.2284 13.2514 52.4853 12.707 54.0889 12.707C55.8901 12.707 57.2463 13.3405 58.1569 14.6074C59.285 13.3405 60.7994 12.707 62.6999 12.707C64.6001 12.707 66.0354 13.2614 67.0054 14.3699C67.9951 15.4586 68.4901 17.0522 68.4901 19.1505V27.613H65.1049V18.9129C65.1049 17.943 64.8674 17.1809 64.3923 16.6265C63.9173 16.0525 63.2638 15.7655 62.4327 15.7655C61.4822 15.7655 60.7399 16.092 60.2058 16.7454C59.6712 17.3788 59.404 18.2398 59.404 19.3286V27.613Z" fill="white"/>
<path d="M84.9511 20.16L84.9213 21.3477H74.9744C75.0534 22.4365 75.4393 23.2976 76.1323 23.931C76.8253 24.5645 77.7159 24.8813 78.8045 24.8813C80.3685 24.8813 81.6156 24.1983 82.5461 22.8324L84.8325 24.9703C83.2884 26.9498 81.2791 27.9396 78.8045 27.9396C76.6073 27.9396 74.8457 27.2468 73.5195 25.8611C72.173 24.4556 71.5 22.6444 71.5 20.4273C71.5 18.2696 72.114 16.4385 73.3411 14.934C74.5882 13.4494 76.241 12.707 78.2997 12.707C80.4973 12.707 82.1501 13.4396 83.2587 14.9044C84.3868 16.3692 84.9511 18.1211 84.9511 20.16ZM78.3294 15.7952C77.4783 15.7952 76.7756 16.0624 76.2215 16.5969C75.687 17.1314 75.3305 17.8143 75.1524 18.6457H81.3581C81.3386 17.8341 81.0713 17.161 80.5567 16.6265C80.0418 16.0723 79.2995 15.7952 78.3294 15.7952Z" fill="white"/>
<path d="M94.9252 12.7058C96.5479 12.7058 97.9038 13.1809 98.9924 14.1311V6.79688H102.378V27.6118H99.0519V26.3052C98.0232 27.394 96.6469 27.9383 94.9252 27.9383C92.8666 27.9383 91.164 27.2257 89.8171 25.8004C88.4914 24.3554 87.8281 22.5342 87.8281 20.3369C87.8281 18.1396 88.4914 16.3185 89.8171 14.8734C91.1436 13.4283 92.8458 12.7058 94.9252 12.7058ZM98.0126 17.0113C97.3204 16.1403 96.3699 15.7048 95.1619 15.7048C93.9552 15.7048 93.0047 16.1403 92.3113 17.0113C91.6195 17.8823 91.2728 18.9909 91.2728 20.3369C91.2728 21.683 91.6195 22.7916 92.3113 23.6625C93.0047 24.5335 93.9552 24.969 95.1619 24.969C96.3699 24.969 97.3204 24.5335 98.0126 23.6625C98.7056 22.7916 99.0519 21.683 99.0519 20.3369C99.0519 18.9909 98.7056 17.8823 98.0126 17.0113Z" fill="white"/>
<path d="M106.102 13.0625H109.486V21.7626C109.486 22.7326 109.724 23.5047 110.199 24.0787C110.675 24.6329 111.347 24.9101 112.218 24.9101C113.149 24.9101 113.881 24.5835 114.416 23.9302C114.97 23.2572 115.247 22.3664 115.247 21.2578V13.0625H118.632V27.6122H115.307V26.4244C114.376 27.434 113.119 27.9388 111.535 27.9388C109.873 27.9388 108.547 27.3746 107.557 26.2462C106.587 25.0981 106.102 23.5244 106.102 21.525V13.0625Z" fill="white"/>
<path d="M128.67 22.1198L126.74 21.6447C123.79 20.9519 122.316 19.4177 122.316 17.0423C122.316 15.7357 122.811 14.6866 123.8 13.8948C124.79 13.103 126.067 12.707 127.631 12.707C129.73 12.707 131.56 13.5186 133.124 15.1419L130.957 17.458C130.066 16.2306 128.928 15.617 127.542 15.617C126.948 15.617 126.463 15.7556 126.087 16.0327C125.731 16.2901 125.552 16.6067 125.552 16.9829C125.552 17.6559 126.027 18.1112 126.978 18.3488L129.264 18.8833C132.234 19.5563 133.719 21.0706 133.719 23.4263C133.719 24.7724 133.204 25.8611 132.174 26.6925C131.164 27.524 129.759 27.9396 127.958 27.9396C125.423 27.9396 123.415 26.9993 121.93 25.1188L124.067 22.9215C125.136 24.327 126.522 25.0297 128.225 25.0297C129.71 25.0297 130.452 24.5348 130.452 23.545C130.452 22.9116 129.858 22.4365 128.67 22.1198Z" fill="white"/>
<path d="M141.009 27.9396C139.603 27.9396 138.435 27.5437 137.506 26.7519C136.575 25.9403 136.109 24.8615 136.109 23.5154C136.109 21.9713 136.663 20.7737 137.773 19.9224C138.881 19.0713 140.346 18.6457 142.167 18.6457C143.077 18.6457 144.057 18.814 145.107 19.1505V18.1706C145.107 17.458 144.839 16.8839 144.305 16.4484C143.77 15.9931 143.087 15.7655 142.256 15.7655C140.732 15.7655 139.584 16.4682 138.811 17.8736L136.526 15.7357C137.06 14.7658 137.842 14.0235 138.871 13.5087C139.92 12.9743 141.059 12.707 142.285 12.707C144.206 12.707 145.72 13.1822 146.828 14.1323C147.937 15.0825 148.491 16.4385 148.491 18.2003V27.613H145.166V26.4847C144.078 27.4546 142.692 27.9396 141.009 27.9396ZM139.495 23.2778C139.495 23.7727 139.682 24.1785 140.058 24.4953C140.455 24.8119 140.999 24.9703 141.692 24.9703C143.117 24.9703 144.256 24.5546 145.107 23.7232V22.0604C144.038 21.6645 143.028 21.4666 142.078 21.4666C141.286 21.4666 140.652 21.6249 140.178 21.9416C139.723 22.2584 139.495 22.7038 139.495 23.2778Z" fill="white"/>
<path d="M28.842 7.78389L20.7974 3.14193C18.1653 1.61936 14.94 1.61936 12.3079 3.14193L4.2262 7.78389C1.63117 9.30645 0 12.1288 0 15.1368V24.4578C0 27.503 1.63117 30.2881 4.2262 31.8106L12.2708 36.4898C14.903 38.0123 18.1282 38.0123 20.7603 36.4898L28.8049 31.8106C31.4371 30.2881 33.0311 27.503 33.0311 24.4578V15.1368C33.1053 12.1288 31.4741 9.30645 28.842 7.78389ZM16.5341 28.0971C11.9742 28.0971 8.26705 24.3836 8.26705 19.8159C8.26705 15.2481 11.9742 11.5346 16.5341 11.5346C21.094 11.5346 24.8382 15.2481 24.8382 19.8159C24.8382 24.3836 21.131 28.0971 16.5341 28.0971Z" fill="white"/>
</svg>
