<svg width="106" height="40" viewBox="0 0 106 40" fill="none" xmlns="http://www.w3.org/2000/svg">
<path d="M53.3931 26.2862V18.6619C53.3931 17.3461 53.0776 16.3457 52.4466 15.6608C51.8156 14.9759 50.8241 14.6334 49.472 14.6334C48.5526 14.6334 47.8225 14.7235 47.2816 14.9038C46.7408 15.066 46.3983 15.1832 46.2541 15.2553V26.2862H43.4688V13.4709C43.5409 13.4348 43.7392 13.3537 44.0637 13.2275C44.3882 13.1014 44.8208 12.9662 45.3617 12.822C45.9025 12.6778 46.5335 12.5516 47.2546 12.4435C47.9757 12.3353 48.7689 12.2812 49.6343 12.2812C50.6258 12.2812 51.5272 12.4164 52.3385 12.6868C53.1497 12.9391 53.8348 13.3086 54.3936 13.7953C54.9705 14.282 55.4122 14.8677 55.7187 15.5527C56.0252 16.2376 56.1784 17.0126 56.1784 17.8778V26.2862H53.3931Z" fill="white"/>
<path d="M74.2913 19.5C74.2913 20.5274 74.111 21.4827 73.7505 22.3659C73.408 23.2491 72.9212 24.0151 72.2902 24.664C71.6593 25.2948 70.9021 25.7995 70.0187 26.178C69.1354 26.5385 68.1618 26.7187 67.0982 26.7187C66.0346 26.7187 65.052 26.5385 64.1507 26.178C63.2673 25.7995 62.5101 25.2948 61.8791 24.664C61.2482 24.0151 60.7524 23.2491 60.3918 22.3659C60.0493 21.4827 59.878 20.5274 59.878 19.5C59.878 18.4726 60.0493 17.5173 60.3918 16.6341C60.7524 15.7509 61.2482 14.9939 61.8791 14.3631C62.5101 13.7142 63.2673 13.2095 64.1507 12.849C65.052 12.4705 66.0346 12.2812 67.0982 12.2812C68.1618 12.2812 69.1354 12.4705 70.0187 12.849C70.9021 13.2095 71.6593 13.7142 72.2902 14.3631C72.9212 14.9939 73.408 15.7509 73.7505 16.6341C74.111 17.5173 74.2913 18.4726 74.2913 19.5ZM71.3979 19.5C71.3979 18.779 71.2987 18.1211 71.1004 17.5263C70.9021 16.9135 70.6136 16.3908 70.2351 15.9582C69.8745 15.5076 69.4238 15.1651 68.883 14.9308C68.3602 14.6785 67.7652 14.5523 67.0982 14.5523C66.4131 14.5523 65.8002 14.6785 65.2594 14.9308C64.7366 15.1651 64.2859 15.5076 63.9073 15.9582C63.5467 16.3908 63.2673 16.9135 63.069 17.5263C62.8707 18.1211 62.7715 18.779 62.7715 19.5C62.7715 20.221 62.8707 20.8879 63.069 21.5007C63.2673 22.0955 63.5467 22.6182 63.9073 23.0688C64.2859 23.5014 64.7366 23.8439 65.2594 24.0962C65.8002 24.3305 66.4131 24.4477 67.0982 24.4477C67.7652 24.4477 68.3602 24.3305 68.883 24.0962C69.4238 23.8439 69.8745 23.5014 70.2351 23.0688C70.6136 22.6182 70.9021 22.0955 71.1004 21.5007C71.2987 20.8879 71.3979 20.221 71.3979 19.5Z" fill="white"/>
<path d="M90.4767 13.3086C90.3685 13.7052 90.1792 14.2369 89.9088 14.9038C89.6564 15.5527 89.359 16.2827 89.0164 17.0937C88.6739 17.9048 88.2953 18.761 87.8807 19.6622C87.4841 20.5454 87.0784 21.4106 86.6638 22.2577C86.2672 23.0868 85.8796 23.8709 85.501 24.6099C85.1404 25.3309 84.8249 25.9347 84.5545 26.4213H81.6611C81.3366 25.8446 80.994 25.2137 80.6335 24.5288C80.2909 23.8258 79.9394 23.1229 79.5788 22.4199C79.2363 21.699 78.9028 20.987 78.5783 20.2841C78.2538 19.5811 77.9473 18.9322 77.6589 18.3374C77.3884 17.7246 77.1451 17.1839 76.9287 16.7152C76.7304 16.2466 76.5772 15.8861 76.469 15.6338C76.3609 15.3814 76.2527 15.1111 76.1445 14.8227C76.0364 14.5343 75.9823 14.2639 75.9823 14.0116C75.9823 13.6871 76.0904 13.3897 76.3068 13.1194C76.5231 12.849 76.8927 12.7138 77.4155 12.7138C77.7761 12.7138 78.0555 12.7499 78.2538 12.822C78.4521 12.8941 78.5603 12.9391 78.5783 12.9572C78.8848 13.8043 79.2363 14.7326 79.6329 15.7419C80.0476 16.7513 80.4622 17.7516 80.8768 18.743C81.3095 19.7163 81.7242 20.6536 82.1208 21.5548C82.5174 22.438 82.8689 23.186 83.1754 23.7988C83.3917 23.3842 83.6712 22.7985 84.0137 22.0414C84.3742 21.2664 84.7438 20.4192 85.1224 19.5C85.519 18.5808 85.9156 17.6345 86.3122 16.6612C86.7089 15.6879 87.0604 14.7956 87.3669 13.9846C87.5111 13.588 87.6914 13.2816 87.9077 13.0653C88.124 12.831 88.4846 12.7138 88.9894 12.7138C89.422 12.7138 89.7646 12.7949 90.017 12.9572C90.2874 13.1194 90.4406 13.2365 90.4767 13.3086Z" fill="white"/>
<path d="M102.558 13.9846C102.558 13.552 102.685 13.2365 102.937 13.0383C103.189 12.822 103.55 12.7138 104.019 12.7138C104.325 12.7138 104.596 12.7499 104.83 12.822C105.082 12.8941 105.254 12.9482 105.344 12.9842V26.2862C105.218 26.3222 104.992 26.3583 104.668 26.3943C104.361 26.4304 103.983 26.4664 103.532 26.5025C103.081 26.5565 102.585 26.5926 102.045 26.6106C101.504 26.6467 100.954 26.6647 100.395 26.6647C98.7546 26.6647 97.4205 26.4664 96.3929 26.0699C95.3834 25.6733 94.5811 25.0966 93.9862 24.3395C93.2471 23.3842 92.8775 22.1135 92.8775 20.5274V13.9846C92.8775 13.552 93.0037 13.2365 93.2561 13.0383C93.5085 12.822 93.869 12.7138 94.3377 12.7138C94.6442 12.7138 94.9146 12.7499 95.149 12.822C95.4014 12.8941 95.5726 12.9482 95.6628 12.9842V20.23C95.6628 21.5998 96.0053 22.6272 96.6904 23.3121C97.3935 23.9971 98.5743 24.3395 100.233 24.3395C100.864 24.3395 101.369 24.3215 101.747 24.2855C102.144 24.2314 102.414 24.1863 102.558 24.1503V13.9846Z" fill="white"/>
<path fill-rule="evenodd" clip-rule="evenodd" d="M25.5662 16.2265C25.5662 17.1138 24.4891 17.5531 23.8686 16.9189L11.1655 3.9356C12.8832 3.32966 14.7312 3 16.6562 3C19.9382 3 22.9964 3.95821 25.5662 5.61013V16.2265ZM30.1862 10.0535V16.2265C30.1862 21.2541 24.0824 23.7435 20.5663 20.1499L6.90565 6.18788C2.81312 9.19057 0.15625 14.035 0.15625 19.5C0.15625 23.0135 1.25442 26.2705 3.12625 28.9465V22.8065C3.12625 17.7789 9.23014 15.2895 12.7462 18.8831L26.388 32.8259C30.4912 29.8243 33.1562 24.9734 33.1562 19.5C33.1562 15.9865 32.0581 12.7295 30.1862 10.0535ZM9.44388 22.1141L22.1229 35.0728C20.4121 35.6734 18.5723 36 16.6562 36C13.3743 36 10.3161 35.0418 7.74625 33.3899V22.8065C7.74625 21.9192 8.82341 21.4799 9.44388 22.1141Z" fill="white"/>
</svg>
