<svg width="106" height="33" viewBox="0 0 106 33" fill="none" xmlns="http://www.w3.org/2000/svg">
<path d="M53.3931 23.2862V15.6619C53.3931 14.3461 53.0776 13.3457 52.4466 12.6608C51.8156 11.9759 50.8241 11.6334 49.472 11.6334C48.5526 11.6334 47.8225 11.7235 47.2816 11.9038C46.7408 12.066 46.3983 12.1832 46.2541 12.2553V23.2862H43.4688V10.4709C43.5409 10.4348 43.7392 10.3537 44.0637 10.2275C44.3882 10.1014 44.8208 9.96617 45.3617 9.82198C45.9025 9.67778 46.5335 9.55161 47.2546 9.44347C47.9757 9.33532 48.7689 9.28125 49.6343 9.28125C50.6258 9.28125 51.5272 9.41643 52.3385 9.6868C53.1497 9.93914 53.8348 10.3086 54.3936 10.7953C54.9705 11.282 55.4122 11.8677 55.7187 12.5527C56.0252 13.2376 56.1784 14.0126 56.1784 14.8778V23.2862H53.3931Z" fill="white"/>
<path d="M74.2913 16.5C74.2913 17.5274 74.111 18.4827 73.7505 19.3659C73.408 20.2491 72.9212 21.0151 72.2902 21.664C71.6593 22.2948 70.9021 22.7995 70.0187 23.178C69.1354 23.5385 68.1618 23.7188 67.0982 23.7188C66.0346 23.7188 65.052 23.5385 64.1507 23.178C63.2673 22.7995 62.5101 22.2948 61.8791 21.664C61.2482 21.0151 60.7524 20.2491 60.3918 19.3659C60.0493 18.4827 59.878 17.5274 59.878 16.5C59.878 15.4726 60.0493 14.5173 60.3918 13.6341C60.7524 12.7509 61.2482 11.9939 61.8791 11.3631C62.5101 10.7142 63.2673 10.2095 64.1507 9.84902C65.052 9.47051 66.0346 9.28125 67.0982 9.28125C68.1618 9.28125 69.1354 9.47051 70.0187 9.84902C70.9021 10.2095 71.6593 10.7142 72.2902 11.3631C72.9212 11.9939 73.408 12.7509 73.7505 13.6341C74.111 14.5173 74.2913 15.4726 74.2913 16.5ZM71.3979 16.5C71.3979 15.779 71.2987 15.1211 71.1004 14.5263C70.9021 13.9135 70.6136 13.3908 70.2351 12.9582C69.8745 12.5076 69.4238 12.1651 68.883 11.9308C68.3602 11.6785 67.7652 11.5523 67.0982 11.5523C66.4131 11.5523 65.8002 11.6785 65.2594 11.9308C64.7366 12.1651 64.2859 12.5076 63.9073 12.9582C63.5467 13.3908 63.2673 13.9135 63.069 14.5263C62.8707 15.1211 62.7715 15.779 62.7715 16.5C62.7715 17.221 62.8707 17.8879 63.069 18.5007C63.2673 19.0955 63.5467 19.6182 63.9073 20.0688C64.2859 20.5014 64.7366 20.8439 65.2594 21.0962C65.8002 21.3305 66.4131 21.4477 67.0982 21.4477C67.7652 21.4477 68.3602 21.3305 68.883 21.0962C69.4238 20.8439 69.8745 20.5014 70.2351 20.0688C70.6136 19.6182 70.9021 19.0955 71.1004 18.5007C71.2987 17.8879 71.3979 17.221 71.3979 16.5Z" fill="white"/>
<path d="M90.4767 10.3086C90.3685 10.7052 90.1792 11.2369 89.9088 11.9038C89.6564 12.5527 89.359 13.2827 89.0164 14.0938C88.6739 14.9048 88.2953 15.761 87.8807 16.6622C87.4841 17.5454 87.0784 18.4106 86.6638 19.2577C86.2672 20.0868 85.8796 20.8709 85.501 21.6099C85.1404 22.3309 84.8249 22.9347 84.5545 23.4213H81.6611C81.3366 22.8446 80.994 22.2137 80.6335 21.5288C80.2909 20.8258 79.9394 20.1229 79.5788 19.4199C79.2363 18.699 78.9028 17.987 78.5783 17.2841C78.2538 16.5811 77.9473 15.9322 77.6589 15.3374C77.3885 14.7246 77.1451 14.1839 76.9287 13.7152C76.7304 13.2466 76.5772 12.8861 76.469 12.6338C76.3609 12.3814 76.2527 12.1111 76.1445 11.8227C76.0364 11.5343 75.9823 11.2639 75.9823 11.0116C75.9823 10.6871 76.0904 10.3897 76.3068 10.1194C76.5231 9.84902 76.8927 9.71383 77.4155 9.71383C77.7761 9.71383 78.0555 9.74988 78.2538 9.82198C78.4521 9.89408 78.5603 9.93914 78.5783 9.95716C78.8848 10.8043 79.2363 11.7326 79.6329 12.7419C80.0476 13.7513 80.4622 14.7516 80.8768 15.743C81.3095 16.7163 81.7242 17.6536 82.1208 18.5548C82.5174 19.438 82.8689 20.186 83.1754 20.7988C83.3917 20.3842 83.6712 19.7985 84.0137 19.0414C84.3742 18.2664 84.7438 17.4192 85.1224 16.5C85.519 15.5808 85.9156 14.6345 86.3122 13.6612C86.7089 12.6879 87.0604 11.7956 87.3669 10.9846C87.5111 10.588 87.6914 10.2816 87.9077 10.0653C88.124 9.83099 88.4846 9.71383 88.9894 9.71383C89.422 9.71383 89.7646 9.79494 90.017 9.95716C90.2874 10.1194 90.4406 10.2365 90.4767 10.3086Z" fill="white"/>
<path d="M102.558 10.9846C102.558 10.552 102.685 10.2365 102.937 10.0383C103.189 9.82198 103.55 9.71383 104.019 9.71383C104.325 9.71383 104.596 9.74988 104.83 9.82198C105.082 9.89408 105.254 9.94815 105.344 9.9842V23.2862C105.218 23.3222 104.992 23.3583 104.668 23.3943C104.361 23.4304 103.983 23.4664 103.532 23.5025C103.081 23.5565 102.585 23.5926 102.045 23.6106C101.504 23.6467 100.954 23.6647 100.395 23.6647C98.7546 23.6647 97.4205 23.4664 96.3929 23.0699C95.3834 22.6733 94.5811 22.0966 93.9862 21.3395C93.2471 20.3842 92.8775 19.1135 92.8775 17.5274V10.9846C92.8775 10.552 93.0037 10.2365 93.2561 10.0383C93.5085 9.82198 93.869 9.71383 94.3377 9.71383C94.6442 9.71383 94.9146 9.74988 95.149 9.82198C95.4014 9.89408 95.5726 9.94815 95.6628 9.9842V17.23C95.6628 18.5998 96.0053 19.6272 96.6904 20.3121C97.3935 20.9971 98.5743 21.3395 100.233 21.3395C100.864 21.3395 101.369 21.3215 101.747 21.2855C102.144 21.2314 102.414 21.1863 102.558 21.1503V10.9846Z" fill="white"/>
<path fill-rule="evenodd" clip-rule="evenodd" d="M25.5662 13.2265C25.5662 14.1138 24.4891 14.5531 23.8686 13.9189L11.1655 0.935603C12.8832 0.329659 14.7312 0 16.6562 0C19.9382 0 22.9964 0.95821 25.5662 2.61013V13.2265ZM30.1863 7.05351V13.2265C30.1863 18.2541 24.0824 20.7435 20.5663 17.1499L6.90565 3.18788C2.81312 6.19057 0.15625 11.035 0.15625 16.5C0.15625 20.0135 1.25442 23.2705 3.12625 25.9465V19.8065C3.12625 14.7789 9.23014 12.2895 12.7462 15.8831L26.388 29.8259C30.4912 26.8243 33.1562 21.9734 33.1562 16.5C33.1562 12.9865 32.0581 9.7295 30.1863 7.05351ZM9.44388 19.1141L22.1229 32.0728C20.4121 32.6734 18.5723 33 16.6562 33C13.3743 33 10.3161 32.0418 7.74625 30.3899V19.8065C7.74625 18.9192 8.82341 18.4799 9.44388 19.1141Z" fill="white"/>
</svg>
