<svg width="149" height="30" viewBox="0 0 149 30" fill="none" xmlns="http://www.w3.org/2000/svg">
<g clip-path="url(#clip0_276_514)">
<path d="M22.9287 0.630642V5.21197C22.9287 5.37205 22.7977 5.50283 22.6378 5.50283H14.3011V29.605C14.3011 29.7653 14.1701 29.8959 14.0102 29.8959H8.70445C8.54438 29.8959 8.41359 29.7651 8.41359 29.605V5.50283H0.0975C-0.0625781 5.50283 -0.193359 5.37205 -0.193359 5.21197V0.630642C-0.193359 0.470798 -0.0623437 0.339783 0.0975 0.339783H22.6378C22.7977 0.339783 22.9287 0.470798 22.9287 0.630642Z" fill="white"/>
<path d="M45.0448 13.354C44.4282 11.9112 43.5612 10.6371 42.4677 9.56367C41.3738 8.49023 40.0503 7.63242 38.5407 7.00992C37.0252 6.38742 35.3527 6.07031 33.5607 6.07031C31.7834 6.07031 30.1196 6.38742 28.6128 7.00992C27.1088 7.63242 25.7914 8.49047 24.6976 9.56367C23.6009 10.6371 22.737 11.9112 22.1293 13.354C21.5211 14.7968 21.2129 16.3587 21.2129 17.9932C21.2129 19.6313 21.5241 21.1929 22.1408 22.6357C22.7546 24.0785 23.6185 25.353 24.7065 26.426C25.7945 27.4992 27.1062 28.3547 28.6041 28.9685C30.1023 29.5849 31.763 29.8964 33.5405 29.8964C35.3438 29.8964 37.0252 29.5849 38.5379 28.9685C40.0505 28.3547 41.3769 27.4992 42.4763 26.426C43.5788 25.353 44.4486 24.0818 45.0566 22.6474C45.6645 21.2107 45.9758 19.6458 45.9758 17.9934C45.9758 16.3587 45.6615 14.7966 45.0448 13.354ZM33.6045 24.8405C32.6825 24.8405 31.8097 24.6689 31.0128 24.3314C30.2129 23.9944 29.506 23.517 28.9098 22.9146C28.3163 22.313 27.8394 21.5827 27.4932 20.7478C27.147 19.9158 26.9696 18.9823 26.9696 17.9728C26.9696 16.9809 27.1473 16.053 27.4932 15.2182C27.8394 14.3834 28.3163 13.6561 28.9098 13.054C29.506 12.4519 30.2129 11.9805 31.01 11.6489C31.8099 11.3175 32.6825 11.1488 33.6045 11.1488C34.5123 11.1488 35.379 11.3203 36.1845 11.6578C36.9931 11.9981 37.703 12.4695 38.2993 13.0657C38.8927 13.662 39.3697 14.3862 39.7159 15.2182C40.062 16.053 40.2366 16.9809 40.2366 17.9728C40.2366 18.9823 40.062 19.9188 39.7159 20.7595C39.3695 21.6002 38.8925 22.3331 38.2962 22.9352C37.7028 23.5373 36.9962 24.0087 36.1991 24.3401C35.3991 24.672 34.5266 24.8405 33.6045 24.8405Z" fill="white"/>
<path d="M72.9247 13.354C72.3109 11.9112 71.4442 10.6371 70.3473 9.56367C69.2537 8.49023 67.933 7.63242 66.4203 7.00992C64.9079 6.38742 63.2324 6.07031 61.4406 6.07031C59.6664 6.07031 57.9993 6.38742 56.4929 7.00992C54.9889 7.63242 53.6713 8.49047 52.5777 9.56367C51.4841 10.6369 50.6197 11.9112 50.0092 13.354C49.4012 14.7968 49.0928 16.3587 49.0928 17.9932C49.0928 19.6313 49.404 21.1929 50.0209 22.6357C50.6375 24.0785 51.5012 25.353 52.5864 26.426C53.6746 27.4992 54.9861 28.3547 56.484 28.9685C57.9824 29.5849 59.6432 29.8964 61.4207 29.8964C63.2237 29.8964 64.9051 29.5849 66.4178 28.9685C67.9332 28.3547 69.2568 27.4992 70.359 26.426C71.4615 25.353 72.3285 24.0818 72.9364 22.6474C73.547 21.2107 73.8557 19.6458 73.8557 17.9934C73.8557 16.3587 73.5414 14.7966 72.9247 13.354ZM61.4842 24.8405C60.5619 24.8405 59.6896 24.6689 58.8922 24.3314C58.0923 23.9944 57.3857 23.517 56.7894 22.9146C56.196 22.313 55.7188 21.5855 55.3726 20.7478C55.0262 19.913 54.8518 18.9792 54.8518 17.9728C54.8518 16.9809 55.0262 16.053 55.3726 15.2182C55.7188 14.3834 56.196 13.6561 56.7894 13.054C57.3857 12.4519 58.0923 11.9805 58.8894 11.6489C59.6893 11.3175 60.5619 11.1488 61.4839 11.1488C62.3914 11.1488 63.2614 11.3203 64.067 11.6578C64.8728 11.9981 65.5825 12.4695 66.1789 13.0657C66.7721 13.662 67.2493 14.3862 67.5955 15.2182C67.9419 16.053 68.1163 16.9809 68.1163 17.9728C68.1163 18.9823 67.9419 19.9188 67.5955 20.7595C67.2493 21.603 66.7721 22.3331 66.1759 22.9352C65.5825 23.5373 64.8758 24.0087 64.0787 24.3401C63.279 24.672 62.4064 24.8405 61.4842 24.8405Z" fill="white"/>
<path d="M83.9907 0.630642V29.6053C83.9907 29.7656 83.8597 29.8961 83.6999 29.8961H78.5223C78.362 29.8961 78.2314 29.7653 78.2314 29.6053V0.630642C78.2314 0.470798 78.3622 0.339783 78.5223 0.339783H83.6999C83.8597 0.339783 83.9907 0.470798 83.9907 0.630642Z" fill="white"/>
<path d="M101.369 0.630693V20.1051C101.369 21.6991 101.13 23.1183 100.656 24.323C100.179 25.5384 99.4835 26.5739 98.5903 27.4031C97.6976 28.2291 96.5925 28.8607 95.3095 29.2734C94.0411 29.6866 92.584 29.8959 90.9783 29.8959H87.6129C87.4528 29.8959 87.3223 29.7651 87.3223 29.6051V25.0235C87.3223 24.8637 87.453 24.7326 87.6129 24.7326H90.9783C92.6044 24.7326 93.7737 24.3314 94.4543 23.5373C95.1525 22.7287 95.5043 21.5679 95.5043 20.0817L95.5216 0.630459C95.5216 0.470615 95.6527 0.3396 95.8125 0.3396H101.077C101.238 0.3396 101.369 0.47085 101.369 0.630693Z" fill="white"/>
<path d="M129.089 13.354C128.472 11.9112 127.605 10.6371 126.509 9.56367C125.415 8.49023 124.095 7.63242 122.582 7.00992C121.069 6.38742 119.394 6.07031 117.602 6.07031C115.828 6.07031 114.164 6.38742 112.657 7.00992C111.15 7.63242 109.832 8.49047 108.739 9.56367C107.645 10.6369 106.781 11.9112 106.173 13.354C105.563 14.7968 105.254 16.3587 105.254 17.9932C105.254 19.6313 105.562 21.1903 106.173 22.6242C106.781 24.0612 107.645 25.3324 108.739 26.4056C109.832 27.4758 111.15 28.3371 112.657 28.9596C114.164 29.5819 115.828 29.8962 117.602 29.8962C119.077 29.8962 120.453 29.6866 121.689 29.2737C122.928 28.8635 124.048 28.2991 125.026 27.6073C126.003 26.9119 126.852 26.0974 127.55 25.1927C128.245 24.2855 128.784 23.3252 129.147 22.3334C129.179 22.2462 129.167 22.1473 129.112 22.0688C129.057 21.9902 128.97 21.9436 128.874 21.9436H123.271C123.164 21.9436 123.068 22.0017 123.015 22.095C122.532 22.965 121.817 23.6805 120.886 24.2187C119.958 24.7598 118.867 25.0331 117.646 25.0331C116.875 25.0331 116.113 24.8993 115.38 24.6347C114.646 24.3698 113.969 23.9918 113.364 23.5087C112.762 23.029 112.238 22.4355 111.81 21.7404C111.441 21.1439 111.167 20.4778 110.996 19.7566H129.598C129.743 19.7566 129.865 19.6488 129.886 19.5063C129.915 19.3059 129.941 19.0995 129.97 18.8866C130.002 18.657 130.016 18.3659 130.016 17.9934C130.017 16.3587 129.706 14.7966 129.089 13.354ZM117.646 10.8087C118.46 10.8087 119.219 10.9338 119.9 11.1839C120.584 11.434 121.203 11.786 121.744 12.2311C122.285 12.679 122.751 13.2173 123.129 13.8338C123.446 14.3487 123.699 14.91 123.885 15.5091H111.171C111.36 14.913 111.619 14.3515 111.947 13.8366C112.34 13.2202 112.823 12.6818 113.384 12.2367C113.946 11.7886 114.591 11.4368 115.304 11.1837C116.014 10.9336 116.802 10.8087 117.646 10.8087Z" fill="white"/>
<path d="M148.931 25.3467L148.887 29.6079C148.884 29.7682 148.756 29.8959 148.596 29.8959H144.399C143.206 29.8959 142.066 29.7708 141.01 29.5237C139.93 29.2734 138.977 28.8052 138.179 28.1332C137.383 27.4582 136.743 26.5273 136.277 25.3666C135.818 24.2149 135.585 22.7229 135.585 20.9337V12.2133H132.214C132.053 12.2133 131.923 12.0823 131.923 11.9224V7.91695C131.923 7.78593 132.01 7.67249 132.135 7.63757L135.489 6.70687L136.501 0.348274C136.525 0.208586 136.646 0.103821 136.789 0.103821H141.054C141.213 0.103821 141.344 0.234836 141.344 0.39468V7.15757H148.043C148.203 7.15757 148.334 7.28859 148.334 7.44843V11.9222C148.334 12.082 148.203 12.213 148.043 12.213H141.324V20.8898C141.324 21.7364 141.423 22.4377 141.615 22.9758C141.807 23.5078 142.06 23.9294 142.374 24.2294C142.685 24.529 143.057 24.7413 143.479 24.8604C143.916 24.9886 144.39 25.0523 144.89 25.0523H148.64C148.718 25.0523 148.791 25.0844 148.846 25.1395C148.901 25.1953 148.931 25.2682 148.931 25.3467Z" fill="white"/>
</g>
<defs>
<clipPath id="clip0_276_514">
<rect width="149" height="30" fill="white"/>
</clipPath>
</defs>
</svg>
