<svg width="105" height="40" viewBox="0 0 105 40" fill="none" xmlns="http://www.w3.org/2000/svg">
<g clip-path="url(#clip0_1386_3647)">
<path d="M16.4042 9.44188V12.6488C16.4042 12.7609 16.3125 12.8524 16.2006 12.8524H10.3649V29.7239C10.3649 29.8362 10.2732 29.9275 10.1613 29.9275H6.44722C6.33516 29.9275 6.24362 29.836 6.24362 29.7239V12.8524H0.422352C0.310297 12.8524 0.21875 12.7609 0.21875 12.6488V9.44188C0.21875 9.32999 0.310461 9.23828 0.422352 9.23828H16.2006C16.3125 9.23828 16.4042 9.32999 16.4042 9.44188Z" fill="white"/>
<path d="M31.8855 18.3486C31.4538 17.3386 30.847 16.4468 30.0815 15.6954C29.3158 14.9439 28.3893 14.3435 27.3326 13.9077C26.2718 13.472 25.101 13.25 23.8466 13.25C22.6025 13.25 21.4378 13.472 20.3831 13.9077C19.3303 14.3435 18.4081 14.9441 17.6424 15.6954C16.8748 16.4468 16.27 17.3386 15.8446 18.3486C15.4189 19.3585 15.2031 20.4519 15.2031 21.596C15.2031 22.7427 15.421 23.8358 15.8526 24.8458C16.2823 25.8557 16.8871 26.7479 17.6486 27.499C18.4102 28.2502 19.3285 28.8491 20.377 29.2787C21.4257 29.7102 22.5882 29.9283 23.8325 29.9283C25.0948 29.9283 26.2718 29.7102 27.3306 29.2787C28.3895 28.8491 29.3179 28.2502 30.0875 27.499C30.8593 26.7479 31.4681 25.858 31.8937 24.854C32.3193 23.8483 32.5371 22.7528 32.5371 21.5962C32.5371 20.4519 32.3171 19.3584 31.8855 18.3486ZM23.8773 26.3891C23.2319 26.3891 22.6209 26.269 22.0631 26.0328C21.5031 25.7968 21.0083 25.4626 20.5909 25.041C20.1755 24.6199 19.8417 24.1086 19.5993 23.5243C19.357 22.9418 19.2328 22.2884 19.2328 21.5818C19.2328 20.8874 19.3572 20.2379 19.5993 19.6535C19.8417 19.0691 20.1755 18.56 20.5909 18.1386C21.0083 17.7171 21.5031 17.3872 22.0611 17.155C22.621 16.923 23.2319 16.8049 23.8773 16.8049C24.5127 16.8049 25.1194 16.925 25.6833 17.1613C26.2493 17.3995 26.7462 17.7294 27.1636 18.1468C27.579 18.5641 27.9129 19.0711 28.1552 19.6535C28.3975 20.2379 28.5197 20.8874 28.5197 21.5818C28.5197 22.2884 28.3975 22.944 28.1552 23.5325C27.9127 24.1209 27.5789 24.634 27.1615 25.0554C26.7461 25.4769 26.2514 25.8069 25.6934 26.0388C25.1335 26.2711 24.5227 26.3891 23.8773 26.3891Z" fill="white"/>
<path d="M51.4011 18.3486C50.9714 17.3386 50.3647 16.4468 49.5969 15.6954C48.8314 14.9439 47.9069 14.3435 46.8481 13.9077C45.7894 13.472 44.6165 13.25 43.3622 13.25C42.1203 13.25 40.9533 13.472 39.8989 13.9077C38.8461 14.3435 37.9237 14.9441 37.1582 15.6954C36.3927 16.4466 35.7876 17.3386 35.3602 18.3486C34.9347 19.3585 34.7188 20.4519 34.7188 21.596C34.7188 22.7427 34.9366 23.8358 35.3684 24.8458C35.8001 25.8557 36.4047 26.7479 37.1643 27.499C37.926 28.2502 38.8441 28.8491 39.8926 29.2787C40.9415 29.7102 42.104 29.9283 43.3483 29.9283C44.6104 29.9283 45.7874 29.7102 46.8462 29.2787C47.9071 28.8491 48.8335 28.2502 49.6051 27.499C50.3769 26.7479 50.9837 25.858 51.4093 24.854C51.8367 23.8483 52.0528 22.7528 52.0528 21.5962C52.0528 20.4519 51.8328 19.3584 51.4011 18.3486ZM43.3927 26.3891C42.7471 26.3891 42.1365 26.269 41.5784 26.0328C41.0184 25.7968 40.5238 25.4626 40.1064 25.041C39.691 24.6199 39.357 24.1106 39.1146 23.5243C38.8722 22.9399 38.7501 22.2862 38.7501 21.5818C38.7501 20.8874 38.8722 20.2379 39.1146 19.6535C39.357 19.0691 39.691 18.56 40.1064 18.1386C40.5238 17.7171 41.0184 17.3872 41.5764 17.155C42.1363 16.923 42.7471 16.8049 43.3926 16.8049C44.0278 16.8049 44.6368 16.925 45.2007 17.1613C45.7648 17.3995 46.2615 17.7294 46.6791 18.1468C47.0943 18.5641 47.4283 19.0711 47.6707 19.6535C47.9131 20.2379 48.0352 20.8874 48.0352 21.5818C48.0352 22.2884 47.9131 22.944 47.6707 23.5325C47.4283 24.1229 47.0943 24.634 46.6769 25.0554C46.2615 25.4769 45.7669 25.8069 45.2089 26.0388C44.6491 26.2711 44.0383 26.3891 43.3927 26.3891Z" fill="white"/>
<path d="M59.1487 9.44188V29.7241C59.1487 29.8363 59.057 29.9277 58.9451 29.9277H55.3208C55.2086 29.9277 55.1172 29.8362 55.1172 29.7241V9.44188C55.1172 9.32999 55.2087 9.23828 55.3208 9.23828H58.9451C59.057 9.23828 59.1487 9.32999 59.1487 9.44188Z" fill="white"/>
<path d="M71.309 9.44205V23.0742C71.309 24.19 71.142 25.1834 70.8101 26.0266C70.476 26.8775 69.9894 27.6023 69.3642 28.1827C68.7393 28.7609 67.9657 29.203 67.0676 29.492C66.1797 29.7812 65.1598 29.9277 64.0358 29.9277H61.68C61.5679 29.9277 61.4766 29.8362 61.4766 29.7241V26.517C61.4766 26.4051 61.5681 26.3134 61.68 26.3134H64.0358C65.174 26.3134 65.9925 26.0325 66.469 25.4767C66.9577 24.9107 67.204 24.0981 67.204 23.0578L67.2161 9.44188C67.2161 9.32999 67.3078 9.23828 67.4197 9.23828H71.1052C71.2174 9.23828 71.309 9.33016 71.309 9.44205Z" fill="white"/>
<path d="M90.7157 18.3486C90.2841 17.3386 89.6772 16.4468 88.9097 15.6954C88.1442 14.9439 87.2197 14.3435 86.1609 13.9077C85.102 13.472 83.9291 13.25 82.6749 13.25C81.4331 13.25 80.2681 13.472 79.2133 13.9077C78.1587 14.3435 77.2362 14.9441 76.4707 15.6954C75.7052 16.4466 75.1001 17.3386 74.6749 18.3486C74.2473 19.3585 74.0312 20.4519 74.0312 21.596C74.0312 22.7427 74.2472 23.834 74.6749 24.8377C75.1003 25.8436 75.7052 26.7335 76.4707 27.4847C77.2362 28.2338 78.1587 28.8368 79.2133 29.2725C80.2681 29.7081 81.4329 29.9281 82.6749 29.9281C83.7073 29.9281 84.6704 29.7814 85.5358 29.4924C86.4032 29.2052 87.1871 28.8102 87.8714 28.3259C88.5554 27.8391 89.1499 27.269 89.6387 26.6357C90.1251 26.0006 90.502 25.3284 90.7564 24.6341C90.7788 24.5731 90.7705 24.5039 90.732 24.4489C90.6933 24.3939 90.6322 24.3613 90.565 24.3613H86.6434C86.5681 24.3613 86.5008 24.402 86.4642 24.4673C86.1261 25.0763 85.6254 25.5772 84.9737 25.9539C84.324 26.3327 83.5605 26.524 82.7054 26.524C82.1658 26.524 81.6323 26.4303 81.1192 26.2451C80.6061 26.0597 80.1316 25.795 79.708 25.4569C79.2867 25.1211 78.92 24.7057 78.6207 24.2191C78.3623 23.8015 78.1707 23.3353 78.0506 22.8304H91.0719C91.1736 22.8304 91.2593 22.755 91.2736 22.6552C91.2939 22.5149 91.3121 22.3704 91.3326 22.2214C91.3549 22.0606 91.3649 21.8569 91.3649 21.5962C91.3653 20.4519 91.1476 19.3584 90.7157 18.3486ZM82.7056 16.5669C83.2758 16.5669 83.8071 16.6545 84.2837 16.8295C84.7621 17.0046 85.1959 17.251 85.5745 17.5625C85.9532 17.8761 86.279 18.2529 86.5436 18.6844C86.7656 19.0449 86.9428 19.4378 87.0731 19.8571H78.173C78.3054 19.4399 78.4865 19.0468 78.7165 18.6864C78.9915 18.2549 79.3295 17.878 79.7226 17.5665C80.1155 17.2528 80.5675 17.0065 81.0663 16.8294C81.5632 16.6543 82.1149 16.5669 82.7056 16.5669Z" fill="white"/>
<path d="M104.608 26.7442L104.578 29.7271C104.576 29.8393 104.486 29.9287 104.374 29.9287H101.436C100.601 29.9287 99.8031 29.8411 99.0638 29.6682C98.3085 29.4929 97.6407 29.1651 97.0828 28.6948C96.525 28.2223 96.0769 27.5706 95.7512 26.7582C95.4295 25.952 95.2666 24.9076 95.2666 23.6551V17.5508H92.9067C92.7945 17.5508 92.7031 17.4591 92.7031 17.3472V14.5434C92.7031 14.4517 92.7642 14.3723 92.8516 14.3478L95.1995 13.6964L95.9079 9.24534C95.9243 9.14755 96.0096 9.07422 96.1096 9.07422H99.0947C99.2066 9.07422 99.2981 9.16593 99.2981 9.27782V14.0118H103.987C104.1 14.0118 104.191 14.1036 104.191 14.2154V17.3471C104.191 17.459 104.099 17.5507 103.987 17.5507H99.2838V23.6244C99.2838 24.217 99.3531 24.7079 99.4874 25.0846C99.6218 25.457 99.799 25.7522 100.019 25.9622C100.237 26.1718 100.497 26.3205 100.793 26.4038C101.098 26.4936 101.43 26.5382 101.78 26.5382H104.405C104.46 26.5382 104.511 26.5607 104.549 26.5992C104.588 26.6383 104.608 26.6893 104.608 26.7442Z" fill="white"/>
</g>
<defs>
<clipPath id="clip0_1386_3647">
<rect width="105" height="21" fill="white" transform="translate(0 9)"/>
</clipPath>
</defs>
</svg>
