<svg width="130" height="40" viewBox="0 0 130 40" fill="none" xmlns="http://www.w3.org/2000/svg">
<g clip-path="url(#clip0_1386_3647)">
<path d="M65.0467 12.3235C60.0627 12.3235 56.4691 15.5751 56.4691 20.4525C56.4691 25.3299 60.5097 28.5815 65.4983 28.5815C68.5092 28.5815 71.1638 27.3893 72.807 25.3796L69.3534 23.3835C68.4416 24.3815 67.0556 24.9641 65.4983 24.9641C63.3357 24.9641 61.4984 23.8351 60.8166 22.0286H73.4663C73.5654 21.5228 73.6243 20.9989 73.6243 20.448C73.6243 15.5751 70.0353 12.3235 65.0467 12.3235ZM60.7804 18.8718C61.3447 17.0699 62.8887 15.9364 65.0467 15.9364C67.209 15.9364 68.753 17.0699 69.313 18.8718H60.7804ZM59.7602 7.35572L47.2506 29.0331L34.7367 7.35572H39.4271L47.2463 20.9041L55.0652 7.35572H59.7602ZM17.4778 5.09766L34.1588 34.0009H0.796875L17.4778 5.09766ZM91.7723 20.4525C91.7723 23.1622 93.542 24.9686 96.2868 24.9686C98.1469 24.9686 99.5418 24.1241 100.26 22.7467L103.727 24.7473C102.291 27.1409 99.6005 28.5815 96.2868 28.5815C91.2982 28.5815 87.7095 25.3299 87.7095 20.4525C87.7095 15.5751 91.3028 12.3235 96.2868 12.3235C99.6005 12.3235 102.287 13.7641 103.727 16.1576L100.26 18.1583C99.5418 16.7809 98.1469 15.9364 96.2868 15.9364C93.5466 15.9364 91.7723 17.7428 91.7723 20.4525ZM129.008 7.35572V28.1299H124.945V7.35572H129.008ZM113.658 12.3235C108.674 12.3235 105.081 15.5751 105.081 20.4525C105.081 25.3299 109.126 28.5815 114.11 28.5815C117.121 28.5815 119.776 27.3893 121.419 25.3796L117.965 23.3835C117.053 24.3815 115.667 24.9641 114.11 24.9641C111.947 24.9641 110.11 23.8351 109.428 22.0286H122.078C122.177 21.5228 122.236 20.9989 122.236 20.448C122.236 15.5751 118.647 12.3235 113.658 12.3235ZM109.392 18.8718C109.957 17.0699 111.496 15.9364 113.658 15.9364C115.821 15.9364 117.365 17.0699 117.925 18.8718H109.392ZM86.355 12.7751V17.1512C85.9037 17.0202 85.4249 16.9299 84.9104 16.9299C82.2875 16.9299 80.3959 18.7364 80.3959 21.446V28.1299H76.333V12.7751H80.3959V16.9299C80.3959 14.6357 83.0638 12.7751 86.355 12.7751Z" fill="white"/>
</g>
<defs>
<clipPath id="clip0_1386_3647">
<rect width="130" height="29" fill="white" transform="translate(0 5)"/>
</clipPath>
</defs>
</svg>
