<svg width="179" height="40" viewBox="0 0 179 40" fill="none" xmlns="http://www.w3.org/2000/svg">
<path d="M88.9172 10C82.0197 10 77.0464 14.5 77.0464 21.25C77.0464 28 82.6383 32.5 89.5422 32.5C93.709 32.5 97.3829 30.85 99.6568 28.0688L94.8774 25.3062C93.6155 26.6875 91.6974 27.4938 89.5422 27.4938C86.5493 27.4938 84.0066 25.9312 83.063 23.4312H100.569C100.706 22.7312 100.788 22.0062 100.788 21.2438C100.788 14.5 95.821 10 88.9172 10ZM83.013 19.0625C83.7939 16.5688 85.9307 15 88.9172 15C91.9097 15 94.0465 16.5688 94.8214 19.0625H83.013ZM81.6011 3.125L64.2887 33.125L46.9703 3.125H53.4615L64.2827 21.875L75.1035 3.125H81.6011ZM23.0852 0L46.1706 40H0L23.0852 0ZM125.904 21.25C125.904 25 128.353 27.5 132.151 27.5C134.725 27.5 136.656 26.3312 137.649 24.425L142.447 27.1938C140.461 30.5062 136.737 32.5 132.151 32.5C125.247 32.5 120.281 28 120.281 21.25C120.281 14.5 125.254 10 132.151 10C136.737 10 140.455 11.9938 142.447 15.3062L137.649 18.075C136.656 16.1688 134.725 15 132.151 15C128.359 15 125.904 17.5 125.904 21.25ZM177.435 3.125V31.875H171.812V3.125H177.435ZM156.192 10C149.295 10 144.322 14.5 144.322 21.25C144.322 28 149.92 32.5 156.817 32.5C160.984 32.5 164.658 30.85 166.932 28.0688L162.153 25.3062C160.891 26.6875 158.973 27.4938 156.817 27.4938C153.824 27.4938 151.282 25.9312 150.338 23.4312H167.844C167.982 22.7312 168.063 22.0062 168.063 21.2438C168.063 14.5 163.096 10 156.192 10ZM150.288 19.0625C151.069 16.5688 153.2 15 156.192 15C159.185 15 161.322 16.5688 162.097 19.0625H150.288ZM118.406 10.625V16.6812C117.782 16.5 117.119 16.375 116.407 16.375C112.777 16.375 110.159 18.875 110.159 22.625V31.875H104.537V10.625H110.159V16.375C110.159 13.2 113.852 10.625 118.406 10.625Z" fill="white"/>
</svg>
