<svg width="39" height="38" viewBox="0 0 39 38" fill="none" xmlns="http://www.w3.org/2000/svg">
<g filter="url(#filter0_dd_47_751)">
<path fill-rule="evenodd" clip-rule="evenodd" d="M3.2582 25.584C0.394659 28.048 0.230684 32.4268 2.90192 35.098C5.57316 37.7693 9.95193 37.6053 12.4159 34.7417L19.3987 26.6267L26.3814 34.7417C28.8454 37.6053 33.2242 37.7693 35.8954 35.098C38.5666 32.4268 38.4027 28.048 35.5391 25.584L26.7806 18.0476L36.0872 7.23186C37.3745 5.73581 37.2908 3.50032 35.8952 2.10473C34.4996 0.709151 32.2641 0.625435 30.7681 1.91273L19.3987 11.6957L8.02924 1.91273C6.53319 0.625435 4.2977 0.709151 2.90212 2.10473C1.50653 3.50032 1.42282 5.73581 2.71012 7.23186L12.0167 18.0476L3.2582 25.584Z" fill="white"/>
</g>
<defs>
<filter id="filter0_dd_47_751" x="0" y="-1.90735e-06" width="38.7974" height="38" filterUnits="userSpaceOnUse" color-interpolation-filters="sRGB">
<feFlood flood-opacity="0" result="BackgroundImageFix"/>
<feColorMatrix in="SourceAlpha" type="matrix" values="0 0 0 0 0 0 0 0 0 0 0 0 0 0 0 0 0 0 127 0" result="hardAlpha"/>
<feOffset dx="1" dy="1"/>
<feComposite in2="hardAlpha" operator="out"/>
<feColorMatrix type="matrix" values="0 0 0 0 0.666667 0 0 0 0 0 0 0 0 0 1 0 0 0 1 0"/>
<feBlend mode="normal" in2="BackgroundImageFix" result="effect1_dropShadow_47_751"/>
<feColorMatrix in="SourceAlpha" type="matrix" values="0 0 0 0 0 0 0 0 0 0 0 0 0 0 0 0 0 0 127 0" result="hardAlpha"/>
<feOffset dx="-1" dy="-1"/>
<feComposite in2="hardAlpha" operator="out"/>
<feColorMatrix type="matrix" values="0 0 0 0 0 0 0 0 0 1 0 0 0 0 1 0 0 0 1 0"/>
<feBlend mode="normal" in2="effect1_dropShadow_47_751" result="effect2_dropShadow_47_751"/>
<feBlend mode="normal" in="SourceGraphic" in2="effect2_dropShadow_47_751" result="shape"/>
</filter>
</defs>
</svg>
