<svg width="39" height="38" viewBox="0 0 39 38" fill="none" xmlns="http://www.w3.org/2000/svg">
<path fill-rule="evenodd" clip-rule="evenodd" d="M4.25826 26.584C1.39472 29.048 1.23075 33.4268 3.90199 36.098C6.57322 38.7693 10.952 38.6053 13.416 35.7418L20.3987 27.6267L27.3815 35.7418C29.8455 38.6053 34.2242 38.7693 36.8955 36.098C39.5667 33.4268 39.4027 29.048 36.5392 26.584L27.7807 19.0476L37.0873 8.23186C38.3746 6.73582 38.2909 4.50032 36.8953 3.10474C35.4997 1.70915 33.2642 1.62544 31.7681 2.91274L20.3987 12.6957L9.02931 2.91274C7.53326 1.62544 5.29776 1.70915 3.90218 3.10474C2.5066 4.50032 2.42288 6.73582 3.71018 8.23186L13.0168 19.0476L4.25826 26.584Z" fill="#AA00FF"/>
<path fill-rule="evenodd" clip-rule="evenodd" d="M2.25826 24.584C-0.605277 27.048 -0.769251 31.4268 1.90199 34.098C4.57322 36.7693 8.95199 36.6053 11.416 33.7418L18.3987 25.6267L25.3815 33.7418C27.8455 36.6053 32.2242 36.7693 34.8955 34.098C37.5667 31.4268 37.4027 27.048 34.5392 24.584L25.7807 17.0476L35.0873 6.23186C36.3746 4.73582 36.2909 2.50032 34.8953 1.10474C33.4997 -0.290847 31.2642 -0.374563 29.7681 0.912736L18.3987 10.6957L7.02931 0.912736C5.53326 -0.374563 3.29776 -0.290847 1.90218 1.10474C0.506597 2.50032 0.422884 4.73582 1.71018 6.23186L11.0168 17.0476L2.25826 24.584Z" fill="#00EAFF"/>
<path fill-rule="evenodd" clip-rule="evenodd" d="M3.25826 25.584C0.394723 28.048 0.230749 32.4268 2.90199 35.098C5.57322 37.7693 9.95199 37.6053 12.416 34.7418L19.3987 26.6267L26.3815 34.7418C28.8455 37.6053 33.2242 37.7693 35.8955 35.098C38.5667 32.4268 38.4027 28.048 35.5392 25.584L26.7807 18.0476L36.0873 7.23186C37.3746 5.73582 37.2909 3.50032 35.8953 2.10474C34.4997 0.709153 32.2642 0.625437 30.7681 1.91274L19.3987 11.6957L8.02931 1.91274C6.53326 0.625437 4.29776 0.709153 2.90218 2.10474C1.5066 3.50032 1.42288 5.73582 2.71018 7.23186L12.0168 18.0476L3.25826 25.584Z" fill="white"/>
</svg>
