<svg width="34" height="26" viewBox="0 0 34 26" fill="none" xmlns="http://www.w3.org/2000/svg">
<path d="M28.8263 2.19589C32.6662 7.86198 34.5625 14.2532 33.8536 21.6109C33.8506 21.642 33.8345 21.6706 33.809 21.6894C30.9011 23.8323 28.0838 25.1328 25.306 25.9953C25.2844 26.0018 25.2613 26.0015 25.2398 25.9942C25.2184 25.9869 25.1998 25.9731 25.1866 25.9547C24.5449 25.0586 23.9618 24.1138 23.4509 23.1217C23.4216 23.0633 23.4484 22.9929 23.5087 22.9698C24.4348 22.6197 25.3154 22.1999 26.1624 21.703C26.2291 21.6638 26.2334 21.5678 26.1718 21.5218C25.992 21.3878 25.8139 21.2471 25.6435 21.1063C25.6116 21.0803 25.5687 21.0752 25.5326 21.0927C20.0335 23.6412 14.0096 23.6412 8.44546 21.0927C8.40934 21.0765 8.36641 21.082 8.33539 21.1076C8.16539 21.2483 7.98689 21.3878 7.80881 21.5218C7.74719 21.5678 7.75229 21.6638 7.81944 21.703C8.66646 22.1906 9.54706 22.6197 10.4719 22.9716C10.5318 22.9946 10.5603 23.0633 10.5305 23.1217C10.0307 24.1151 9.44761 25.0599 8.79396 25.956C8.76548 25.9923 8.71873 26.0089 8.67453 25.9953C5.90991 25.1328 3.09259 23.8323 0.184748 21.6894C0.160523 21.6706 0.143098 21.6408 0.140548 21.6096C-0.451901 15.2453 0.755522 8.80121 5.16319 2.19461C5.17381 2.17713 5.18996 2.16348 5.20866 2.15537C7.37744 1.15643 9.70091 0.421508 12.1294 0.00179807C12.1736 -0.00502649 12.2178 0.0154472 12.2407 0.0546884C12.5408 0.587857 12.8837 1.27159 13.1158 1.83035C15.6755 1.43794 18.2753 1.43794 20.8886 1.83035C21.1206 1.28354 21.4517 0.587857 21.7505 0.0546884C21.7611 0.0352212 21.7776 0.0196252 21.7976 0.0101269C21.8176 0.000628592 21.8401 -0.00228641 21.8618 0.00179807C24.2916 0.422788 26.615 1.15771 28.7821 2.15537C28.8012 2.16348 28.817 2.17713 28.8263 2.19589ZM14.4171 14.2967C14.4439 12.4152 13.0771 10.8584 11.3614 10.8584C9.65968 10.8584 8.30606 12.4016 8.30606 14.2967C8.30606 16.1914 9.68646 17.7346 11.3614 17.7346C13.0635 17.7346 14.4171 16.1914 14.4171 14.2967ZM25.7145 14.2967C25.7412 12.4152 24.3744 10.8584 22.6591 10.8584C20.957 10.8584 19.6034 12.4016 19.6034 14.2967C19.6034 16.1914 20.9838 17.7346 22.6591 17.7346C24.3744 17.7346 25.7145 16.1914 25.7145 14.2967Z" fill="white"/>
</svg>
