<svg width="26" height="26" viewBox="0 0 26 26" fill="none" xmlns="http://www.w3.org/2000/svg">
<path fill-rule="evenodd" clip-rule="evenodd" d="M13 0.324219C5.85 0.324219 0 6.17422 0 13.3242C0 19.093 3.7375 23.968 8.85625 25.6742C9.50625 25.7555 9.75 25.4305 9.75 25.0242C9.75 24.6992 9.75 23.8867 9.75 22.8305C6.09375 23.643 5.3625 21.1242 5.3625 21.1242C4.79375 19.6617 3.9 19.2555 3.9 19.2555C2.68125 18.443 3.98125 18.443 3.98125 18.443C5.28125 18.5242 6.0125 19.743 6.0125 19.743C7.15 21.693 9.01875 21.1242 9.83125 20.7992C9.9125 19.9867 10.3188 19.418 10.6438 19.093C7.71875 18.768 4.7125 17.6305 4.7125 12.6742C4.7125 11.293 5.2 10.0742 6.0125 9.18047C5.85 8.85547 5.44375 7.55547 6.175 5.76797C6.175 5.76797 7.23125 5.44297 9.75 7.06797C10.8062 6.74297 11.8625 6.66172 13 6.66172C14.1375 6.66172 15.1938 6.82422 16.25 7.06797C18.7687 5.36172 19.825 5.68672 19.825 5.68672C20.5562 7.47422 20.0688 8.77422 19.9875 9.09922C20.8 9.99297 21.2875 11.1305 21.2875 12.593C21.2875 17.5492 18.2812 18.6867 15.3562 19.0117C15.8438 19.418 16.25 20.2305 16.25 21.4492C16.25 23.1555 16.25 24.618 16.25 25.0242C16.25 25.3492 16.4937 25.7555 17.1438 25.6742C22.2625 23.968 26 19.093 26 13.3242C26 6.17422 20.15 0.324219 13 0.324219Z" fill="currentColor"/>
</svg>
