<svg width="27" height="29" viewBox="0 0 27 29" fill="none" xmlns="http://www.w3.org/2000/svg">
<path d="M21.1559 23.4077C20.518 21.2089 20.4791 18.8795 21.0433 16.6606L22.0755 12.8085C22.6247 10.7591 22.3372 8.57546 21.2763 6.73798C20.2154 4.90051 18.4681 3.55972 16.4187 3.01058C14.3692 2.46143 12.1856 2.74891 10.3481 3.80978C8.51063 4.87065 7.16984 6.618 6.6207 8.66743L5.59008 12.5137C4.96971 14.7197 3.77079 16.7196 2.11752 18.3064C1.98957 18.4291 1.89654 18.5836 1.84796 18.7541C1.79938 18.9246 1.797 19.1049 1.84106 19.2766C1.88511 19.4483 1.97403 19.6053 2.09869 19.7313C2.22335 19.8573 2.37928 19.948 2.5505 19.9939L19.9372 24.6527C20.1084 24.6985 20.2888 24.698 20.4598 24.6511C20.6307 24.6043 20.7862 24.5129 20.9102 24.3862C21.0342 24.2595 21.1223 24.1021 21.1655 23.9302C21.2087 23.7583 21.2054 23.5779 21.1559 23.4077Z" fill="white"/>
<path d="M11.2257 26.2786C11.6692 26.2428 12.0992 26.1089 12.4845 25.8864C12.8698 25.6639 13.2008 25.3586 13.4536 24.9924L7.99414 23.5295C8.02582 23.9222 8.13453 24.3049 8.31408 24.6555C8.49363 25.0062 8.74049 25.3181 9.04058 25.5734C9.34066 25.8287 9.68809 26.0223 10.063 26.1433C10.4379 26.2643 10.833 26.3103 11.2257 26.2786Z" fill="white"/>
</svg>
