<svg xmlns="http://www.w3.org/2000/svg" width="22" height="22" fill="none" viewBox="0 0 22 22"><path fill="currentColor" d="M13.267 2.333 9.084 6.506a4.54 4.54 0 0 0-1.242 4.145 4.538 4.538 0 0 0 2.802 3.302l.374-.373c.33-.33.517-.775.523-1.24a2.736 2.736 0 0 1-1.882-1.942 2.722 2.722 0 0 1 .714-2.606l4.184-4.173a2.739 2.739 0 0 1 3.852.016 2.725 2.725 0 0 1 .016 3.843l-3.419 3.41c.212.792.243 1.621.091 2.427.154-.117.3-.243.437-.378l4.183-4.173a4.542 4.542 0 0 0-.001-6.433 4.565 4.565 0 0 0-6.449.002Z"/><path fill="currentColor" d="m8.768 19.682 4.184-4.172a4.54 4.54 0 0 0 1.241-4.145 4.539 4.539 0 0 0-2.802-3.303l-.374.373a1.79 1.79 0 0 0-.523 1.241 2.736 2.736 0 0 1 1.883 1.942 2.72 2.72 0 0 1-.715 2.605l-4.184 4.173a2.739 2.739 0 0 1-3.852-.015 2.725 2.725 0 0 1-.016-3.843l3.42-3.41A5.475 5.475 0 0 1 6.937 8.7c-.153.116-.3.243-.436.378l-4.18 4.172a4.542 4.542 0 0 0 .013 6.417 4.564 4.564 0 0 0 6.433.014Z"/></svg>
