<svg xmlns="http://www.w3.org/2000/svg" width="40" height="40" fill="none" viewBox="0 0 40 40"><path fill="white" d="M33.913 7.583c4.518 6.666 6.749 14.185 5.915 22.842a.13.13 0 0 1-.053.092c-3.42 2.521-6.735 4.051-10.003 5.066a.127.127 0 0 1-.14-.048 26.799 26.799 0 0 1-2.043-3.333.129.129 0 0 1 .068-.179 20.399 20.399 0 0 0 3.122-1.49.129.129 0 0 0 .011-.213 15.922 15.922 0 0 1-.621-.489.122.122 0 0 0-.13-.016c-6.47 2.998-13.557 2.998-20.103 0a.124.124 0 0 0-.13.017c-.2.166-.41.33-.62.488a.129.129 0 0 0 .013.213 21.782 21.782 0 0 0 3.12 1.492c.071.028.105.108.07.177a23.85 23.85 0 0 1-2.043 3.334.13.13 0 0 1-.14.047c-3.253-1.015-6.568-2.545-9.989-5.066a.136.136 0 0 1-.052-.094c-.697-7.487.724-15.069 5.91-22.841a.117.117 0 0 1 .053-.046 32.825 32.825 0 0 1 8.142-2.534.129.129 0 0 1 .13.062c.354.628.757 1.432 1.03 2.09a30.36 30.36 0 0 1 9.145 0c.273-.644.662-1.462 1.014-2.09a.123.123 0 0 1 .13-.062 32.903 32.903 0 0 1 8.142 2.534.1.1 0 0 1 .052.047ZM16.961 21.82c.032-2.214-1.576-4.045-3.595-4.045-2.002 0-3.594 1.815-3.594 4.045 0 2.229 1.624 4.044 3.594 4.044 2.003 0 3.595-1.815 3.595-4.044Zm13.291 0c.032-2.214-1.576-4.045-3.594-4.045-2.003 0-3.595 1.815-3.595 4.045 0 2.229 1.624 4.044 3.595 4.044 2.018 0 3.594-1.815 3.594-4.044Z"/></svg>