<svg xmlns="http://www.w3.org/2000/svg" width="40" height="40" fill="none" viewBox="0 0 40 40"><g clip-path="url(#a)"><path fill="url(#b)" d="M20 0C8.956 0 0 9.18 0 20.506c0 9.06 5.73 16.747 13.677 19.459 1 .19 1.367-.445 1.367-.987 0-.489-.019-2.104-.027-3.818-5.564 1.24-6.739-2.42-6.739-2.42-.91-2.37-2.22-3-2.22-3-1.815-1.272.137-1.246.137-1.246 2.008.145 3.066 2.113 3.066 2.113 1.783 3.135 4.678 2.229 5.82 1.705.179-1.326.697-2.23 1.27-2.742-4.443-.519-9.113-2.277-9.113-10.135 0-2.238.781-4.068 2.061-5.504-.208-.516-.892-2.602.194-5.427 0 0 1.68-.55 5.501 2.102A18.717 18.717 0 0 1 20 9.916c1.7.008 3.412.236 5.01.69 3.818-2.653 5.495-2.102 5.495-2.102 1.089 2.825.404 4.91.196 5.427 1.282 1.436 2.058 3.266 2.058 5.504 0 7.876-4.678 9.61-9.132 10.118.717.637 1.357 1.885 1.357 3.798 0 2.743-.024 4.952-.024 5.627 0 .546.36 1.185 1.374.984C34.277 37.247 40 29.564 40 20.506 40 9.181 31.046 0 20 0Z"/></g><defs><linearGradient id="b" x1="20" x2="20" y1="0" y2="40" gradientUnits="userSpaceOnUse"><stop stop-color="white"/><stop offset="1" stop-color="white" stop-opacity=".5"/></linearGradient><clipPath id="a"><path fill="white" d="M0 0h40v40H0z"/></clipPath></defs></svg>