<svg xmlns="http://www.w3.org/2000/svg" width="20" height="20" fill="none" viewBox="0 0 20 20"><path fill="currentColor" fill-rule="evenodd" d="M1.23 13.658c-1.557 1.369-1.646 3.801-.194 5.285a3.477 3.477 0 0 0 5.17-.198l3.795-4.508 3.796 4.508a3.477 3.477 0 0 0 5.17.198c1.452-1.484 1.363-3.916-.194-5.285l-4.76-4.187 5.057-6.009a2.13 2.13 0 0 0-.104-2.848A2.017 2.017 0 0 0 16.18.507L10 5.942 3.823.507a2.017 2.017 0 0 0-2.787.107 2.13 2.13 0 0 0-.104 2.848L5.99 9.471l-4.76 4.187Z" clip-rule="evenodd"/></svg>
