<svg width="38" height="38" viewBox="0 0 38 38" fill="none" xmlns="http://www.w3.org/2000/svg">
<g filter="url(#filter0_dd_2137_6992)">
<path fill-rule="evenodd" clip-rule="evenodd" d="M3.20917 25.5844C0.407882 28.0484 0.247471 32.4272 2.86064 35.0984C5.47381 37.7696 9.75739 37.6057 12.1678 34.7421L18.9977 26.6282L25.8277 34.7421C28.2381 37.6057 32.5217 37.7696 35.1349 35.0984C37.748 32.4272 37.5876 28.0484 34.7863 25.5844L26.2194 18.049L35.3245 7.23225C36.5838 5.7362 36.5019 3.5007 35.1367 2.10512C33.7714 0.709538 31.5845 0.625826 30.121 1.91313L18.9977 11.697L7.87449 1.91313C6.41097 0.625826 4.22407 0.709538 2.85882 2.10512C1.49358 3.5007 1.41168 5.7362 2.671 7.23225L11.7761 18.049L3.20917 25.5844Z" fill="white"/>
</g>
<defs>
<filter id="filter0_dd_2137_6992" x="0" y="0.000387192" width="37.9961" height="38" filterUnits="userSpaceOnUse" color-interpolation-filters="sRGB">
<feFlood flood-opacity="0" result="BackgroundImageFix"/>
<feColorMatrix in="SourceAlpha" type="matrix" values="0 0 0 0 0 0 0 0 0 0 0 0 0 0 0 0 0 0 127 0" result="hardAlpha"/>
<feOffset dx="1" dy="1"/>
<feComposite in2="hardAlpha" operator="out"/>
<feColorMatrix type="matrix" values="0 0 0 0 0.666667 0 0 0 0 0 0 0 0 0 1 0 0 0 1 0"/>
<feBlend mode="normal" in2="BackgroundImageFix" result="effect1_dropShadow_2137_6992"/>
<feColorMatrix in="SourceAlpha" type="matrix" values="0 0 0 0 0 0 0 0 0 0 0 0 0 0 0 0 0 0 127 0" result="hardAlpha"/>
<feOffset dx="-1" dy="-1"/>
<feComposite in2="hardAlpha" operator="out"/>
<feColorMatrix type="matrix" values="0 0 0 0 1 0 0 0 0 0.917647 0 0 0 0 0 0 0 0 1 0"/>
<feBlend mode="normal" in2="effect1_dropShadow_2137_6992" result="effect2_dropShadow_2137_6992"/>
<feBlend mode="normal" in="SourceGraphic" in2="effect2_dropShadow_2137_6992" result="shape"/>
</filter>
</defs>
</svg>
